# 3ds Max Wavefront OBJ Exporter v0.97b - (c)2007 guruware
# File Created: 11.07.2018 13:25:59

mtllib resources/ObjImages/Ground/Tile01.mtl

#
# object Box002
#

v  -10.0252 -4.2492 230.3142
v  -10.0252 -4.2492 219.7410
v  37.2189 -4.2492 219.7410
v  37.2189 -4.2492 230.3142
v  37.2189 3.6248 219.7410
v  -10.0252 3.6248 219.7410
v  -10.0252 3.6248 230.3142
v  37.2189 3.6248 230.3142
v  -10.0252 -4.2492 205.5375
v  -10.0252 -4.2492 194.9643
v  37.2189 -4.2492 194.9643
v  37.2189 -4.2492 205.5375
v  37.2189 3.6248 194.9643
v  -10.0252 3.6248 194.9643
v  -10.0252 3.6248 205.5375
v  37.2189 3.6248 205.5375
v  37.7846 -6.3168 175.7154
v  -5.0331 -6.3168 164.9911
v  3.2861 -6.3168 155.4086
v  46.1039 -6.3168 166.1328
v  37.7846 1.5572 175.7154
v  46.1039 1.5572 166.1328
v  3.2861 1.5572 155.4086
v  -5.0331 1.5572 164.9911
v  58.4820 -7.4121 154.5512
v  25.0754 -7.4121 136.6079
v  38.9948 -7.4121 129.1315
v  72.4014 -7.4121 147.0748
v  58.4820 0.4619 154.5512
v  72.4014 0.4619 147.0748
v  38.9948 0.4619 129.1315
v  25.0754 0.4619 136.6079
v  85.6813 -7.4121 142.2252
v  49.4903 -7.4121 125.9140
v  62.1437 -7.4121 117.8144
v  98.3346 -7.4121 134.1256
v  85.6813 0.4619 142.2252
v  98.3346 0.4619 134.1256
v  62.1437 0.4619 117.8144
v  49.4903 0.4619 125.9140
v  113.0186 -7.4121 128.1871
v  76.8276 -7.4121 111.8759
v  89.4809 -7.4121 103.7764
v  125.6719 -7.4121 120.0875
v  113.0186 0.4619 128.1871
v  125.6719 0.4619 120.0875
v  89.4809 0.4619 103.7764
v  76.8276 0.4619 111.8759
v  141.9638 -7.4121 117.3383
v  105.7727 -7.4121 101.0271
v  118.4260 -7.4121 92.9276
v  154.6171 -7.4121 109.2387
v  141.9638 0.4619 117.3383
v  154.6171 0.4619 109.2387
v  118.4260 0.4619 92.9276
v  105.7727 0.4619 101.0271
v  156.7408 -7.4121 97.3894
v  120.5497 -7.4121 81.0782
v  133.2030 -7.4121 72.9787
v  169.3940 -7.4121 89.2898
v  156.7408 0.4619 97.3894
v  169.3940 0.4619 89.2898
v  133.2030 0.4619 72.9787
v  120.5497 0.4619 81.0782
v  95.8190 -7.0566 46.3610
v  108.4724 -7.0566 54.4606
v  72.2813 -7.0566 70.7718
v  59.6279 -7.0566 62.6722
v  72.2813 0.8174 70.7718
v  108.4724 0.8174 54.4606
v  95.8190 0.8174 46.3610
v  59.6279 0.8174 62.6722
v  80.3033 -7.0566 28.6287
v  92.9566 -7.0566 36.7283
v  56.7654 -7.0566 53.0395
v  44.1121 -7.0566 44.9399
v  56.7654 0.8174 53.0395
v  92.9566 0.8174 36.7283
v  80.3033 0.8174 28.6287
v  44.1121 0.8174 44.9399
v  43.6436 -7.0566 -6.1747
v  90.7078 -7.0566 -3.9631
v  88.9921 -7.0566 6.5699
v  41.9278 -7.0566 4.3583
v  43.6436 0.8174 -6.1747
v  41.9278 0.8174 4.3583
v  88.9921 0.8174 6.5699
v  90.7078 0.8174 -3.9631
v  43.6436 -7.0566 -28.3401
v  90.7078 -7.0566 -26.1284
v  88.9921 -7.0566 -15.5955
v  41.9278 -7.0566 -17.8071
v  43.6436 0.8174 -28.3401
v  41.9278 0.8174 -17.8071
v  88.9921 0.8174 -15.5955
v  90.7078 0.8174 -26.1284
v  82.8113 -7.7328 -81.4273
v  97.8910 -7.7328 -74.6309
v  67.5231 -7.7328 -55.1920
v  52.4434 -7.7328 -61.9883
v  67.5231 0.1412 -55.1920
v  97.8910 0.1412 -74.6309
v  82.8113 0.1412 -81.4273
v  52.4434 0.1412 -61.9883
v  64.3402 -7.7328 -94.7265
v  79.4197 -7.7328 -87.9301
v  49.0518 -7.7328 -68.4912
v  33.9723 -7.7328 -75.2875
v  49.0518 0.1412 -68.4912
v  79.4197 0.1412 -87.9301
v  64.3402 0.1412 -94.7265
v  33.9723 0.1412 -75.2875
v  45.4592 -7.7328 -111.8664
v  60.5388 -7.7328 -105.0700
v  30.1709 -7.7328 -85.6311
v  15.0912 -7.7328 -92.4274
v  30.1709 0.1412 -85.6311
v  60.5388 0.1412 -105.0700
v  45.4592 0.1412 -111.8664
v  15.0912 0.1412 -92.4274
v  -13.2291 -8.9799 134.3784
v  -0.5758 -8.9799 142.4779
v  -36.7668 -8.9799 158.7891
v  -49.4202 -8.9799 150.6895
v  -36.7668 -1.1059 158.7891
v  -0.5758 -1.1059 142.4779
v  -13.2291 -1.1059 134.3784
v  -49.4202 -1.1059 150.6895
v  -19.2861 -8.9799 108.1182
v  -12.5535 -8.9799 118.0537
v  -56.9483 -8.9799 126.7328
v  -63.6810 -8.9799 116.7972
v  -56.9483 -1.1059 126.7328
v  -12.5535 -1.1059 118.0537
v  -19.2861 -1.1059 108.1182
v  -63.6810 -1.1059 116.7972
v  -15.4430 -8.9799 82.8657
v  -13.7272 -8.9799 93.3987
v  -60.7915 -8.9799 95.6104
v  -62.5073 -8.9799 85.0774
v  -60.7915 -1.1059 95.6104
v  -13.7272 -1.1059 93.3987
v  -15.4430 -1.1059 82.8657
v  -62.5073 -1.1059 85.0774
v  -15.4430 -8.9799 57.0549
v  -13.7272 -8.9799 67.5880
v  -60.7915 -8.9799 69.7996
v  -62.5073 -8.9799 59.2666
v  -60.7915 -1.1059 69.7996
v  -13.7272 -1.1059 67.5880
v  -15.4430 -1.1059 57.0549
v  -62.5073 -1.1059 59.2666
v  -15.4430 -8.9799 30.4836
v  -13.7272 -8.9799 41.0167
v  -60.7915 -8.9799 43.2283
v  -62.5073 -8.9799 32.6953
v  -60.7915 -1.1059 43.2283
v  -13.7272 -1.1059 41.0167
v  -15.4430 -1.1059 30.4836
v  -62.5073 -1.1059 32.6953
v  -146.8858 -8.0275 11.7172
v  -113.4793 -8.0275 29.6605
v  -127.3988 -8.0275 37.1369
v  -160.8055 -8.0275 19.1936
v  -146.8858 -0.1535 11.7172
v  -160.8055 -0.1535 19.1936
v  -127.3988 -0.1535 37.1369
v  -113.4793 -0.1535 29.6605
v  -122.3311 -8.0275 1.2683
v  -88.9245 -8.0275 19.2117
v  -102.8439 -8.0275 26.6881
v  -136.2505 -8.0275 8.7447
v  -122.3311 -0.1535 1.2683
v  -136.2505 -0.1535 8.7447
v  -102.8439 -0.1535 26.6881
v  -88.9245 -0.1535 19.2117
v  -104.0911 -7.1413 -18.3642
v  -63.1766 -7.1413 -5.6764
v  -73.0190 -7.1413 3.4803
v  -113.9337 -7.1413 -9.2076
v  -104.0911 0.7327 -18.3642
v  -113.9337 0.7327 -9.2076
v  -73.0190 0.7327 3.4803
v  -63.1766 0.7327 -5.6764
v  -86.1759 -6.4307 -43.3386
v  -40.5416 -6.4307 -36.7709
v  -45.6365 -6.4307 -26.5580
v  -91.2708 -6.4307 -33.1256
v  -86.1759 1.4433 -43.3386
v  -91.2708 1.4433 -33.1256
v  -45.6365 1.4433 -26.5580
v  -40.5416 1.4433 -36.7709
v  -72.2127 -6.4307 -73.8980
v  -27.8177 -6.4307 -65.2190
v  -34.5504 -6.4307 -55.2834
v  -78.9455 -6.4307 -63.9624
v  -72.2127 1.4433 -73.8980
v  -78.9455 1.4433 -63.9624
v  -34.5504 1.4433 -55.2834
v  -27.8177 1.4433 -65.2190
v  -61.2274 -6.4307 -92.8428
v  -16.8325 -6.4307 -84.1638
v  -23.5652 -6.4307 -74.2282
v  -67.9601 -6.4307 -82.9072
v  -61.2274 1.4433 -92.8428
v  -67.9601 1.4433 -82.9072
v  -23.5652 1.4433 -74.2282
v  -16.8325 1.4433 -84.1638
v  -145.2281 -9.1775 -214.7724
v  -126.9681 -9.1775 -263.3538
v  -117.9007 -9.1775 -246.3685
v  -136.1608 -9.1775 -197.7872
v  -145.2281 -1.3035 -214.7724
v  -136.1608 -1.3035 -197.7872
v  -117.9007 -1.3035 -246.3685
v  -126.9681 -1.3035 -263.3538
v  -112.5191 -9.1775 -194.3214
v  -102.8031 -9.1775 -253.9151
v  -91.6803 -9.1775 -244.8774
v  -101.3963 -9.1775 -185.2837
v  -112.5191 -1.3035 -194.3214
v  -101.3963 -1.3035 -185.2837
v  -91.6803 -1.3035 -244.8774
v  -102.8031 -1.3035 -253.9151
v  -90.0540 -9.1775 -181.7826
v  -80.3380 -9.1775 -241.3765
v  -69.2152 -9.1775 -232.3388
v  -78.9312 -9.1775 -172.7449
v  -90.0540 -1.3035 -181.7826
v  -78.9312 -1.3035 -172.7449
v  -69.2152 -1.3035 -232.3388
v  -80.3380 -1.3035 -241.3765
v  -64.4543 -9.1775 -172.9011
v  -54.7383 -9.1775 -232.4948
v  -43.6155 -9.1775 -223.4571
v  -53.3315 -9.1775 -163.8633
v  -64.4543 -1.3035 -172.9011
v  -53.3315 -1.3035 -163.8633
v  -43.6155 -1.3035 -223.4571
v  -54.7383 -1.3035 -232.4948
v  -35.7200 -8.5531 -151.7586
v  -26.0039 -8.5531 -211.3525
v  -14.8811 -8.5531 -202.3148
v  -24.5972 -8.5531 -142.7208
v  -35.7200 -0.6791 -151.7586
v  -24.5972 -0.6791 -142.7208
v  -14.8811 -0.6791 -202.3148
v  -26.0039 -0.6791 -211.3525
v  -12.0930 -9.1775 -125.0499
v  -2.3770 -9.1775 -184.6437
v  8.7458 -9.1775 -175.6060
v  -0.9702 -9.1775 -116.0122
v  -12.0930 -1.3035 -125.0499
v  -0.9702 -1.3035 -116.0122
v  8.7458 -1.3035 -175.6060
v  -2.3770 -1.3035 -184.6437
v  -78.8725 -6.4307 -58.5150
v  -34.4776 -6.4307 -49.8360
v  -41.2103 -6.4307 -39.9005
v  -85.6052 -6.4307 -48.5795
v  -78.8725 1.4433 -58.5150
v  -85.6052 1.4433 -48.5795
v  -41.2103 1.4433 -39.9005
v  -34.4776 1.4433 -49.8360
v  -75.0929 -6.4307 -25.5716
v  -30.6980 -6.4307 -16.8926
v  -37.4307 -6.4307 -6.9570
v  -81.8256 -6.4307 -15.6360
v  -75.0929 1.4433 -25.5716
v  -81.8256 1.4433 -15.6360
v  -37.4307 1.4433 -6.9570
v  -30.6980 1.4433 -16.8926
# 272 vertices

vn -0.5774 -0.5774 0.5774
vn -0.5774 -0.5774 -0.5774
vn 0.5774 -0.5774 -0.5774
vn 0.5774 -0.5774 0.5774
vn 0.5774 0.5774 -0.5774
vn -0.5774 0.5774 -0.5774
vn -0.5774 0.5774 0.5774
vn 0.5774 0.5774 0.5774
vn 0.2794 -0.5773 0.7673
vn -0.7673 -0.5774 0.2792
vn -0.2793 -0.5774 -0.7673
vn 0.7673 -0.5774 -0.2793
vn 0.2794 0.5773 0.7673
vn 0.7673 0.5774 -0.2793
vn -0.2793 0.5774 -0.7673
vn -0.7673 0.5774 0.2792
vn 0.0001 -0.5775 0.8164
vn -0.8165 -0.5774 -0.0001
vn -0.0000 -0.5774 -0.8165
vn 0.8165 -0.5774 -0.0000
vn 0.0001 0.5775 0.8164
vn 0.8165 0.5774 -0.0000
vn -0.0000 0.5774 -0.8165
vn -0.8165 0.5774 -0.0001
vn 0.0712 -0.5774 0.8134
vn -0.8134 -0.5774 0.0712
vn -0.0712 -0.5774 -0.8134
vn 0.8133 -0.5775 -0.0711
vn 0.0712 0.5774 0.8134
vn 0.8133 0.5775 -0.0711
vn -0.0712 0.5774 -0.8134
vn -0.8134 0.5774 0.0712
vn -0.8134 -0.5774 0.0711
vn 0.8134 -0.5774 -0.0711
vn 0.8134 0.5774 -0.0711
vn -0.8134 0.5774 0.0711
vn 0.0712 -0.5774 -0.8134
vn 0.8134 -0.5774 0.0711
vn -0.0712 -0.5774 0.8134
vn -0.8134 -0.5774 -0.0711
vn -0.0712 0.5774 0.8134
vn 0.8134 0.5774 0.0711
vn 0.0712 0.5774 -0.8134
vn -0.8134 0.5774 -0.0711
vn -0.8134 -0.5774 -0.0712
vn -0.8134 0.5774 -0.0712
vn -0.5248 -0.5774 -0.6255
vn 0.6255 -0.5774 -0.5248
vn 0.5248 -0.5774 0.6255
vn -0.6255 -0.5774 0.5248
vn -0.5248 0.5774 -0.6255
vn -0.6255 0.5774 0.5248
vn 0.5248 0.5774 0.6255
vn 0.6255 0.5774 -0.5248
vn 0.8134 -0.5774 -0.0712
vn 0.8134 0.5774 -0.0712
vn 0.8134 -0.5774 0.0712
vn 0.8134 0.5774 0.0712
vn 0.3451 -0.5774 -0.7400
vn 0.7400 -0.5774 0.3451
vn -0.3451 -0.5774 0.7400
vn -0.7400 -0.5774 -0.3451
vn -0.3451 0.5774 0.7400
vn 0.7400 0.5774 0.3451
vn 0.3451 0.5774 -0.7400
vn -0.7400 0.5774 -0.3451
vn 0.5247 -0.5774 -0.6255
vn 0.6254 -0.5774 0.5249
vn -0.5247 -0.5774 0.6255
vn -0.6254 -0.5774 -0.5249
vn -0.5247 0.5774 0.6255
vn 0.6254 0.5774 0.5249
vn 0.5247 0.5774 -0.6255
vn -0.6254 0.5774 -0.5249
vn 0.6253 -0.5775 0.5248
vn -0.5248 -0.5773 0.6256
vn -0.5248 0.5773 0.6256
vn 0.6253 0.5775 0.5248
vn 0.0000 -0.5774 -0.8165
vn 0.0000 -0.5774 0.8165
vn -0.8165 -0.5774 -0.0000
vn 0.0000 0.5774 -0.8165
vn -0.8165 0.5774 -0.0000
vn 0.0000 0.5774 0.8165
vn -0.2113 -0.5774 -0.7886
vn 0.7887 -0.5774 -0.2113
vn 0.2113 -0.5774 0.7887
vn -0.7887 -0.5773 0.2113
vn -0.2113 0.5774 -0.7886
vn -0.7887 0.5773 0.2113
vn 0.2113 0.5774 0.7887
vn 0.7887 0.5774 -0.2113
vn -0.4082 -0.5774 -0.7071
vn 0.7071 -0.5774 -0.4082
vn 0.4082 -0.5774 0.7071
vn -0.7071 -0.5774 0.4082
vn -0.4082 0.5774 -0.7071
vn -0.7071 0.5774 0.4082
vn 0.4082 0.5774 0.7071
vn 0.7071 0.5774 -0.4082
vn -0.3451 -0.5774 -0.7399
vn 0.7400 -0.5774 -0.3450
vn 0.3451 -0.5774 0.7399
vn -0.7400 -0.5774 0.3450
vn -0.3451 0.5774 -0.7399
vn -0.7400 0.5774 0.3450
vn 0.3451 0.5774 0.7399
vn 0.7400 0.5774 -0.3450
vn -0.0711 -0.5774 -0.8134
vn 0.0711 -0.5774 0.8134
vn 0.0711 0.5774 0.8134
vn -0.0711 0.5774 -0.8134
vn 0.0000 -1.0000 -0.0000
vn 0.0000 1.0000 -0.0000
vn -0.1919 0.0000 0.9814
vn -0.8278 0.0000 -0.5610
vn 0.1919 0.0000 -0.9814
vn 0.8278 0.0000 0.5610
# 118 vertex normals

vt 1.0000 1.0000 0.0000
vt 1.0000 0.0000 0.0000
vt 0.0000 0.0000 0.0000
vt 0.0000 1.0000 0.0000
# 4 texture coords

o Box002
g Box002
usemtl Tile01_Tile01_Material__4
s 2
f 1/1/1 2/2/2 3/3/3 4/4/4 
s 4
f 5/2/5 6/3/6 7/4/7 8/1/8 
s 8
f 3/2/3 2/3/2 6/4/6 5/1/5 
s 16
f 4/2/4 3/3/3 5/4/5 8/1/8 
s 32
f 1/2/1 4/3/4 8/4/8 7/1/7 
s 64
f 2/2/2 1/3/1 7/4/7 6/1/6 
s 2
f 9/1/1 10/2/2 11/3/3 12/4/4 
s 4
f 13/2/5 14/3/6 15/4/7 16/1/8 
s 8
f 11/2/3 10/3/2 14/4/6 13/1/5 
s 16
f 12/2/4 11/3/3 13/4/5 16/1/8 
s 32
f 9/2/1 12/3/4 16/4/8 15/1/7 
s 64
f 10/2/2 9/3/1 15/4/7 14/1/6 
s 2
f 17/4/9 18/1/10 19/2/11 20/3/12 
s 4
f 21/1/13 22/2/14 23/3/15 24/4/16 
s 8
f 20/2/12 19/3/11 23/4/15 22/1/14 
s 16
f 17/2/9 20/3/12 22/4/14 21/1/13 
s 32
f 18/2/10 17/3/9 21/4/13 24/1/16 
s 64
f 19/2/11 18/3/10 24/4/16 23/1/15 
s 2
f 25/4/17 26/1/18 27/2/19 28/3/20 
s 4
f 29/1/21 30/2/22 31/3/23 32/4/24 
s 8
f 28/2/20 27/3/19 31/4/23 30/1/22 
s 16
f 25/2/17 28/3/20 30/4/22 29/1/21 
s 32
f 26/2/18 25/3/17 29/4/21 32/1/24 
s 64
f 27/2/19 26/3/18 32/4/24 31/1/23 
s 2
f 33/4/25 34/1/26 35/2/27 36/3/28 
s 4
f 37/1/29 38/2/30 39/3/31 40/4/32 
s 8
f 36/2/28 35/3/27 39/4/31 38/1/30 
s 16
f 33/2/25 36/3/28 38/4/30 37/1/29 
s 32
f 34/2/26 33/3/25 37/4/29 40/1/32 
s 64
f 35/2/27 34/3/26 40/4/32 39/1/31 
s 2
f 41/4/25 42/1/26 43/2/27 44/3/28 
s 4
f 45/1/29 46/2/30 47/3/31 48/4/32 
s 8
f 44/2/28 43/3/27 47/4/31 46/1/30 
s 16
f 41/2/25 44/3/28 46/4/30 45/1/29 
s 32
f 42/2/26 41/3/25 45/4/29 48/1/32 
s 64
f 43/2/27 42/3/26 48/4/32 47/1/31 
s 2
f 49/4/25 50/1/33 51/2/27 52/3/34 
s 4
f 53/1/29 54/2/35 55/3/31 56/4/36 
s 8
f 52/2/34 51/3/27 55/4/31 54/1/35 
s 16
f 49/2/25 52/3/34 54/4/35 53/1/29 
s 32
f 50/2/33 49/3/25 53/4/29 56/1/36 
s 64
f 51/2/27 50/3/33 56/4/36 55/1/31 
s 2
f 57/4/25 58/1/33 59/2/27 60/3/34 
s 4
f 61/1/29 62/2/35 63/3/31 64/4/36 
s 8
f 60/2/34 59/3/27 63/4/31 62/1/35 
s 16
f 57/2/25 60/3/34 62/4/35 61/1/29 
s 32
f 58/2/33 57/3/25 61/4/29 64/1/36 
s 64
f 59/2/27 58/3/33 64/4/36 63/1/31 
s 2
f 65/1/37 66/2/38 67/3/39 68/4/40 
s 4
f 69/2/41 70/3/42 71/4/43 72/1/44 
s 8
f 67/2/39 66/3/38 70/4/42 69/1/41 
s 16
f 68/2/40 67/3/39 69/4/41 72/1/44 
s 32
f 65/2/37 68/3/40 72/4/44 71/1/43 
s 64
f 66/2/38 65/3/37 71/4/43 70/1/42 
s 2
f 73/1/37 74/2/38 75/3/39 76/4/45 
s 4
f 77/2/41 78/3/42 79/4/43 80/1/46 
s 8
f 75/2/39 74/3/38 78/4/42 77/1/41 
s 16
f 76/2/45 75/3/39 77/4/41 80/1/46 
s 32
f 73/2/37 76/3/45 80/4/46 79/1/43 
s 64
f 74/2/38 73/3/37 79/4/43 78/1/42 
s 2
f 81/4/47 82/1/48 83/2/49 84/3/50 
s 4
f 85/1/51 86/2/52 87/3/53 88/4/54 
s 8
f 84/2/50 83/3/49 87/4/53 86/1/52 
s 16
f 81/2/47 84/3/50 86/4/52 85/1/51 
s 32
f 82/2/48 81/3/47 85/4/51 88/1/54 
s 64
f 83/2/49 82/3/48 88/4/54 87/1/53 
s 2
f 89/4/47 90/1/48 91/2/49 92/3/50 
s 4
f 93/1/51 94/2/52 95/3/53 96/4/54 
s 8
f 92/2/50 91/3/49 95/4/53 94/1/52 
s 16
f 89/2/47 92/3/50 94/4/52 93/1/51 
s 32
f 90/2/48 89/3/47 93/4/51 96/1/54 
s 64
f 91/2/49 90/3/48 96/4/54 95/1/53 
s 2
f 97/1/27 98/2/55 99/3/25 100/4/26 
s 4
f 101/2/29 102/3/56 103/4/31 104/1/32 
s 8
f 99/2/25 98/3/55 102/4/56 101/1/29 
s 16
f 100/2/26 99/3/25 101/4/29 104/1/32 
s 32
f 97/2/27 100/3/26 104/4/32 103/1/31 
s 64
f 98/2/55 97/3/27 103/4/31 102/1/56 
s 2
f 105/1/27 106/2/55 107/3/25 108/4/26 
s 4
f 109/2/29 110/3/56 111/4/31 112/1/32 
s 8
f 107/2/25 106/3/55 110/4/56 109/1/29 
s 16
f 108/2/26 107/3/25 109/4/29 112/1/32 
s 32
f 105/2/27 108/3/26 112/4/32 111/1/31 
s 64
f 106/2/55 105/3/27 111/4/31 110/1/56 
s 2
f 113/1/27 114/2/55 115/3/25 116/4/26 
s 4
f 117/2/29 118/3/56 119/4/31 120/1/32 
s 8
f 115/2/25 114/3/55 118/4/56 117/1/29 
s 16
f 116/2/26 115/3/25 117/4/29 120/1/32 
s 32
f 113/2/27 116/3/26 120/4/32 119/1/31 
s 64
f 114/2/55 113/3/27 119/4/31 118/1/56 
s 2
f 121/1/37 122/2/57 123/3/39 124/4/45 
s 4
f 125/2/41 126/3/58 127/4/43 128/1/46 
s 8
f 123/2/39 122/3/57 126/4/58 125/1/41 
s 16
f 124/2/45 123/3/39 125/4/41 128/1/46 
s 32
f 121/2/37 124/3/45 128/4/46 127/1/43 
s 64
f 122/2/57 121/3/37 127/4/43 126/1/58 
s 2
f 129/1/59 130/2/60 131/3/61 132/4/62 
s 4
f 133/2/63 134/3/64 135/4/65 136/1/66 
s 8
f 131/2/61 130/3/60 134/4/64 133/1/63 
s 16
f 132/2/62 131/3/61 133/4/63 136/1/66 
s 32
f 129/2/59 132/3/62 136/4/66 135/1/65 
s 64
f 130/2/60 129/3/59 135/4/65 134/1/64 
s 2
f 137/1/67 138/2/68 139/3/69 140/4/70 
s 4
f 141/2/71 142/3/72 143/4/73 144/1/74 
s 8
f 139/2/69 138/3/68 142/4/72 141/1/71 
s 16
f 140/2/70 139/3/69 141/4/71 144/1/74 
s 32
f 137/2/67 140/3/70 144/4/74 143/1/73 
s 64
f 138/2/68 137/3/67 143/4/73 142/1/72 
s 2
f 145/1/67 146/2/75 147/3/76 148/4/70 
s 4
f 149/2/77 150/3/78 151/4/73 152/1/74 
s 8
f 147/2/76 146/3/75 150/4/78 149/1/77 
s 16
f 148/2/70 147/3/76 149/4/77 152/1/74 
s 32
f 145/2/67 148/3/70 152/4/74 151/1/73 
s 64
f 146/2/75 145/3/67 151/4/73 150/1/78 
s 2
f 153/1/67 154/2/68 155/3/69 156/4/70 
s 4
f 157/2/71 158/3/72 159/4/73 160/1/74 
s 8
f 155/2/69 154/3/68 158/4/72 157/1/71 
s 16
f 156/2/70 155/3/69 157/4/71 160/1/74 
s 32
f 153/2/67 156/3/70 160/4/74 159/1/73 
s 64
f 154/2/68 153/3/67 159/4/73 158/1/72 
s 2
f 161/4/79 162/1/20 163/2/80 164/3/81 
s 4
f 165/1/82 166/2/83 167/3/84 168/4/22 
s 8
f 164/2/81 163/3/80 167/4/84 166/1/83 
s 16
f 161/2/79 164/3/81 166/4/83 165/1/82 
s 32
f 162/2/20 161/3/79 165/4/82 168/1/22 
s 64
f 163/2/80 162/3/20 168/4/22 167/1/84 
s 2
f 169/4/79 170/1/20 171/2/80 172/3/81 
s 4
f 173/1/82 174/2/83 175/3/84 176/4/22 
s 8
f 172/2/81 171/3/80 175/4/84 174/1/83 
s 16
f 169/2/79 172/3/81 174/4/83 173/1/82 
s 32
f 170/2/20 169/3/79 173/4/82 176/1/22 
s 64
f 171/2/80 170/3/20 176/4/22 175/1/84 
s 2
f 177/4/85 178/1/86 179/2/87 180/3/88 
s 4
f 181/1/89 182/2/90 183/3/91 184/4/92 
s 8
f 180/2/88 179/3/87 183/4/91 182/1/90 
s 16
f 177/2/85 180/3/88 182/4/90 181/1/89 
s 32
f 178/2/86 177/3/85 181/4/89 184/1/92 
s 64
f 179/2/87 178/3/86 184/4/92 183/1/91 
s 2
f 185/4/93 186/1/94 187/2/95 188/3/96 
s 4
f 189/1/97 190/2/98 191/3/99 192/4/100 
s 8
f 188/2/96 187/3/95 191/4/99 190/1/98 
s 16
f 185/2/93 188/3/96 190/4/98 189/1/97 
s 32
f 186/2/94 185/3/93 189/4/97 192/1/100 
s 64
f 187/2/95 186/3/94 192/4/100 191/1/99 
s 2
f 193/4/101 194/1/102 195/2/103 196/3/104 
s 4
f 197/1/105 198/2/106 199/3/107 200/4/108 
s 8
f 196/2/104 195/3/103 199/4/107 198/1/106 
s 16
f 193/2/101 196/3/104 198/4/106 197/1/105 
s 32
f 194/2/102 193/3/101 197/4/105 200/1/108 
s 64
f 195/2/103 194/3/102 200/4/108 199/1/107 
s 2
f 201/4/101 202/1/102 203/2/103 204/3/104 
s 4
f 205/1/105 206/2/106 207/3/107 208/4/108 
s 8
f 204/2/104 203/3/103 207/4/107 206/1/106 
s 16
f 201/2/101 204/3/104 206/4/106 205/1/105 
s 32
f 202/2/102 201/3/101 205/4/105 208/1/108 
s 64
f 203/2/103 202/3/102 208/4/108 207/1/107 
s 2
f 209/4/26 210/1/109 211/2/55 212/3/110 
s 4
f 213/1/32 214/2/111 215/3/56 216/4/112 
s 8
f 212/2/110 211/3/55 215/4/56 214/1/111 
s 16
f 209/2/26 212/3/110 214/4/111 213/1/32 
s 32
f 210/2/109 209/3/26 213/4/32 216/1/112 
s 64
f 211/2/55 210/3/109 216/4/112 215/1/56 
s 2
f 217/4/104 218/1/101 219/2/102 220/3/103 
s 4
f 221/1/106 222/2/107 223/3/108 224/4/105 
s 8
f 220/2/103 219/3/102 223/4/108 222/1/107 
s 16
f 217/2/104 220/3/103 222/4/107 221/1/106 
s 32
f 218/2/101 217/3/104 221/4/106 224/1/105 
s 64
f 219/2/102 218/3/101 224/4/105 223/1/108 
s 2
f 225/4/104 226/1/101 227/2/102 228/3/103 
s 4
f 229/1/106 230/2/107 231/3/108 232/4/105 
s 8
f 228/2/103 227/3/102 231/4/108 230/1/107 
s 16
f 225/2/104 228/3/103 230/4/107 229/1/106 
s 32
f 226/2/101 225/3/104 229/4/106 232/1/105 
s 64
f 227/2/102 226/3/101 232/4/105 231/1/108 
s 2
f 233/4/104 234/1/101 235/2/102 236/3/103 
s 4
f 237/1/106 238/2/107 239/3/108 240/4/105 
s 8
f 236/2/103 235/3/102 239/4/108 238/1/107 
s 16
f 233/2/104 236/3/103 238/4/107 237/1/106 
s 32
f 234/2/101 233/3/104 237/4/106 240/1/105 
s 64
f 235/2/102 234/3/101 240/4/105 239/1/108 
s 2
f 241/4/104 242/1/101 243/2/102 244/3/103 
s 4
f 245/1/106 246/2/107 247/3/108 248/4/105 
s 8
f 244/2/103 243/3/102 247/4/108 246/1/107 
s 16
f 241/2/104 244/3/103 246/4/107 245/1/106 
s 32
f 242/2/101 241/3/104 245/4/106 248/1/105 
s 64
f 243/2/102 242/3/101 248/4/105 247/1/108 
s 2
f 249/4/104 250/1/101 251/2/102 252/3/103 
s 4
f 253/1/106 254/2/107 255/3/108 256/4/105 
s 8
f 252/2/103 251/3/102 255/4/108 254/1/107 
s 16
f 249/2/104 252/3/103 254/4/107 253/1/106 
s 32
f 250/2/101 249/3/104 253/4/106 256/1/105 
s 64
f 251/2/102 250/3/101 256/4/105 255/1/108 
s 2
f 257/4/113 258/1/113 259/2/113 260/3/113 
s 4
f 261/1/114 262/2/114 263/3/114 264/4/114 
s 8
f 260/2/115 259/3/115 263/4/115 262/1/115 
s 16
f 257/2/116 260/3/116 262/4/116 261/1/116 
s 32
f 258/2/117 257/3/117 261/4/117 264/1/117 
s 64
f 259/2/118 258/3/118 264/4/118 263/1/118 
s 2
f 265/4/113 266/1/113 267/2/113 268/3/113 
s 4
f 269/1/114 270/2/114 271/3/114 272/4/114 
s 8
f 268/2/115 267/3/115 271/4/115 270/1/115 
s 16
f 265/2/116 268/3/116 270/4/116 269/1/116 
s 32
f 266/2/117 265/3/117 269/4/117 272/1/117 
s 64
f 267/2/118 266/3/118 272/4/118 271/1/118 
# 204 polygons

