# 3ds Max Wavefront OBJ Exporter v0.97b - (c)2007 guruware
# File Created: 11.07.2018 14:28:22

mtllib Tile02.mtl

#
# object Box003
#

v  205.5094 -3.9370 79.1805
v  180.2328 -3.9370 79.1805
v  180.2328 -3.9370 61.0004
v  205.5094 -3.9370 61.0004
v  205.5094 3.9370 79.1805
v  205.5094 3.9370 61.0004
v  180.2328 3.9370 61.0004
v  180.2328 3.9370 79.1805
v  204.4030 -3.9370 50.7209
v  179.5105 -3.9370 43.1443
v  181.3393 -3.9370 25.2403
v  206.2319 -3.9370 32.8170
v  204.4030 3.9370 50.7209
v  206.2319 3.9370 32.8170
v  181.3393 3.9370 25.2403
v  179.5105 3.9370 43.1443
v  205.5094 -3.9370 21.2125
v  180.2328 -3.9370 21.2125
v  180.2328 -3.9370 3.0325
v  205.5094 -3.9370 3.0325
v  205.5094 3.9370 21.2125
v  205.5094 3.9370 3.0325
v  180.2328 3.9370 3.0325
v  180.2328 3.9370 21.2125
v  205.5094 -3.9370 -5.5019
v  180.2328 -3.9370 -5.5019
v  180.2328 -3.9370 -23.6819
v  205.5094 -3.9370 -23.6819
v  205.5094 3.9370 -5.5019
v  205.5094 3.9370 -23.6819
v  180.2328 3.9370 -23.6819
v  180.2328 3.9370 -5.5019
v  130.8031 -3.9370 5.2998
v  137.3452 -3.9370 -36.8455
v  147.5183 -3.9370 -32.1402
v  140.9762 -3.9370 10.0052
v  130.8031 3.9370 5.2998
v  140.9762 3.9370 10.0052
v  147.5183 3.9370 -32.1402
v  137.3452 3.9370 -36.8455
v  107.8989 -3.9370 0.1279
v  114.4409 -3.9370 -42.0175
v  124.6140 -3.9370 -37.3121
v  118.0720 -3.9370 4.8333
v  107.8989 3.9370 0.1279
v  118.0720 3.9370 4.8333
v  124.6140 3.9370 -37.3121
v  114.4409 3.9370 -42.0175
v  85.7335 -3.9370 -5.0440
v  92.2756 -3.9370 -47.1894
v  102.4487 -3.9370 -42.4841
v  95.9066 -3.9370 -0.3387
v  85.7335 3.9370 -5.0440
v  95.9066 3.9370 -0.3387
v  102.4487 3.9370 -42.4841
v  92.2756 3.9370 -47.1894
v  62.4848 -3.9370 -13.4031
v  69.0268 -3.9370 -55.5485
v  79.1999 -3.9370 -50.8431
v  72.6579 -3.9370 -8.6977
v  62.4848 3.9370 -13.4031
v  72.6579 3.9370 -8.6977
v  79.1999 3.9370 -50.8431
v  69.0268 3.9370 -55.5485
v  40.5422 -3.9370 -19.6724
v  47.0842 -3.9370 -61.8178
v  57.2573 -3.9370 -57.1125
v  50.7152 -3.9370 -14.9671
v  40.5422 3.9370 -19.6724
v  50.7152 3.9370 -14.9671
v  57.2573 3.9370 -57.1125
v  47.0842 3.9370 -61.8178
v  40.5422 -3.9370 -112.2191
v  47.0842 -3.9370 -154.3644
v  57.2573 -3.9370 -149.6591
v  50.7152 -3.9370 -107.5137
v  40.5422 3.9370 -112.2191
v  50.7152 3.9370 -107.5137
v  57.2573 3.9370 -149.6591
v  47.0842 3.9370 -154.3644
v  17.4532 -3.9370 -120.7158
v  23.9953 -3.9370 -162.8612
v  34.1684 -3.9370 -158.1559
v  27.6263 -3.9370 -116.0104
v  17.4532 3.9370 -120.7158
v  27.6263 3.9370 -116.0104
v  34.1684 3.9370 -158.1559
v  23.9953 3.9370 -162.8612
v  -5.4510 -3.9370 -131.0596
v  1.0911 -3.9370 -173.2050
v  11.2641 -3.9370 -168.4997
v  4.7221 -3.9370 -126.3543
v  -5.4510 3.9370 -131.0596
v  4.7221 3.9370 -126.3543
v  11.2641 3.9370 -168.4997
v  1.0911 3.9370 -173.2050
v  -27.6548 -3.9370 -140.9860
v  -21.1128 -3.9370 -183.1314
v  -10.9397 -3.9370 -178.4261
v  -17.4817 -3.9370 -136.2807
v  -27.6548 3.9370 -140.9860
v  -17.4817 3.9370 -136.2807
v  -10.9397 3.9370 -178.4261
v  -21.1128 3.9370 -183.1314
v  -51.4260 -3.9370 -150.9124
v  -44.8839 -3.9370 -193.0579
v  -34.7108 -3.9370 -188.3525
v  -41.2529 -3.9370 -146.2071
v  -51.4260 3.9370 -150.9124
v  -41.2529 3.9370 -146.2071
v  -34.7108 3.9370 -188.3525
v  -44.8839 3.9370 -193.0579
v  -74.1523 -3.9370 -161.8837
v  -67.6102 -3.9370 -204.0291
v  -57.4371 -3.9370 -199.3238
v  -63.9792 -3.9370 -157.1784
v  -74.1523 3.9370 -161.8837
v  -63.9792 3.9370 -157.1784
v  -57.4371 3.9370 -199.3238
v  -67.6102 3.9370 -204.0291
v  -97.7434 -3.9370 -161.8837
v  -91.2014 -3.9370 -204.0291
v  -81.0283 -3.9370 -199.3238
v  -87.5703 -3.9370 -157.1784
v  -97.7434 3.9370 -161.8837
v  -87.5703 3.9370 -157.1784
v  -81.0283 3.9370 -199.3238
v  -91.2014 3.9370 -204.0291
v  88.2410 -3.9370 -173.0900
v  107.6039 -3.9370 -145.0438
v  100.8341 -3.9370 -131.1171
v  81.4712 -3.9370 -159.1633
v  88.2410 3.9370 -173.0900
v  81.4712 3.9370 -159.1633
v  100.8341 3.9370 -131.1171
v  107.6039 3.9370 -145.0438
v  108.1898 -3.9370 -186.7587
v  127.5528 -3.9370 -158.7125
v  120.7830 -3.9370 -144.7858
v  101.4200 -3.9370 -172.8320
v  108.1898 3.9370 -186.7587
v  101.4200 3.9370 -172.8320
v  120.7830 3.9370 -144.7858
v  127.5528 3.9370 -158.7125
v  126.2915 -3.9370 -202.2744
v  145.6545 -3.9370 -174.2282
v  138.8847 -3.9370 -160.3015
v  119.5217 -3.9370 -188.3477
v  126.2915 3.9370 -202.2744
v  119.5217 3.9370 -188.3477
v  138.8847 3.9370 -160.3015
v  145.6545 3.9370 -174.2282
v  147.9725 -3.9370 -223.5216
v  172.3878 -3.9370 -212.2288
v  169.6619 -3.9370 -194.6682
v  145.2466 -3.9370 -205.9609
v  147.9725 3.9370 -223.5216
v  145.2466 3.9370 -205.9609
v  169.6619 3.9370 -194.6682
v  172.3878 3.9370 -212.2288
v  152.2572 -3.9370 -248.4093
v  177.5338 -3.9370 -248.4093
v  177.5338 -3.9370 -230.2292
v  152.2572 -3.9370 -230.2292
v  152.2572 3.9370 -248.4093
v  152.2572 3.9370 -230.2292
v  177.5338 3.9370 -230.2292
v  177.5338 3.9370 -248.4093
v  10.8764 -3.9370 235.6087
v  27.1239 -3.9370 202.1845
v  35.1918 -3.9370 213.8705
v  18.9443 -3.9370 247.2946
v  10.8764 3.9370 235.6087
v  18.9443 3.9370 247.2946
v  35.1918 3.9370 213.8705
v  27.1239 3.9370 202.1845
v  -10.5438 -3.9370 222.0251
v  5.7037 -3.9370 188.6010
v  13.7717 -3.9370 200.2869
v  -2.4758 -3.9370 233.7111
v  -10.5438 3.9370 222.0251
v  -2.4758 3.9370 233.7111
v  13.7717 3.9370 200.2869
v  5.7037 3.9370 188.6010
v  -31.9640 -3.9370 207.9193
v  -15.7165 -3.9370 174.4950
v  -7.6486 -3.9370 186.1810
v  -23.8960 -3.9370 219.6052
v  -31.9640 3.9370 207.9193
v  -23.8960 3.9370 219.6052
v  -7.6486 3.9370 186.1810
v  -15.7165 3.9370 174.4950
v  -55.9963 -3.9370 192.7684
v  -39.7488 -3.9370 159.3442
v  -31.6809 -3.9370 171.0301
v  -47.9284 -3.9370 204.4543
v  -55.9963 3.9370 192.7684
v  -47.9284 3.9370 204.4543
v  -31.6809 3.9370 171.0301
v  -39.7488 3.9370 159.3442
v  -80.5495 -3.9370 177.5781
v  -71.9044 -3.9370 136.5773
v  -62.0076 -3.9370 142.7953
v  -70.6527 -3.9370 183.7961
v  -80.5495 3.9370 177.5781
v  -70.6527 3.9370 183.7961
v  -62.0076 3.9370 142.7953
v  -71.9044 3.9370 136.5773
v  -84.1778 -3.9370 100.5605
v  -59.7625 -3.9370 111.8533
v  -62.4883 -3.9370 129.4139
v  -86.9036 -3.9370 118.1211
v  -84.1778 3.9370 100.5605
v  -86.9036 3.9370 118.1211
v  -62.4883 3.9370 129.4139
v  -59.7625 3.9370 111.8533
v  -80.0687 -3.9370 74.8790
v  -55.6534 -3.9370 86.1718
v  -58.3793 -3.9370 103.7324
v  -82.7946 -3.9370 92.4396
v  -80.0687 3.9370 74.8790
v  -82.7946 3.9370 92.4396
v  -58.3793 3.9370 103.7324
v  -55.6534 3.9370 86.1718
v  -81.8624 -3.9370 50.4373
v  -56.5857 -3.9370 50.4373
v  -56.5857 -3.9370 68.6174
v  -81.8623 -3.9370 68.6174
v  -81.8624 3.9370 50.4373
v  -81.8623 3.9370 68.6174
v  -56.5857 3.9370 68.6174
v  -56.5857 3.9370 50.4373
v  -117.6867 -3.9370 -161.9399
v  -99.8135 -3.9370 -131.0872
v  -107.2607 -3.9370 -118.2320
v  -125.1339 -3.9370 -149.0846
v  -117.6867 3.9370 -161.9399
v  -125.1339 3.9370 -149.0846
v  -107.2607 3.9370 -118.2320
v  -99.8135 3.9370 -131.0872
v  -140.6380 -3.9370 -145.4149
v  -122.7648 -3.9370 -114.5623
v  -130.2120 -3.9370 -101.7070
v  -148.0852 -3.9370 -132.5597
v  -140.6380 3.9370 -145.4149
v  -148.0852 3.9370 -132.5597
v  -130.2120 3.9370 -101.7070
v  -122.7648 3.9370 -114.5623
v  -161.7533 -3.9370 -126.1358
v  -143.8800 -3.9370 -95.2832
v  -151.3272 -3.9370 -82.4279
v  -169.2005 -3.9370 -113.2806
v  -161.7533 3.9370 -126.1358
v  -169.2005 3.9370 -113.2806
v  -151.3272 3.9370 -82.4279
v  -143.8800 3.9370 -95.2832
v  -181.0324 -3.9370 -105.9386
v  -163.1592 -3.9370 -75.0860
v  -170.6064 -3.9370 -62.2307
v  -188.4796 -3.9370 -93.0833
v  -181.0324 3.9370 -105.9386
v  -188.4796 3.9370 -93.0833
v  -170.6064 3.9370 -62.2307
v  -163.1592 3.9370 -75.0860
v  -199.3935 -3.9370 -85.7414
v  -181.5202 -3.9370 -54.8888
v  -188.9675 -3.9370 -42.0335
v  -206.8407 -3.9370 -72.8861
v  -199.3935 3.9370 -85.7414
v  -206.8407 3.9370 -72.8861
v  -188.9675 3.9370 -42.0335
v  -181.5202 3.9370 -54.8888
v  -91.7305 -3.9370 13.4249
v  -106.2286 -3.9370 49.1663
v  -114.8558 -3.9370 38.7387
v  -100.3577 -3.9370 2.9973
v  -91.7305 3.9370 13.4249
v  -100.3577 3.9370 2.9973
v  -114.8558 3.9370 38.7387
v  -106.2286 3.9370 49.1663
v  -115.5999 -3.9370 0.5722
v  -130.0980 -3.9370 36.3136
v  -138.7252 -3.9370 25.8860
v  -124.2271 -3.9370 -9.8554
v  -115.5999 3.9370 0.5722
v  -124.2271 3.9370 -9.8554
v  -138.7252 3.9370 25.8860
v  -130.0980 3.9370 36.3136
v  -139.4693 -3.9370 -13.1986
v  -153.9674 -3.9370 22.5427
v  -162.5946 -3.9370 12.1151
v  -148.0965 -3.9370 -23.6262
v  -139.4693 3.9370 -13.1986
v  -148.0965 3.9370 -23.6262
v  -162.5946 3.9370 12.1151
v  -153.9674 3.9370 22.5427
v  -162.4206 -3.9370 -27.8875
v  -176.9187 -3.9370 7.8538
v  -185.5459 -3.9370 -2.5738
v  -171.0478 -3.9370 -38.3152
v  -162.4206 3.9370 -27.8875
v  -171.0478 3.9370 -38.3152
v  -185.5459 3.9370 -2.5738
v  -176.9187 3.9370 7.8538
# 304 vertices

vn 0.5774 -0.5774 0.5774
vn -0.5774 -0.5774 0.5774
vn -0.5774 -0.5774 -0.5774
vn 0.5774 -0.5774 -0.5774
vn 0.5774 0.5774 0.5774
vn 0.5774 0.5774 -0.5774
vn -0.5774 0.5774 -0.5774
vn -0.5774 0.5774 0.5774
vn 0.4683 -0.5773 0.6689
vn -0.6688 -0.5774 0.4684
vn -0.4682 -0.5774 -0.6689
vn 0.6687 -0.5775 -0.4683
vn 0.4683 0.5773 0.6689
vn 0.6687 0.5775 -0.4683
vn -0.4682 0.5774 -0.6689
vn -0.6688 0.5774 0.4684
vn -0.7072 -0.5773 0.4082
vn -0.4083 -0.5775 -0.7070
vn 0.7072 -0.5773 -0.4082
vn 0.4083 -0.5775 0.7070
vn -0.7072 0.5773 0.4082
vn 0.4083 0.5775 0.7070
vn 0.7072 0.5773 -0.4082
vn -0.4083 0.5775 -0.7070
vn -0.7071 -0.5774 0.4082
vn -0.4083 -0.5774 -0.7070
vn 0.7071 -0.5774 -0.4082
vn 0.4081 -0.5775 0.7071
vn -0.7071 0.5774 0.4082
vn 0.4081 0.5775 0.7071
vn 0.7071 0.5774 -0.4082
vn -0.4083 0.5774 -0.7070
vn -0.4082 -0.5774 -0.7071
vn 0.4082 -0.5774 0.7071
vn 0.4082 0.5774 0.7071
vn -0.4082 0.5774 -0.7071
vn 0.4083 -0.5774 0.7070
vn 0.4083 0.5774 0.7070
vn -0.7070 -0.5774 0.4083
vn 0.7070 -0.5774 -0.4083
vn -0.7070 0.5774 0.4083
vn 0.7070 0.5774 -0.4083
vn -0.0712 -0.5774 -0.8134
vn 0.8134 -0.5774 -0.0712
vn 0.0712 -0.5774 0.8134
vn -0.8134 -0.5774 0.0712
vn -0.0712 0.5774 -0.8134
vn -0.8134 0.5774 0.0712
vn 0.0712 0.5774 0.8134
vn 0.8134 0.5774 -0.0712
vn 0.8134 -0.5774 -0.0711
vn -0.8134 -0.5774 0.0711
vn -0.8134 0.5774 0.0711
vn 0.8134 0.5774 -0.0711
vn 0.5774 -0.5774 0.5773
vn 0.5774 0.5774 0.5773
vn -0.0711 -0.5774 -0.8134
vn 0.0711 -0.5774 0.8134
vn 0.0711 0.5774 0.8134
vn -0.0711 0.5774 -0.8134
vn -0.7400 -0.5774 0.3451
vn -0.3451 -0.5774 -0.7399
vn 0.7400 -0.5774 -0.3450
vn 0.3451 -0.5774 0.7400
vn -0.7400 0.5774 0.3451
vn 0.3451 0.5774 0.7400
vn 0.7400 0.5774 -0.3450
vn -0.3451 0.5774 -0.7399
vn -0.5774 -0.5774 -0.5773
vn -0.5774 0.5774 -0.5773
vn 0.0000 -0.5774 -0.8165
vn 0.8165 -0.5774 -0.0000
vn 0.0000 -0.5774 0.8165
vn -0.8165 -0.5774 -0.0000
vn 0.0000 0.5774 -0.8165
vn -0.8165 0.5774 -0.0000
vn 0.0000 0.5774 0.8165
vn 0.8165 0.5774 -0.0000
vn -0.0001 -0.5774 -0.8165
vn -0.0001 -0.5774 0.8165
vn -0.8165 -0.5774 0.0000
vn -0.0001 0.5774 -0.8165
vn -0.8165 0.5774 0.0000
vn -0.0001 0.5774 0.8165
vn 0.8041 -0.5774 -0.1418
vn 0.1418 -0.5774 0.8041
vn -0.8041 -0.5774 0.1418
vn -0.1418 -0.5774 -0.8041
vn 0.8041 0.5774 -0.1418
vn -0.1418 0.5774 -0.8041
vn -0.8041 0.5774 0.1418
vn 0.1418 0.5774 0.8041
# 92 vertex normals

vt 0.0000 1.0000 0.0000
vt 1.0000 1.0000 0.0000
vt 1.0000 0.0000 0.0000
vt 0.0000 0.0000 0.0000
# 4 texture coords

o Box003
g Box003
usemtl Tile02_Material__4
s 2
f 1/1/1 2/2/2 3/3/3 4/4/4 
s 4
f 5/2/5 6/3/6 7/4/7 8/1/8 
s 8
f 6/2/6 4/3/4 3/4/3 7/1/7 
s 16
f 5/2/5 1/3/1 4/4/4 6/1/6 
s 32
f 8/2/8 2/3/2 1/4/1 5/1/5 
s 64
f 7/2/7 3/3/3 2/4/2 8/1/8 
s 2
f 9/1/9 10/2/10 11/3/11 12/4/12 
s 4
f 13/2/13 14/3/14 15/4/15 16/1/16 
s 8
f 14/2/14 12/3/12 11/4/11 15/1/15 
s 16
f 13/2/13 9/3/9 12/4/12 14/1/14 
s 32
f 16/2/16 10/3/10 9/4/9 13/1/13 
s 64
f 15/2/15 11/3/11 10/4/10 16/1/16 
s 2
f 17/1/1 18/2/2 19/3/3 20/4/4 
s 4
f 21/2/5 22/3/6 23/4/7 24/1/8 
s 8
f 22/2/6 20/3/4 19/4/3 23/1/7 
s 16
f 21/2/5 17/3/1 20/4/4 22/1/6 
s 32
f 24/2/8 18/3/2 17/4/1 21/1/5 
s 64
f 23/2/7 19/3/3 18/4/2 24/1/8 
s 2
f 25/1/1 26/2/2 27/3/3 28/4/4 
s 4
f 29/2/5 30/3/6 31/4/7 32/1/8 
s 8
f 30/2/6 28/3/4 27/4/3 31/1/7 
s 16
f 29/2/5 25/3/1 28/4/4 30/1/6 
s 32
f 32/2/8 26/3/2 25/4/1 29/1/5 
s 64
f 31/2/7 27/3/3 26/4/2 32/1/8 
s 2
f 33/1/17 34/2/18 35/3/19 36/4/20 
s 4
f 37/2/21 38/3/22 39/4/23 40/1/24 
s 8
f 38/2/22 36/3/20 35/4/19 39/1/23 
s 16
f 37/2/21 33/3/17 36/4/20 38/1/22 
s 32
f 40/2/24 34/3/18 33/4/17 37/1/21 
s 64
f 39/2/23 35/3/19 34/4/18 40/1/24 
s 2
f 41/1/25 42/2/26 43/3/27 44/4/28 
s 4
f 45/2/29 46/3/30 47/4/31 48/1/32 
s 8
f 46/2/30 44/3/28 43/4/27 47/1/31 
s 16
f 45/2/29 41/3/25 44/4/28 46/1/30 
s 32
f 48/2/32 42/3/26 41/4/25 45/1/29 
s 64
f 47/2/31 43/3/27 42/4/26 48/1/32 
s 2
f 49/1/25 50/2/33 51/3/27 52/4/34 
s 4
f 53/2/29 54/3/35 55/4/31 56/1/36 
s 8
f 54/2/35 52/3/34 51/4/27 55/1/31 
s 16
f 53/2/29 49/3/25 52/4/34 54/1/35 
s 32
f 56/2/36 50/3/33 49/4/25 53/1/29 
s 64
f 55/2/31 51/3/27 50/4/33 56/1/36 
s 2
f 57/1/25 58/2/26 59/3/27 60/4/37 
s 4
f 61/2/29 62/3/38 63/4/31 64/1/32 
s 8
f 62/2/38 60/3/37 59/4/27 63/1/31 
s 16
f 61/2/29 57/3/25 60/4/37 62/1/38 
s 32
f 64/2/32 58/3/26 57/4/25 61/1/29 
s 64
f 63/2/31 59/3/27 58/4/26 64/1/32 
s 2
f 65/1/25 66/2/26 67/3/27 68/4/37 
s 4
f 69/2/29 70/3/38 71/4/31 72/1/32 
s 8
f 70/2/38 68/3/37 67/4/27 71/1/31 
s 16
f 69/2/29 65/3/25 68/4/37 70/1/38 
s 32
f 72/2/32 66/3/26 65/4/25 69/1/29 
s 64
f 71/2/31 67/3/27 66/4/26 72/1/32 
s 2
f 73/1/25 74/2/26 75/3/27 76/4/37 
s 4
f 77/2/29 78/3/38 79/4/31 80/1/32 
s 8
f 78/2/38 76/3/37 75/4/27 79/1/31 
s 16
f 77/2/29 73/3/25 76/4/37 78/1/38 
s 32
f 80/2/32 74/3/26 73/4/25 77/1/29 
s 64
f 79/2/31 75/3/27 74/4/26 80/1/32 
s 2
f 81/1/25 82/2/33 83/3/27 84/4/37 
s 4
f 85/2/29 86/3/38 87/4/31 88/1/36 
s 8
f 86/2/38 84/3/37 83/4/27 87/1/31 
s 16
f 85/2/29 81/3/25 84/4/37 86/1/38 
s 32
f 88/2/36 82/3/33 81/4/25 85/1/29 
s 64
f 87/2/31 83/3/27 82/4/33 88/1/36 
s 2
f 89/1/25 90/2/33 91/3/27 92/4/34 
s 4
f 93/2/29 94/3/35 95/4/31 96/1/36 
s 8
f 94/2/35 92/3/34 91/4/27 95/1/31 
s 16
f 93/2/29 89/3/25 92/4/34 94/1/35 
s 32
f 96/2/36 90/3/33 89/4/25 93/1/29 
s 64
f 95/2/31 91/3/27 90/4/33 96/1/36 
s 2
f 97/1/17 98/2/18 99/3/19 100/4/20 
s 4
f 101/2/21 102/3/22 103/4/23 104/1/24 
s 8
f 102/2/22 100/3/20 99/4/19 103/1/23 
s 16
f 101/2/21 97/3/17 100/4/20 102/1/22 
s 32
f 104/2/24 98/3/18 97/4/17 101/1/21 
s 64
f 103/2/23 99/3/19 98/4/18 104/1/24 
s 2
f 105/1/17 106/2/18 107/3/19 108/4/20 
s 4
f 109/2/21 110/3/22 111/4/23 112/1/24 
s 8
f 110/2/22 108/3/20 107/4/19 111/1/23 
s 16
f 109/2/21 105/3/17 108/4/20 110/1/22 
s 32
f 112/2/24 106/3/18 105/4/17 109/1/21 
s 64
f 111/2/23 107/3/19 106/4/18 112/1/24 
s 2
f 113/1/25 114/2/26 115/3/19 116/4/34 
s 4
f 117/2/29 118/3/35 119/4/23 120/1/32 
s 8
f 118/2/35 116/3/34 115/4/19 119/1/23 
s 16
f 117/2/29 113/3/25 116/4/34 118/1/35 
s 32
f 120/2/32 114/3/26 113/4/25 117/1/29 
s 64
f 119/2/23 115/3/19 114/4/26 120/1/32 
s 2
f 121/1/39 122/2/33 123/3/40 124/4/34 
s 4
f 125/2/41 126/3/35 127/4/42 128/1/36 
s 8
f 126/2/35 124/3/34 123/4/40 127/1/42 
s 16
f 125/2/41 121/3/39 124/4/34 126/1/35 
s 32
f 128/2/36 122/3/33 121/4/39 125/1/41 
s 64
f 127/2/42 123/3/40 122/4/33 128/1/36 
s 2
f 129/1/43 130/2/44 131/3/45 132/4/46 
s 4
f 133/2/47 134/3/48 135/4/49 136/1/50 
s 8
f 134/2/48 132/3/46 131/4/45 135/1/49 
s 16
f 133/2/47 129/3/43 132/4/46 134/1/48 
s 32
f 136/2/50 130/3/44 129/4/43 133/1/47 
s 64
f 135/2/49 131/3/45 130/4/44 136/1/50 
s 2
f 137/1/43 138/2/44 139/3/45 140/4/46 
s 4
f 141/2/47 142/3/48 143/4/49 144/1/50 
s 8
f 142/2/48 140/3/46 139/4/45 143/1/49 
s 16
f 141/2/47 137/3/43 140/4/46 142/1/48 
s 32
f 144/2/50 138/3/44 137/4/43 141/1/47 
s 64
f 143/2/49 139/3/45 138/4/44 144/1/50 
s 2
f 145/1/43 146/2/51 147/3/45 148/4/52 
s 4
f 149/2/47 150/3/53 151/4/49 152/1/54 
s 8
f 150/2/53 148/3/52 147/4/45 151/1/49 
s 16
f 149/2/47 145/3/43 148/4/52 150/1/53 
s 32
f 152/2/54 146/3/51 145/4/43 149/1/47 
s 64
f 151/2/49 147/3/45 146/4/51 152/1/54 
s 2
f 153/1/33 154/2/27 155/3/34 156/4/25 
s 4
f 157/2/36 158/3/29 159/4/35 160/1/31 
s 8
f 158/2/29 156/3/25 155/4/34 159/1/35 
s 16
f 157/2/36 153/3/33 156/4/25 158/1/29 
s 32
f 160/2/31 154/3/27 153/4/33 157/1/36 
s 64
f 159/2/35 155/3/34 154/4/27 160/1/31 
s 2
f 161/1/3 162/2/4 163/3/55 164/4/2 
s 4
f 165/2/7 166/3/8 167/4/56 168/1/6 
s 8
f 166/2/8 164/3/2 163/4/55 167/1/56 
s 16
f 165/2/7 161/3/3 164/4/2 166/1/8 
s 32
f 168/2/6 162/3/4 161/4/3 165/1/7 
s 64
f 167/2/56 163/3/55 162/4/4 168/1/6 
s 2
f 169/1/46 170/2/43 171/3/44 172/4/45 
s 4
f 173/2/48 174/3/49 175/4/50 176/1/47 
s 8
f 174/2/49 172/3/45 171/4/44 175/1/50 
s 16
f 173/2/48 169/3/46 172/4/45 174/1/49 
s 32
f 176/2/47 170/3/43 169/4/46 173/1/48 
s 64
f 175/2/50 171/3/44 170/4/43 176/1/47 
s 2
f 177/1/46 178/2/43 179/3/44 180/4/45 
s 4
f 181/2/48 182/3/49 183/4/50 184/1/47 
s 8
f 182/2/49 180/3/45 179/4/44 183/1/50 
s 16
f 181/2/48 177/3/46 180/4/45 182/1/49 
s 32
f 184/2/47 178/3/43 177/4/46 181/1/48 
s 64
f 183/2/50 179/3/44 178/4/43 184/1/47 
s 2
f 185/1/46 186/2/57 187/3/44 188/4/58 
s 4
f 189/2/48 190/3/59 191/4/50 192/1/60 
s 8
f 190/2/59 188/3/58 187/4/44 191/1/50 
s 16
f 189/2/48 185/3/46 188/4/58 190/1/59 
s 32
f 192/2/60 186/3/57 185/4/46 189/1/48 
s 64
f 191/2/50 187/3/44 186/4/57 192/1/60 
s 2
f 193/1/46 194/2/57 195/3/44 196/4/58 
s 4
f 197/2/48 198/3/59 199/4/50 200/1/60 
s 8
f 198/2/59 196/3/58 195/4/44 199/1/50 
s 16
f 197/2/48 193/3/46 196/4/58 198/1/59 
s 32
f 200/2/60 194/3/57 193/4/46 197/1/48 
s 64
f 199/2/50 195/3/44 194/4/57 200/1/60 
s 2
f 201/1/61 202/2/62 203/3/63 204/4/64 
s 4
f 205/2/65 206/3/66 207/4/67 208/1/68 
s 8
f 206/2/66 204/3/64 203/4/63 207/1/67 
s 16
f 205/2/65 201/3/61 204/4/64 206/1/66 
s 32
f 208/2/68 202/3/62 201/4/61 205/1/65 
s 64
f 207/2/67 203/3/63 202/4/62 208/1/68 
s 2
f 209/1/33 210/2/27 211/3/34 212/4/25 
s 4
f 213/2/36 214/3/29 215/4/35 216/1/31 
s 8
f 214/2/29 212/3/25 211/4/34 215/1/35 
s 16
f 213/2/36 209/3/33 212/4/25 214/1/29 
s 32
f 216/2/31 210/3/27 209/4/33 213/1/36 
s 64
f 215/2/35 211/3/34 210/4/27 216/1/31 
s 2
f 217/1/33 218/2/27 219/3/34 220/4/25 
s 4
f 221/2/36 222/3/29 223/4/35 224/1/31 
s 8
f 222/2/29 220/3/25 219/4/34 223/1/35 
s 16
f 221/2/36 217/3/33 220/4/25 222/1/29 
s 32
f 224/2/31 218/3/27 217/4/33 221/1/36 
s 64
f 223/2/35 219/3/34 218/4/27 224/1/31 
s 2
f 225/1/69 226/2/4 227/3/1 228/4/2 
s 4
f 229/2/70 230/3/8 231/4/5 232/1/6 
s 8
f 230/2/8 228/3/2 227/4/1 231/1/5 
s 16
f 229/2/70 225/3/69 228/4/2 230/1/8 
s 32
f 232/2/6 226/3/4 225/4/69 229/1/70 
s 64
f 231/2/5 227/3/1 226/4/4 232/1/6 
s 2
f 233/1/71 234/2/72 235/3/73 236/4/74 
s 4
f 237/2/75 238/3/76 239/4/77 240/1/78 
s 8
f 238/2/76 236/3/74 235/4/73 239/1/77 
s 16
f 237/2/75 233/3/71 236/4/74 238/1/76 
s 32
f 240/2/78 234/3/72 233/4/71 237/1/75 
s 64
f 239/2/77 235/3/73 234/4/72 240/1/78 
s 2
f 241/1/71 242/2/72 243/3/73 244/4/74 
s 4
f 245/2/75 246/3/76 247/4/77 248/1/78 
s 8
f 246/2/76 244/3/74 243/4/73 247/1/77 
s 16
f 245/2/75 241/3/71 244/4/74 246/1/76 
s 32
f 248/2/78 242/3/72 241/4/71 245/1/75 
s 64
f 247/2/77 243/3/73 242/4/72 248/1/78 
s 2
f 249/1/71 250/2/72 251/3/73 252/4/74 
s 4
f 253/2/75 254/3/76 255/4/77 256/1/78 
s 8
f 254/2/76 252/3/74 251/4/73 255/1/77 
s 16
f 253/2/75 249/3/71 252/4/74 254/1/76 
s 32
f 256/2/78 250/3/72 249/4/71 253/1/75 
s 64
f 255/2/77 251/3/73 250/4/72 256/1/78 
s 2
f 257/1/79 258/2/72 259/3/80 260/4/81 
s 4
f 261/2/82 262/3/83 263/4/84 264/1/78 
s 8
f 262/2/83 260/3/81 259/4/80 263/1/84 
s 16
f 261/2/82 257/3/79 260/4/81 262/1/83 
s 32
f 264/2/78 258/3/72 257/4/79 261/1/82 
s 64
f 263/2/84 259/3/80 258/4/72 264/1/78 
s 2
f 265/1/71 266/2/72 267/3/73 268/4/74 
s 4
f 269/2/75 270/3/76 271/4/77 272/1/78 
s 8
f 270/2/76 268/3/74 267/4/73 271/1/77 
s 16
f 269/2/75 265/3/71 268/4/74 270/1/76 
s 32
f 272/2/78 266/3/72 265/4/71 269/1/75 
s 64
f 271/2/77 267/3/73 266/4/72 272/1/78 
s 2
f 273/1/85 274/2/86 275/3/87 276/4/88 
s 4
f 277/2/89 278/3/90 279/4/91 280/1/92 
s 8
f 278/2/90 276/3/88 275/4/87 279/1/91 
s 16
f 277/2/89 273/3/85 276/4/88 278/1/90 
s 32
f 280/2/92 274/3/86 273/4/85 277/1/89 
s 64
f 279/2/91 275/3/87 274/4/86 280/1/92 
s 2
f 281/1/85 282/2/86 283/3/87 284/4/88 
s 4
f 285/2/89 286/3/90 287/4/91 288/1/92 
s 8
f 286/2/90 284/3/88 283/4/87 287/1/91 
s 16
f 285/2/89 281/3/85 284/4/88 286/1/90 
s 32
f 288/2/92 282/3/86 281/4/85 285/1/89 
s 64
f 287/2/91 283/3/87 282/4/86 288/1/92 
s 2
f 289/1/85 290/2/86 291/3/87 292/4/88 
s 4
f 293/2/89 294/3/90 295/4/91 296/1/92 
s 8
f 294/2/90 292/3/88 291/4/87 295/1/91 
s 16
f 293/2/89 289/3/85 292/4/88 294/1/90 
s 32
f 296/2/92 290/3/86 289/4/85 293/1/89 
s 64
f 295/2/91 291/3/87 290/4/86 296/1/92 
s 2
f 297/1/85 298/2/86 299/3/87 300/4/88 
s 4
f 301/2/89 302/3/90 303/4/91 304/1/92 
s 8
f 302/2/90 300/3/88 299/4/87 303/1/91 
s 16
f 301/2/89 297/3/85 300/4/88 302/1/90 
s 32
f 304/2/92 298/3/86 297/4/85 301/1/89 
s 64
f 303/2/91 299/3/87 298/4/86 304/1/92 
# 228 polygons

