# 3ds Max Wavefront OBJ Exporter v0.97b - (c)2007 guruware
# File Created: 04.07.2018 16:44:48

mtllib resources/ObjImages/WoodenBarrier/WoodenBarrierPartTest08.mtl

#
# object Box002
#

v  8.4455 -30.8925 68.2706
v  8.4455 -30.8925 -68.2706
v  2.6297 -31.9180 -68.2706
v  2.6297 -31.9180 68.2706
v  6.3945 -19.2610 68.2706
v  0.5787 -20.2864 68.2706
v  0.5787 -20.2864 -68.2706
v  6.3945 -19.2610 -68.2706
v  6.1894 -18.0978 68.2706
v  6.1894 -18.0978 -68.2706
v  0.3736 -19.1233 -68.2706
v  0.3736 -19.1233 68.2706
v  4.1385 -6.4662 68.2706
v  -1.6773 -7.4917 68.2706
v  -1.6773 -7.4917 -68.2706
v  4.1385 -6.4662 -68.2706
v  3.9334 -5.3031 68.2706
v  3.9334 -5.3031 -68.2706
v  -1.8824 -6.3285 -68.2706
v  -1.8824 -6.3285 68.2706
v  1.8824 6.3285 68.2706
v  -3.9334 5.3031 68.2706
v  -3.9334 5.3031 -68.2706
v  1.8824 6.3285 -68.2706
v  1.6773 7.4917 68.2706
v  1.6773 7.4917 -68.2706
v  -4.1385 6.4662 -68.2706
v  -4.1385 6.4662 68.2706
v  -0.3736 19.1233 68.2706
v  -6.1894 18.0978 68.2706
v  -6.1894 18.0978 -68.2706
v  -0.3736 19.1233 -68.2706
v  -0.5787 20.2864 68.2706
v  -0.5787 20.2864 -68.2706
v  -6.3945 19.2610 -68.2706
v  -6.3945 19.2610 68.2706
v  -2.6297 31.9180 68.2706
v  -8.4455 30.8925 68.2706
v  -8.4455 30.8925 -68.2706
v  -2.6297 31.9180 -68.2706
v  3.4156 -30.8925 -75.2719
v  -43.5018 -30.8925 -97.1498
v  -45.9597 -31.9180 -91.8789
v  0.9578 -31.9180 -70.0010
v  2.5488 -19.2609 -73.4131
v  0.0910 -20.2864 -68.1422
v  -46.8264 -20.2864 -90.0201
v  -44.3686 -19.2610 -95.2910
v  2.4622 -18.0978 -73.2272
v  -44.4552 -18.0978 -95.1051
v  -46.9131 -19.1233 -89.8342
v  0.0043 -19.1233 -67.9563
v  1.5954 -6.4662 -71.3684
v  -0.8625 -7.4917 -66.0975
v  -47.7799 -7.4917 -87.9754
v  -45.3220 -6.4662 -93.2463
v  1.5087 -5.3031 -71.1825
v  -45.4087 -5.3031 -93.0605
v  -47.8666 -6.3285 -87.7896
v  -0.9491 -6.3285 -65.9116
v  0.6419 6.3285 -69.3237
v  -1.8159 5.3030 -64.0528
v  -48.7333 5.3030 -85.9308
v  -46.2755 6.3285 -91.2017
v  0.5553 7.4917 -69.1378
v  -46.3621 7.4917 -91.0158
v  -48.8200 6.4662 -85.7449
v  -1.9026 6.4662 -63.8669
v  -0.3115 19.1233 -67.2790
v  -2.7694 18.0978 -62.0081
v  -49.6868 18.0978 -83.8861
v  -47.2289 19.1233 -89.1570
v  -0.3982 20.2864 -67.0932
v  -47.3156 20.2864 -88.9711
v  -49.7735 19.2609 -83.7002
v  -2.8560 19.2609 -61.8223
v  -1.2650 31.9180 -65.2344
v  -3.7228 30.8925 -59.9635
v  -50.6402 30.8925 -81.8414
v  -48.1824 31.9180 -87.1123
v  -40.6959 -30.8925 -82.3529
v  -40.6959 -30.8925 -190.0410
v  -46.5117 -31.9180 -190.0410
v  -46.5117 -31.9180 -82.3529
v  -42.7469 -19.2610 -82.3529
v  -48.5627 -20.2864 -82.3529
v  -48.5627 -20.2864 -190.0410
v  -42.7469 -19.2610 -190.0410
v  -42.9520 -18.0978 -82.3529
v  -42.9520 -18.0978 -190.0410
v  -48.7678 -19.1233 -190.0410
v  -48.7678 -19.1233 -82.3529
v  -45.0029 -6.4662 -82.3529
v  -50.8187 -7.4917 -82.3529
v  -50.8187 -7.4917 -190.0410
v  -45.0029 -6.4662 -190.0410
v  -45.2080 -5.3031 -82.3529
v  -45.2080 -5.3031 -190.0410
v  -51.0238 -6.3285 -190.0410
v  -51.0238 -6.3285 -82.3529
v  -47.2590 6.3285 -82.3529
v  -53.0748 5.3030 -82.3529
v  -53.0748 5.3030 -190.0410
v  -47.2590 6.3285 -190.0410
v  -47.4641 7.4917 -82.3529
v  -47.4641 7.4917 -190.0410
v  -53.2799 6.4662 -190.0410
v  -53.2799 6.4662 -82.3529
v  -49.5150 19.1233 -82.3529
v  -55.3308 18.0978 -82.3529
v  -55.3308 18.0978 -190.0410
v  -49.5151 19.1233 -190.0410
v  -49.7201 20.2864 -82.3529
v  -49.7201 20.2864 -190.0410
v  -55.5359 19.2609 -190.0410
v  -55.5359 19.2609 -82.3529
v  -51.7711 31.9180 -82.3529
v  -57.5869 30.8925 -82.3529
v  -57.5869 30.8925 -190.0410
v  -51.7711 31.9180 -190.0410
v  -44.7666 -30.8925 -196.9901
v  -71.0808 -30.8925 -223.3043
v  -75.1932 -31.9180 -219.1919
v  -48.8790 -31.9180 -192.8777
v  -46.2169 -19.2609 -195.5399
v  -50.3293 -20.2864 -191.4275
v  -76.6434 -20.2864 -217.7416
v  -72.5311 -19.2610 -221.8540
v  -46.3619 -18.0978 -195.3948
v  -72.6761 -18.0978 -221.7090
v  -76.7885 -19.1233 -217.5966
v  -50.4743 -19.1233 -191.2824
v  -47.8122 -6.4662 -193.9446
v  -51.9246 -7.4917 -189.8322
v  -78.2387 -7.4917 -216.1463
v  -74.1263 -6.4662 -220.2587
v  -47.9572 -5.3031 -193.7996
v  -74.2714 -5.3031 -220.1137
v  -78.3837 -6.3285 -216.0013
v  -52.0696 -6.3285 -189.6872
v  -49.4074 6.3285 -192.3493
v  -53.5198 5.3031 -188.2369
v  -79.8340 5.3031 -214.5511
v  -75.7216 6.3285 -218.6635
v  -49.5525 7.4917 -192.2043
v  -75.8666 7.4917 -218.5184
v  -79.9790 6.4662 -214.4061
v  -53.6649 6.4662 -188.0919
v  -51.0027 19.1233 -190.7540
v  -55.1151 18.0978 -186.6416
v  -81.4293 18.0978 -212.9558
v  -77.3169 19.1233 -217.0682
v  -51.1477 20.2864 -190.6090
v  -77.4619 20.2864 -216.9232
v  -81.5743 19.2610 -212.8108
v  -55.2601 19.2610 -186.4966
v  -52.5980 31.9180 -189.1588
v  -56.7104 30.8925 -185.0464
v  -83.0245 30.8925 -211.3605
v  -78.9122 31.9180 -215.4729
v  -82.6270 -30.8925 -224.2296
v  -175.8876 -30.8925 -170.3855
v  -172.9798 -31.9180 -165.3489
v  -79.7191 -31.9180 -219.1929
v  -81.6015 -19.2610 -222.4534
v  -78.6936 -20.2864 -217.4167
v  -171.9543 -20.2864 -163.5727
v  -174.8622 -19.2610 -168.6093
v  -81.4990 -18.0978 -222.2758
v  -174.7596 -18.0978 -168.4317
v  -171.8517 -19.1233 -163.3951
v  -78.5911 -19.1233 -217.2391
v  -80.4735 -6.4662 -220.4996
v  -77.5656 -7.4917 -215.4630
v  -170.8262 -7.4917 -161.6189
v  -173.7341 -6.4662 -166.6555
v  -80.3710 -5.3031 -220.3219
v  -173.6316 -5.3031 -166.4779
v  -170.7237 -6.3285 -161.4413
v  -77.4631 -6.3285 -215.2854
v  -79.3455 6.3285 -218.5458
v  -76.4376 5.3030 -213.5092
v  -169.6982 5.3030 -159.6651
v  -172.6061 6.3285 -164.7017
v  -79.2429 7.4917 -218.3682
v  -172.5035 7.4917 -164.5241
v  -169.5957 6.4662 -159.4875
v  -76.3350 6.4662 -213.3315
v  -78.2174 19.1233 -216.5920
v  -75.3096 18.0978 -211.5554
v  -168.5702 18.0978 -157.7113
v  -171.4781 19.1233 -162.7479
v  -78.1149 20.2864 -216.4144
v  -171.3755 20.2864 -162.5703
v  -168.4676 19.2609 -157.5337
v  -75.2070 19.2609 -211.3777
v  -77.0894 31.9180 -214.6382
v  -74.1815 30.8925 -209.6016
v  -167.4421 30.8925 -155.7575
v  -170.3501 31.9180 -160.7941
# 200 vertices

vn 0.6688 -0.4683 0.5774
vn 0.6688 -0.4683 -0.5774
vn -0.4683 -0.6688 -0.5774
vn -0.4683 -0.6688 0.5774
vn 0.4683 0.6688 0.5774
vn -0.6688 0.4683 0.5774
vn -0.6688 0.4683 -0.5774
vn 0.4683 0.6688 -0.5774
vn 0.8432 -0.4392 -0.3100
vn -0.1978 -0.4646 -0.8631
vn -0.7362 -0.6558 0.1669
vn 0.2897 -0.7247 0.6252
vn 0.7362 0.6558 -0.1669
vn 0.1978 0.4646 0.8631
vn -0.8432 0.4392 0.3100
vn -0.2897 0.7247 -0.6252
vn 0.8957 -0.4424 -0.0440
vn 0.0654 -0.4851 -0.8720
vn -0.7604 -0.6472 -0.0544
vn 0.0852 -0.7244 0.6841
vn 0.7604 0.6472 0.0544
vn -0.0654 0.4851 0.8720
vn -0.8957 0.4424 0.0440
vn -0.0852 0.7244 -0.6841
vn 0.1277 -0.4706 -0.8731
vn -0.8653 -0.4401 -0.2400
vn -0.2369 -0.7269 0.6446
vn 0.7500 -0.6522 0.1105
vn 0.2369 0.7269 -0.6446
vn 0.8653 0.4401 0.2400
vn -0.1277 0.4706 0.8731
vn -0.7500 0.6522 -0.1105
# 32 vertex normals

vt 1.0000 0.0000 0.0000
vt 1.0000 1.0000 0.0000
vt 0.0000 1.0000 0.0000
vt 0.0000 0.0000 0.0000
# 4 texture coords

o Box002
g Box002
usemtl Material__3
s 2
f 4/4/4 3/3/3 2/2/2 1/1/1 
s 4
f 8/3/8 7/2/7 6/1/6 5/4/5 
s 8
f 5/3/5 6/2/6 4/1/4 1/4/1 
s 16
f 6/3/6 7/2/7 3/1/3 4/4/4 
s 32
f 7/3/7 8/2/8 2/1/2 3/4/3 
s 64
f 8/3/8 5/2/5 1/1/1 2/4/2 
s 2
f 12/4/4 11/3/3 10/2/2 9/1/1 
s 4
f 16/3/8 15/2/7 14/1/6 13/4/5 
s 8
f 13/3/5 14/2/6 12/1/4 9/4/1 
s 16
f 14/3/6 15/2/7 11/1/3 12/4/4 
s 32
f 15/3/7 16/2/8 10/1/2 11/4/3 
s 64
f 16/3/8 13/2/5 9/1/1 10/4/2 
s 2
f 20/4/4 19/3/3 18/2/2 17/1/1 
s 4
f 24/3/8 23/2/7 22/1/6 21/4/5 
s 8
f 21/3/5 22/2/6 20/1/4 17/4/1 
s 16
f 22/3/6 23/2/7 19/1/3 20/4/4 
s 32
f 23/3/7 24/2/8 18/1/2 19/4/3 
s 64
f 24/3/8 21/2/5 17/1/1 18/4/2 
s 2
f 28/4/4 27/3/3 26/2/2 25/1/1 
s 4
f 32/3/8 31/2/7 30/1/6 29/4/5 
s 8
f 29/3/5 30/2/6 28/1/4 25/4/1 
s 16
f 30/3/6 31/2/7 27/1/3 28/4/4 
s 32
f 31/3/7 32/2/8 26/1/2 27/4/3 
s 64
f 32/3/8 29/2/5 25/1/1 26/4/2 
s 2
f 36/4/4 35/3/3 34/2/2 33/1/1 
s 4
f 40/3/8 39/2/7 38/1/6 37/4/5 
s 8
f 37/3/5 38/2/6 36/1/4 33/4/1 
s 16
f 38/3/6 39/2/7 35/1/3 36/4/4 
s 32
f 39/3/7 40/2/8 34/1/2 35/4/3 
s 64
f 40/3/8 37/2/5 33/1/1 34/4/2 
s 2
f 44/4/12 43/3/11 42/2/10 41/1/9 
s 4
f 48/3/16 47/2/15 46/1/14 45/4/13 
s 8
f 45/3/13 46/2/14 44/1/12 41/4/9 
s 16
f 46/3/14 47/2/15 43/1/11 44/4/12 
s 32
f 47/3/15 48/2/16 42/1/10 43/4/11 
s 64
f 48/3/16 45/2/13 41/1/9 42/4/10 
s 2
f 52/4/12 51/3/11 50/2/10 49/1/9 
s 4
f 56/3/16 55/2/15 54/1/14 53/4/13 
s 8
f 53/3/13 54/2/14 52/1/12 49/4/9 
s 16
f 54/3/14 55/2/15 51/1/11 52/4/12 
s 32
f 55/3/15 56/2/16 50/1/10 51/4/11 
s 64
f 56/3/16 53/2/13 49/1/9 50/4/10 
s 2
f 60/4/12 59/3/11 58/2/10 57/1/9 
s 4
f 64/3/16 63/2/15 62/1/14 61/4/13 
s 8
f 61/3/13 62/2/14 60/1/12 57/4/9 
s 16
f 62/3/14 63/2/15 59/1/11 60/4/12 
s 32
f 63/3/15 64/2/16 58/1/10 59/4/11 
s 64
f 64/3/16 61/2/13 57/1/9 58/4/10 
s 2
f 68/4/12 67/3/11 66/2/10 65/1/9 
s 4
f 72/3/16 71/2/15 70/1/14 69/4/13 
s 8
f 69/3/13 70/2/14 68/1/12 65/4/9 
s 16
f 70/3/14 71/2/15 67/1/11 68/4/12 
s 32
f 71/3/15 72/2/16 66/1/10 67/4/11 
s 64
f 72/3/16 69/2/13 65/1/9 66/4/10 
s 2
f 76/4/12 75/3/11 74/2/10 73/1/9 
s 4
f 80/3/16 79/2/15 78/1/14 77/4/13 
s 8
f 77/3/13 78/2/14 76/1/12 73/4/9 
s 16
f 78/3/14 79/2/15 75/1/11 76/4/12 
s 32
f 79/3/15 80/2/16 74/1/10 75/4/11 
s 64
f 80/3/16 77/2/13 73/1/9 74/4/10 
s 2
f 84/4/4 83/3/3 82/2/2 81/1/1 
s 4
f 88/3/8 87/2/7 86/1/6 85/4/5 
s 8
f 85/3/5 86/2/6 84/1/4 81/4/1 
s 16
f 86/3/6 87/2/7 83/1/3 84/4/4 
s 32
f 87/3/7 88/2/8 82/1/2 83/4/3 
s 64
f 88/3/8 85/2/5 81/1/1 82/4/2 
s 2
f 92/4/4 91/3/3 90/2/2 89/1/1 
s 4
f 96/3/8 95/2/7 94/1/6 93/4/5 
s 8
f 93/3/5 94/2/6 92/1/4 89/4/1 
s 16
f 94/3/6 95/2/7 91/1/3 92/4/4 
s 32
f 95/3/7 96/2/8 90/1/2 91/4/3 
s 64
f 96/3/8 93/2/5 89/1/1 90/4/2 
s 2
f 100/4/4 99/3/3 98/2/2 97/1/1 
s 4
f 104/3/8 103/2/7 102/1/6 101/4/5 
s 8
f 101/3/5 102/2/6 100/1/4 97/4/1 
s 16
f 102/3/6 103/2/7 99/1/3 100/4/4 
s 32
f 103/3/7 104/2/8 98/1/2 99/4/3 
s 64
f 104/3/8 101/2/5 97/1/1 98/4/2 
s 2
f 108/4/4 107/3/3 106/2/2 105/1/1 
s 4
f 112/3/8 111/2/7 110/1/6 109/4/5 
s 8
f 109/3/5 110/2/6 108/1/4 105/4/1 
s 16
f 110/3/6 111/2/7 107/1/3 108/4/4 
s 32
f 111/3/7 112/2/8 106/1/2 107/4/3 
s 64
f 112/3/8 109/2/5 105/1/1 106/4/2 
s 2
f 116/4/4 115/3/3 114/2/2 113/1/1 
s 4
f 120/3/8 119/2/7 118/1/6 117/4/5 
s 8
f 117/3/5 118/2/6 116/1/4 113/4/1 
s 16
f 118/3/6 119/2/7 115/1/3 116/4/4 
s 32
f 119/3/7 120/2/8 114/1/2 115/4/3 
s 64
f 120/3/8 117/2/5 113/1/1 114/4/2 
s 2
f 124/4/20 123/3/19 122/2/18 121/1/17 
s 4
f 128/3/24 127/2/23 126/1/22 125/4/21 
s 8
f 125/3/21 126/2/22 124/1/20 121/4/17 
s 16
f 126/3/22 127/2/23 123/1/19 124/4/20 
s 32
f 127/3/23 128/2/24 122/1/18 123/4/19 
s 64
f 128/3/24 125/2/21 121/1/17 122/4/18 
s 2
f 132/4/20 131/3/19 130/2/18 129/1/17 
s 4
f 136/3/24 135/2/23 134/1/22 133/4/21 
s 8
f 133/3/21 134/2/22 132/1/20 129/4/17 
s 16
f 134/3/22 135/2/23 131/1/19 132/4/20 
s 32
f 135/3/23 136/2/24 130/1/18 131/4/19 
s 64
f 136/3/24 133/2/21 129/1/17 130/4/18 
s 2
f 140/4/20 139/3/19 138/2/18 137/1/17 
s 4
f 144/3/24 143/2/23 142/1/22 141/4/21 
s 8
f 141/3/21 142/2/22 140/1/20 137/4/17 
s 16
f 142/3/22 143/2/23 139/1/19 140/4/20 
s 32
f 143/3/23 144/2/24 138/1/18 139/4/19 
s 64
f 144/3/24 141/2/21 137/1/17 138/4/18 
s 2
f 148/4/20 147/3/19 146/2/18 145/1/17 
s 4
f 152/3/24 151/2/23 150/1/22 149/4/21 
s 8
f 149/3/21 150/2/22 148/1/20 145/4/17 
s 16
f 150/3/22 151/2/23 147/1/19 148/4/20 
s 32
f 151/3/23 152/2/24 146/1/18 147/4/19 
s 64
f 152/3/24 149/2/21 145/1/17 146/4/18 
s 2
f 156/4/20 155/3/19 154/2/18 153/1/17 
s 4
f 160/3/24 159/2/23 158/1/22 157/4/21 
s 8
f 157/3/21 158/2/22 156/1/20 153/4/17 
s 16
f 158/3/22 159/2/23 155/1/19 156/4/20 
s 32
f 159/3/23 160/2/24 154/1/18 155/4/19 
s 64
f 160/3/24 157/2/21 153/1/17 154/4/18 
s 2
f 164/4/28 163/3/27 162/2/26 161/1/25 
s 4
f 168/3/32 167/2/31 166/1/30 165/4/29 
s 8
f 165/3/29 166/2/30 164/1/28 161/4/25 
s 16
f 166/3/30 167/2/31 163/1/27 164/4/28 
s 32
f 167/3/31 168/2/32 162/1/26 163/4/27 
s 64
f 168/3/32 165/2/29 161/1/25 162/4/26 
s 2
f 172/4/28 171/3/27 170/2/26 169/1/25 
s 4
f 176/3/32 175/2/31 174/1/30 173/4/29 
s 8
f 173/3/29 174/2/30 172/1/28 169/4/25 
s 16
f 174/3/30 175/2/31 171/1/27 172/4/28 
s 32
f 175/3/31 176/2/32 170/1/26 171/4/27 
s 64
f 176/3/32 173/2/29 169/1/25 170/4/26 
s 2
f 180/4/28 179/3/27 178/2/26 177/1/25 
s 4
f 184/3/32 183/2/31 182/1/30 181/4/29 
s 8
f 181/3/29 182/2/30 180/1/28 177/4/25 
s 16
f 182/3/30 183/2/31 179/1/27 180/4/28 
s 32
f 183/3/31 184/2/32 178/1/26 179/4/27 
s 64
f 184/3/32 181/2/29 177/1/25 178/4/26 
s 2
f 188/4/28 187/3/27 186/2/26 185/1/25 
s 4
f 192/3/32 191/2/31 190/1/30 189/4/29 
s 8
f 189/3/29 190/2/30 188/1/28 185/4/25 
s 16
f 190/3/30 191/2/31 187/1/27 188/4/28 
s 32
f 191/3/31 192/2/32 186/1/26 187/4/27 
s 64
f 192/3/32 189/2/29 185/1/25 186/4/26 
s 2
f 196/4/28 195/3/27 194/2/26 193/1/25 
s 4
f 200/3/32 199/2/31 198/1/30 197/4/29 
s 8
f 197/3/29 198/2/30 196/1/28 193/4/25 
s 16
f 198/3/30 199/2/31 195/1/27 196/4/28 
s 32
f 199/3/31 200/2/32 194/1/26 195/4/27 
s 64
f 200/3/32 197/2/29 193/1/25 194/4/26 
# 150 polygons

