# 3ds Max Wavefront OBJ Exporter v0.97b - (c)2007 guruware
# File Created: 21.06.2018 04:33:59

mtllib resources/ObjImages/WoodenBarrier/WoodenBarrierPartTest00.mtl

#
# object Box064
#

v  -127.8255 -46.1824 -472.4762
v  -133.6413 -45.1569 -472.4762
v  -133.6413 -45.1569 -579.9987
v  -127.8255 -46.1824 -579.9987
v  -125.7746 -34.5508 -472.4762
v  -125.7746 -34.5508 -579.9987
v  -131.5903 -33.5253 -579.9987
v  -131.5903 -33.5253 -472.4762
v  -125.5695 -33.3876 -472.4762
v  -131.3853 -32.3621 -472.4762
v  -131.3853 -32.3621 -579.9987
v  -125.5695 -33.3876 -579.9987
v  -123.5185 -21.7560 -472.4762
v  -123.5185 -21.7560 -579.9987
v  -129.3343 -20.7305 -579.9987
v  -129.3343 -20.7305 -472.4762
v  -123.3134 -20.5929 -472.4762
v  -129.1292 -19.5674 -472.4762
v  -129.1292 -19.5674 -579.9987
v  -123.3134 -20.5929 -579.9987
v  -121.2624 -8.9613 -472.4762
v  -121.2624 -8.9613 -579.9987
v  -127.0782 -7.9358 -579.9987
v  -127.0782 -7.9358 -472.4762
v  -121.0573 -7.7981 -472.4762
v  -126.8731 -6.7726 -472.4762
v  -126.8731 -6.7726 -579.9987
v  -121.0573 -7.7981 -579.9987
v  -119.0064 3.8335 -472.4762
v  -119.0064 3.8335 -579.9987
v  -124.8222 4.8589 -579.9987
v  -124.8222 4.8589 -472.4762
v  -118.8013 4.9966 -472.4762
v  -124.6171 6.0221 -472.4762
v  -124.6171 6.0221 -579.9987
v  -118.8013 4.9966 -579.9987
v  -116.7503 16.6282 -472.4762
v  -116.7503 16.6282 -579.9987
v  -122.5661 17.6537 -579.9987
v  -122.5661 17.6537 -472.4762
v  -127.8870 -46.1823 -569.1778
v  -132.3422 -45.1569 -565.4395
v  -167.7088 -45.1569 -607.5878
v  -163.2536 -46.1823 -611.3261
v  -126.3159 -34.5508 -570.4962
v  -161.6825 -34.5508 -612.6444
v  -166.1376 -33.5253 -608.9061
v  -130.7710 -33.5253 -566.7578
v  -126.1588 -33.3876 -570.6280
v  -130.6139 -32.3621 -566.8896
v  -165.9805 -32.3621 -609.0380
v  -161.5254 -33.3876 -612.7762
v  -124.5876 -21.7560 -571.9463
v  -159.9542 -21.7560 -614.0946
v  -164.4094 -20.7305 -610.3563
v  -129.0428 -20.7305 -568.2080
v  -124.4305 -20.5929 -572.0781
v  -128.8857 -19.5674 -568.3398
v  -164.2523 -19.5674 -610.4881
v  -159.7971 -20.5929 -614.2264
v  -122.8594 -8.9613 -573.3965
v  -158.2260 -8.9613 -615.5447
v  -162.6812 -7.9358 -611.8065
v  -127.3146 -7.9358 -569.6581
v  -122.7023 -7.7981 -573.5283
v  -127.1574 -6.7726 -569.7900
v  -162.5241 -6.7726 -611.9383
v  -158.0689 -7.7981 -615.6766
v  -121.1312 3.8335 -574.8466
v  -156.4978 3.8335 -616.9949
v  -160.9529 4.8589 -613.2566
v  -125.5863 4.8589 -571.1083
v  -120.9740 4.9966 -574.9785
v  -125.4292 6.0221 -571.2402
v  -160.7958 6.0221 -613.3884
v  -156.3406 4.9966 -617.1268
v  -119.4029 16.6282 -576.2968
v  -154.7695 16.6282 -618.4451
v  -159.2247 17.6537 -614.7068
v  -123.8581 17.6537 -572.5585
v  -162.6973 -46.1824 -611.3714
v  -168.5131 -45.1569 -611.3714
v  -168.5131 -45.1569 -652.2770
v  -162.6973 -46.1824 -652.2770
v  -160.6464 -34.5508 -611.3714
v  -160.6464 -34.5508 -652.2770
v  -166.4622 -33.5253 -652.2770
v  -166.4622 -33.5253 -611.3714
v  -160.4413 -33.3876 -611.3714
v  -166.2571 -32.3621 -611.3714
v  -166.2571 -32.3621 -652.2770
v  -160.4413 -33.3876 -652.2770
v  -158.3903 -21.7560 -611.3714
v  -158.3903 -21.7560 -652.2770
v  -164.2061 -20.7305 -652.2770
v  -164.2061 -20.7305 -611.3714
v  -158.1852 -20.5929 -611.3714
v  -164.0010 -19.5674 -611.3714
v  -164.0010 -19.5674 -652.2770
v  -158.1852 -20.5929 -652.2770
v  -156.1343 -8.9613 -611.3714
v  -156.1343 -8.9613 -652.2770
v  -161.9500 -7.9358 -652.2770
v  -161.9500 -7.9358 -611.3714
v  -155.9292 -7.7981 -611.3714
v  -161.7449 -6.7726 -611.3714
v  -161.7449 -6.7726 -652.2770
v  -155.9292 -7.7981 -652.2770
v  -153.8782 3.8335 -611.3714
v  -153.8782 3.8335 -652.2770
v  -159.6940 4.8589 -652.2770
v  -159.6940 4.8589 -611.3714
v  -153.6731 4.9966 -611.3714
v  -159.4889 6.0221 -611.3714
v  -159.4889 6.0221 -652.2770
v  -153.6731 4.9966 -652.2770
v  -151.6221 16.6282 -611.3714
v  -151.6221 16.6282 -652.2770
v  -157.4379 17.6537 -652.2770
v  -157.4379 17.6537 -611.3714
v  -163.2381 -46.1824 -653.6315
v  -167.3505 -45.1569 -657.7438
v  -138.4259 -45.1569 -686.6685
v  -134.3135 -46.1824 -682.5560
v  -161.7878 -34.5508 -652.1813
v  -132.8632 -34.5508 -681.1058
v  -136.9756 -33.5253 -685.2181
v  -165.9002 -33.5253 -656.2936
v  -161.6428 -33.3876 -652.0361
v  -165.7552 -32.3621 -656.1486
v  -136.8306 -32.3621 -685.0732
v  -132.7182 -33.3876 -680.9608
v  -160.1926 -21.7560 -650.5859
v  -131.2680 -21.7560 -679.5106
v  -135.3804 -20.7305 -683.6230
v  -164.3050 -20.7305 -654.6982
v  -160.0476 -20.5929 -650.4410
v  -164.1599 -19.5674 -654.5533
v  -135.2353 -19.5674 -683.4778
v  -131.1230 -20.5929 -679.3655
v  -158.5973 -8.9613 -648.9907
v  -129.6727 -8.9613 -677.9153
v  -133.7851 -7.9358 -682.0276
v  -162.7097 -7.9358 -653.1031
v  -158.4523 -7.7981 -648.8456
v  -162.5647 -6.7727 -652.9579
v  -133.6401 -6.7726 -681.8826
v  -129.5277 -7.7981 -677.7701
v  -157.0020 3.8335 -647.3954
v  -128.0774 3.8335 -676.3199
v  -132.1898 4.8589 -680.4324
v  -161.1144 4.8589 -651.5078
v  -156.8570 4.9966 -647.2504
v  -160.9694 6.0221 -651.3627
v  -132.0448 6.0221 -680.2874
v  -127.9324 4.9966 -676.1750
v  -155.4067 16.6282 -645.8002
v  -126.4822 16.6282 -674.7247
v  -130.5945 17.6537 -678.8370
v  -159.5191 17.6537 -649.9125
v  -125.8813 -46.1824 -682.0603
v  -122.5455 -45.1569 -686.8244
v  -76.7819 -45.1569 -654.7804
v  -80.1177 -46.1824 -650.0164
v  -127.0577 -34.5508 -680.3804
v  -81.2941 -34.5508 -648.3363
v  -77.9583 -33.5253 -653.1003
v  -123.7219 -33.5253 -685.1443
v  -127.1754 -33.3876 -680.2123
v  -123.8396 -32.3621 -684.9764
v  -78.0760 -32.3621 -652.9324
v  -81.4118 -33.3876 -648.1683
v  -128.3517 -21.7560 -678.5323
v  -82.5881 -21.7560 -646.4883
v  -79.2523 -20.7305 -651.2523
v  -125.0159 -20.7305 -683.2963
v  -128.4694 -20.5929 -678.3643
v  -125.1336 -19.5674 -683.1283
v  -79.3700 -19.5674 -651.0843
v  -82.7058 -20.5929 -646.3202
v  -129.6458 -8.9613 -676.6842
v  -83.8822 -8.9613 -644.6402
v  -80.5464 -7.9358 -649.4042
v  -126.3100 -7.9358 -681.4482
v  -129.7634 -7.7981 -676.5162
v  -126.4276 -6.7726 -681.2803
v  -80.6640 -6.7726 -649.2363
v  -83.9998 -7.7981 -644.4722
v  -130.9398 3.8335 -674.8362
v  -85.1762 3.8335 -642.7922
v  -81.8404 4.8589 -647.5562
v  -127.6040 4.8589 -679.6002
v  -131.0574 4.9966 -674.6681
v  -127.7216 6.0221 -679.4322
v  -81.9580 6.0221 -647.3882
v  -85.2938 4.9966 -642.6241
v  -132.2338 16.6282 -672.9881
v  -86.4702 16.6282 -640.9441
v  -83.1344 17.6537 -645.7081
v  -128.8980 17.6537 -677.7521
v  -78.0153 -45.5765 -645.9165
v  -72.3099 -44.5704 -645.9165
v  -72.3099 -44.5704 -563.6896
v  -78.0153 -45.5765 -563.6896
v  -80.0273 -34.1657 -645.9165
v  -80.0273 -34.1657 -563.6896
v  -74.3219 -33.1597 -563.6896
v  -74.3219 -33.1597 -645.9165
v  -80.2285 -33.0246 -645.9165
v  -74.5231 -32.0186 -645.9165
v  -74.5231 -32.0186 -563.6896
v  -80.2285 -33.0246 -563.6896
v  -82.2405 -21.6138 -645.9165
v  -82.2405 -21.6138 -563.6896
v  -76.5351 -20.6078 -563.6896
v  -76.5351 -20.6078 -645.9165
v  -82.4417 -20.4727 -645.9165
v  -76.7363 -19.4667 -645.9165
v  -76.7363 -19.4667 -563.6896
v  -82.4417 -20.4727 -563.6896
v  -84.4538 -9.0620 -645.9165
v  -84.4537 -9.0620 -563.6896
v  -78.7484 -8.0559 -563.6896
v  -78.7484 -8.0559 -645.9165
v  -84.6550 -7.9209 -645.9165
v  -78.9496 -6.9149 -645.9165
v  -78.9496 -6.9149 -563.6896
v  -84.6550 -7.9209 -563.6896
v  -86.6670 3.4899 -645.9165
v  -86.6670 3.4899 -563.6896
v  -80.9616 4.4959 -563.6896
v  -80.9616 4.4959 -645.9165
v  -86.8682 4.6310 -645.9165
v  -81.1628 5.6370 -645.9165
v  -81.1628 5.6370 -563.6896
v  -86.8682 4.6310 -563.6896
v  -88.8802 16.0418 -645.9165
v  -88.8802 16.0418 -563.6896
v  -83.1748 17.0478 -563.6896
v  -83.1748 17.0478 -645.9165
v  -81.6348 -46.1824 -571.2360
v  -77.8965 -45.1569 -575.6912
v  -29.1848 -45.1569 -534.8171
v  -32.9231 -46.1824 -530.3620
v  -82.9532 -34.5508 -569.6649
v  -34.2415 -34.5508 -528.7909
v  -30.5032 -33.5253 -533.2460
v  -79.2149 -33.5253 -574.1201
v  -83.0850 -33.3876 -569.5078
v  -79.3467 -32.3621 -573.9629
v  -30.6350 -32.3621 -533.0889
v  -34.3733 -33.3876 -528.6338
v  -84.4033 -21.7560 -567.9366
v  -35.6916 -21.7560 -527.0626
v  -31.9533 -20.7305 -531.5178
v  -80.6650 -20.7305 -572.3918
v  -84.5352 -20.5929 -567.7795
v  -80.7969 -19.5674 -572.2347
v  -32.0851 -19.5674 -531.3607
v  -35.8235 -20.5929 -526.9055
v  -85.8535 -8.9613 -566.2084
v  -37.1418 -8.9613 -525.3344
v  -33.4035 -7.9358 -529.7896
v  -82.1152 -7.9358 -570.6636
v  -85.9853 -7.7981 -566.0513
v  -82.2470 -6.7727 -570.5064
v  -33.5353 -6.7726 -529.6324
v  -37.2736 -7.7981 -525.1773
v  -87.3037 3.8335 -564.4802
v  -38.5920 3.8335 -523.6061
v  -34.8536 4.8589 -528.0613
v  -83.5654 4.8589 -568.9353
v  -87.4355 4.9966 -564.3231
v  -83.6972 6.0221 -568.7782
v  -34.9855 6.0221 -527.9042
v  -38.7238 4.9966 -523.4490
v  -88.7538 16.6282 -562.7519
v  -40.0421 16.6282 -521.8779
v  -36.3038 17.6537 -526.3331
v  -85.0155 17.6537 -567.2071
v  -32.3117 -45.5765 -513.6935
v  -29.8688 -44.5705 -508.5376
v  -122.9153 -44.5704 -464.4509
v  -125.3582 -45.5765 -469.6068
v  -33.1732 -34.1657 -515.5117
v  -126.2197 -34.1657 -471.4251
v  -123.7768 -33.1597 -466.2692
v  -30.7303 -33.1597 -510.3559
v  -33.4183 -33.0246 -515.6104
v  -30.9755 -32.0186 -510.4544
v  -124.0219 -32.0186 -466.3677
v  -126.4648 -33.0246 -471.5237
v  -34.2799 -21.6138 -517.4285
v  -127.3263 -21.6138 -473.3418
v  -124.8834 -20.6078 -468.1859
v  -31.8370 -20.6078 -512.2726
v  -34.5250 -20.4727 -517.5270
v  -32.0821 -19.4667 -512.3711
v  -125.1285 -19.4667 -468.2844
v  -127.5714 -20.4727 -473.4403
v  -35.3865 -9.0620 -519.3452
v  -128.4329 -9.0620 -475.2585
v  -125.9900 -8.0559 -470.1026
v  -32.9435 -8.0559 -514.1893
v  -35.6316 -7.9209 -519.4437
v  -33.1887 -6.9149 -514.2878
v  -126.2351 -6.9149 -470.2011
v  -128.6780 -7.9209 -475.3570
v  -36.4931 3.4899 -521.2620
v  -129.5396 3.4899 -477.1753
v  -127.0967 4.4959 -472.0194
v  -34.0502 4.4959 -516.1060
v  -36.7382 4.6310 -521.3604
v  -34.2953 5.6370 -516.2045
v  -127.3418 5.6370 -472.1178
v  -129.7847 4.6310 -477.2737
v  -37.5997 16.0418 -523.1786
v  -130.6463 16.0418 -479.0920
v  -128.2033 17.0478 -473.9361
v  -35.1568 17.0478 -518.0228
# 320 vertices

vn 0.4683 -0.6688 0.5774
vn -0.6688 -0.4683 0.5774
vn -0.6688 -0.4683 -0.5774
vn 0.4683 -0.6688 -0.5774
vn 0.6688 0.4683 0.5774
vn 0.6688 0.4683 -0.5774
vn -0.4683 0.6688 -0.5774
vn -0.4683 0.6688 0.5774
vn 0.7444 -0.6553 0.1282
vn -0.1376 -0.4822 0.8652
vn -0.8915 -0.4526 -0.0185
vn -0.0213 -0.6928 -0.7208
vn 0.8915 0.4526 0.0185
vn 0.1376 0.4822 -0.8652
vn -0.7444 0.6553 -0.1282
vn 0.0213 0.6928 0.7208
vn -0.0807 -0.6942 0.7153
vn -0.8903 -0.4522 -0.0542
vn -0.0658 -0.4812 -0.8741
vn 0.7524 -0.6554 -0.0660
vn 0.0658 0.4812 0.8741
vn 0.8903 0.4522 0.0542
vn 0.0807 0.6942 -0.7153
vn -0.7524 0.6554 0.0660
vn -0.7518 -0.6569 0.0584
vn -0.0794 -0.4777 -0.8749
vn 0.8695 -0.4519 -0.1994
vn 0.1974 -0.6949 0.6915
vn -0.8695 0.4519 0.1994
vn 0.0794 0.4777 0.8749
vn 0.7518 0.6569 -0.0584
vn -0.1974 0.6949 -0.6915
vn -0.4684 -0.6689 -0.5772
vn 0.6688 -0.4683 -0.5774
vn 0.6687 -0.4683 0.5775
vn -0.4683 -0.6688 0.5774
vn -0.6688 0.4684 -0.5774
vn -0.6688 0.4683 0.5774
vn 0.4684 0.6689 0.5772
vn 0.4683 0.6688 -0.5774
vn 0.6689 -0.4682 -0.5774
vn 0.6688 -0.4683 0.5774
vn -0.6687 0.4683 -0.5775
vn 0.4683 0.6688 0.5774
vn 0.4683 0.6689 -0.5773
vn -0.4684 -0.6689 -0.5773
vn -0.6688 0.4683 -0.5774
vn -0.4683 -0.6688 -0.5774
vn -0.6689 0.4684 0.5772
vn 0.4684 0.6688 0.5774
vn -0.7549 -0.6559 -0.0038
vn -0.0065 -0.4797 -0.8774
vn 0.8830 -0.4519 -0.1268
vn 0.1394 -0.6949 0.7055
vn -0.8830 0.4519 0.1268
vn 0.0065 0.4797 0.8774
vn 0.7549 0.6559 0.0038
vn -0.1394 0.6949 -0.7055
vn 0.2548 -0.6942 -0.6732
vn 0.8495 -0.4521 0.2718
vn -0.1531 -0.4753 0.8664
vn -0.7430 -0.6584 -0.1203
vn 0.1531 0.4753 -0.8664
vn -0.8495 0.4521 -0.2718
vn -0.2548 0.6942 0.6732
vn 0.7430 0.6584 0.1203
# 66 vertex normals

vt 0.0000 1.0000 0.0000
vt 1.0000 1.0000 0.0000
vt 1.0000 0.0000 0.0000
vt 0.0000 0.0000 0.0000
# 4 texture coords

o Box064
g Box064
usemtl WoodenBarrierPartTest00_Material__469
s 2
f 1/1/1 2/2/2 3/3/3 4/4/4 
s 4
f 5/2/5 6/3/6 7/4/7 8/1/8 
s 8
f 6/2/6 4/3/4 3/4/3 7/1/7 
s 16
f 5/2/5 1/3/1 4/4/4 6/1/6 
s 32
f 8/2/8 2/3/2 1/4/1 5/1/5 
s 64
f 7/2/7 3/3/3 2/4/2 8/1/8 
s 2
f 9/1/1 10/2/2 11/3/3 12/4/4 
s 4
f 13/2/5 14/3/6 15/4/7 16/1/8 
s 8
f 14/2/6 12/3/4 11/4/3 15/1/7 
s 16
f 13/2/5 9/3/1 12/4/4 14/1/6 
s 32
f 16/2/8 10/3/2 9/4/1 13/1/5 
s 64
f 15/2/7 11/3/3 10/4/2 16/1/8 
s 2
f 17/1/1 18/2/2 19/3/3 20/4/4 
s 4
f 21/2/5 22/3/6 23/4/7 24/1/8 
s 8
f 22/2/6 20/3/4 19/4/3 23/1/7 
s 16
f 21/2/5 17/3/1 20/4/4 22/1/6 
s 32
f 24/2/8 18/3/2 17/4/1 21/1/5 
s 64
f 23/2/7 19/3/3 18/4/2 24/1/8 
s 2
f 25/1/1 26/2/2 27/3/3 28/4/4 
s 4
f 29/2/5 30/3/6 31/4/7 32/1/8 
s 8
f 30/2/6 28/3/4 27/4/3 31/1/7 
s 16
f 29/2/5 25/3/1 28/4/4 30/1/6 
s 32
f 32/2/8 26/3/2 25/4/1 29/1/5 
s 64
f 31/2/7 27/3/3 26/4/2 32/1/8 
s 2
f 33/1/1 34/2/2 35/3/3 36/4/4 
s 4
f 37/2/5 38/3/6 39/4/7 40/1/8 
s 8
f 38/2/6 36/3/4 35/4/3 39/1/7 
s 16
f 37/2/5 33/3/1 36/4/4 38/1/6 
s 32
f 40/2/8 34/3/2 33/4/1 37/1/5 
s 64
f 39/2/7 35/3/3 34/4/2 40/1/8 
s 2
f 41/1/9 42/2/10 43/3/11 44/4/12 
s 4
f 45/2/13 46/3/14 47/4/15 48/1/16 
s 8
f 46/2/14 44/3/12 43/4/11 47/1/15 
s 16
f 45/2/13 41/3/9 44/4/12 46/1/14 
s 32
f 48/2/16 42/3/10 41/4/9 45/1/13 
s 64
f 47/2/15 43/3/11 42/4/10 48/1/16 
s 2
f 49/1/9 50/2/10 51/3/11 52/4/12 
s 4
f 53/2/13 54/3/14 55/4/15 56/1/16 
s 8
f 54/2/14 52/3/12 51/4/11 55/1/15 
s 16
f 53/2/13 49/3/9 52/4/12 54/1/14 
s 32
f 56/2/16 50/3/10 49/4/9 53/1/13 
s 64
f 55/2/15 51/3/11 50/4/10 56/1/16 
s 2
f 57/1/9 58/2/10 59/3/11 60/4/12 
s 4
f 61/2/13 62/3/14 63/4/15 64/1/16 
s 8
f 62/2/14 60/3/12 59/4/11 63/1/15 
s 16
f 61/2/13 57/3/9 60/4/12 62/1/14 
s 32
f 64/2/16 58/3/10 57/4/9 61/1/13 
s 64
f 63/2/15 59/3/11 58/4/10 64/1/16 
s 2
f 65/1/9 66/2/10 67/3/11 68/4/12 
s 4
f 69/2/13 70/3/14 71/4/15 72/1/16 
s 8
f 70/2/14 68/3/12 67/4/11 71/1/15 
s 16
f 69/2/13 65/3/9 68/4/12 70/1/14 
s 32
f 72/2/16 66/3/10 65/4/9 69/1/13 
s 64
f 71/2/15 67/3/11 66/4/10 72/1/16 
s 2
f 73/1/9 74/2/10 75/3/11 76/4/12 
s 4
f 77/2/13 78/3/14 79/4/15 80/1/16 
s 8
f 78/2/14 76/3/12 75/4/11 79/1/15 
s 16
f 77/2/13 73/3/9 76/4/12 78/1/14 
s 32
f 80/2/16 74/3/10 73/4/9 77/1/13 
s 64
f 79/2/15 75/3/11 74/4/10 80/1/16 
s 2
f 81/1/1 82/2/2 83/3/3 84/4/4 
s 4
f 85/2/5 86/3/6 87/4/7 88/1/8 
s 8
f 86/2/6 84/3/4 83/4/3 87/1/7 
s 16
f 85/2/5 81/3/1 84/4/4 86/1/6 
s 32
f 88/2/8 82/3/2 81/4/1 85/1/5 
s 64
f 87/2/7 83/3/3 82/4/2 88/1/8 
s 2
f 89/1/1 90/2/2 91/3/3 92/4/4 
s 4
f 93/2/5 94/3/6 95/4/7 96/1/8 
s 8
f 94/2/6 92/3/4 91/4/3 95/1/7 
s 16
f 93/2/5 89/3/1 92/4/4 94/1/6 
s 32
f 96/2/8 90/3/2 89/4/1 93/1/5 
s 64
f 95/2/7 91/3/3 90/4/2 96/1/8 
s 2
f 97/1/1 98/2/2 99/3/3 100/4/4 
s 4
f 101/2/5 102/3/6 103/4/7 104/1/8 
s 8
f 102/2/6 100/3/4 99/4/3 103/1/7 
s 16
f 101/2/5 97/3/1 100/4/4 102/1/6 
s 32
f 104/2/8 98/3/2 97/4/1 101/1/5 
s 64
f 103/2/7 99/3/3 98/4/2 104/1/8 
s 2
f 105/1/1 106/2/2 107/3/3 108/4/4 
s 4
f 109/2/5 110/3/6 111/4/7 112/1/8 
s 8
f 110/2/6 108/3/4 107/4/3 111/1/7 
s 16
f 109/2/5 105/3/1 108/4/4 110/1/6 
s 32
f 112/2/8 106/3/2 105/4/1 109/1/5 
s 64
f 111/2/7 107/3/3 106/4/2 112/1/8 
s 2
f 113/1/1 114/2/2 115/3/3 116/4/4 
s 4
f 117/2/5 118/3/6 119/4/7 120/1/8 
s 8
f 118/2/6 116/3/4 115/4/3 119/1/7 
s 16
f 117/2/5 113/3/1 116/4/4 118/1/6 
s 32
f 120/2/8 114/3/2 113/4/1 117/1/5 
s 64
f 119/2/7 115/3/3 114/4/2 120/1/8 
s 2
f 121/1/17 122/2/18 123/3/19 124/4/20 
s 4
f 125/2/21 126/3/22 127/4/23 128/1/24 
s 8
f 126/2/22 124/3/20 123/4/19 127/1/23 
s 16
f 125/2/21 121/3/17 124/4/20 126/1/22 
s 32
f 128/2/24 122/3/18 121/4/17 125/1/21 
s 64
f 127/2/23 123/3/19 122/4/18 128/1/24 
s 2
f 129/1/17 130/2/18 131/3/19 132/4/20 
s 4
f 133/2/21 134/3/22 135/4/23 136/1/24 
s 8
f 134/2/22 132/3/20 131/4/19 135/1/23 
s 16
f 133/2/21 129/3/17 132/4/20 134/1/22 
s 32
f 136/2/24 130/3/18 129/4/17 133/1/21 
s 64
f 135/2/23 131/3/19 130/4/18 136/1/24 
s 2
f 137/1/17 138/2/18 139/3/19 140/4/20 
s 4
f 141/2/21 142/3/22 143/4/23 144/1/24 
s 8
f 142/2/22 140/3/20 139/4/19 143/1/23 
s 16
f 141/2/21 137/3/17 140/4/20 142/1/22 
s 32
f 144/2/24 138/3/18 137/4/17 141/1/21 
s 64
f 143/2/23 139/3/19 138/4/18 144/1/24 
s 2
f 145/1/17 146/2/18 147/3/19 148/4/20 
s 4
f 149/2/21 150/3/22 151/4/23 152/1/24 
s 8
f 150/2/22 148/3/20 147/4/19 151/1/23 
s 16
f 149/2/21 145/3/17 148/4/20 150/1/22 
s 32
f 152/2/24 146/3/18 145/4/17 149/1/21 
s 64
f 151/2/23 147/3/19 146/4/18 152/1/24 
s 2
f 153/1/17 154/2/18 155/3/19 156/4/20 
s 4
f 157/2/21 158/3/22 159/4/23 160/1/24 
s 8
f 158/2/22 156/3/20 155/4/19 159/1/23 
s 16
f 157/2/21 153/3/17 156/4/20 158/1/22 
s 32
f 160/2/24 154/3/18 153/4/17 157/1/21 
s 64
f 159/2/23 155/3/19 154/4/18 160/1/24 
s 2
f 161/1/25 162/2/26 163/3/27 164/4/28 
s 4
f 165/2/29 166/3/30 167/4/31 168/1/32 
s 8
f 166/2/30 164/3/28 163/4/27 167/1/31 
s 16
f 165/2/29 161/3/25 164/4/28 166/1/30 
s 32
f 168/2/32 162/3/26 161/4/25 165/1/29 
s 64
f 167/2/31 163/3/27 162/4/26 168/1/32 
s 2
f 169/1/25 170/2/26 171/3/27 172/4/28 
s 4
f 173/2/29 174/3/30 175/4/31 176/1/32 
s 8
f 174/2/30 172/3/28 171/4/27 175/1/31 
s 16
f 173/2/29 169/3/25 172/4/28 174/1/30 
s 32
f 176/2/32 170/3/26 169/4/25 173/1/29 
s 64
f 175/2/31 171/3/27 170/4/26 176/1/32 
s 2
f 177/1/25 178/2/26 179/3/27 180/4/28 
s 4
f 181/2/29 182/3/30 183/4/31 184/1/32 
s 8
f 182/2/30 180/3/28 179/4/27 183/1/31 
s 16
f 181/2/29 177/3/25 180/4/28 182/1/30 
s 32
f 184/2/32 178/3/26 177/4/25 181/1/29 
s 64
f 183/2/31 179/3/27 178/4/26 184/1/32 
s 2
f 185/1/25 186/2/26 187/3/27 188/4/28 
s 4
f 189/2/29 190/3/30 191/4/31 192/1/32 
s 8
f 190/2/30 188/3/28 187/4/27 191/1/31 
s 16
f 189/2/29 185/3/25 188/4/28 190/1/30 
s 32
f 192/2/32 186/3/26 185/4/25 189/1/29 
s 64
f 191/2/31 187/3/27 186/4/26 192/1/32 
s 2
f 193/1/25 194/2/26 195/3/27 196/4/28 
s 4
f 197/2/29 198/3/30 199/4/31 200/1/32 
s 8
f 198/2/30 196/3/28 195/4/27 199/1/31 
s 16
f 197/2/29 193/3/25 196/4/28 198/1/30 
s 32
f 200/2/32 194/3/26 193/4/25 197/1/29 
s 64
f 199/2/31 195/3/27 194/4/26 200/1/32 
s 2
f 201/1/33 202/2/34 203/3/35 204/4/36 
s 4
f 205/2/37 206/3/38 207/4/39 208/1/40 
s 8
f 206/2/38 204/3/36 203/4/35 207/1/39 
s 16
f 205/2/37 201/3/33 204/4/36 206/1/38 
s 32
f 208/2/40 202/3/34 201/4/33 205/1/37 
s 64
f 207/2/39 203/3/35 202/4/34 208/1/40 
s 2
f 209/1/33 210/2/41 211/3/42 212/4/36 
s 4
f 213/2/43 214/3/38 215/4/44 216/1/45 
s 8
f 214/2/38 212/3/36 211/4/42 215/1/44 
s 16
f 213/2/43 209/3/33 212/4/36 214/1/38 
s 32
f 216/2/45 210/3/41 209/4/33 213/1/43 
s 64
f 215/2/44 211/3/42 210/4/41 216/1/45 
s 2
f 217/1/46 218/2/34 219/3/42 220/4/36 
s 4
f 221/2/47 222/3/38 223/4/44 224/1/40 
s 8
f 222/2/38 220/3/36 219/4/42 223/1/44 
s 16
f 221/2/47 217/3/46 220/4/36 222/1/38 
s 32
f 224/2/40 218/3/34 217/4/46 221/1/47 
s 64
f 223/2/44 219/3/42 218/4/34 224/1/40 
s 2
f 225/1/48 226/2/34 227/3/42 228/4/36 
s 4
f 229/2/47 230/3/38 231/4/44 232/1/40 
s 8
f 230/2/38 228/3/36 227/4/42 231/1/44 
s 16
f 229/2/47 225/3/48 228/4/36 230/1/38 
s 32
f 232/2/40 226/3/34 225/4/48 229/1/47 
s 64
f 231/2/44 227/3/42 226/4/34 232/1/40 
s 2
f 233/1/48 234/2/34 235/3/42 236/4/36 
s 4
f 237/2/47 238/3/49 239/4/50 240/1/40 
s 8
f 238/2/49 236/3/36 235/4/42 239/1/50 
s 16
f 237/2/47 233/3/48 236/4/36 238/1/49 
s 32
f 240/2/40 234/3/34 233/4/48 237/1/47 
s 64
f 239/2/50 235/3/42 234/4/34 240/1/40 
s 2
f 241/1/51 242/2/52 243/3/53 244/4/54 
s 4
f 245/2/55 246/3/56 247/4/57 248/1/58 
s 8
f 246/2/56 244/3/54 243/4/53 247/1/57 
s 16
f 245/2/55 241/3/51 244/4/54 246/1/56 
s 32
f 248/2/58 242/3/52 241/4/51 245/1/55 
s 64
f 247/2/57 243/3/53 242/4/52 248/1/58 
s 2
f 249/1/51 250/2/52 251/3/53 252/4/54 
s 4
f 253/2/55 254/3/56 255/4/57 256/1/58 
s 8
f 254/2/56 252/3/54 251/4/53 255/1/57 
s 16
f 253/2/55 249/3/51 252/4/54 254/1/56 
s 32
f 256/2/58 250/3/52 249/4/51 253/1/55 
s 64
f 255/2/57 251/3/53 250/4/52 256/1/58 
s 2
f 257/1/51 258/2/52 259/3/53 260/4/54 
s 4
f 261/2/55 262/3/56 263/4/57 264/1/58 
s 8
f 262/2/56 260/3/54 259/4/53 263/1/57 
s 16
f 261/2/55 257/3/51 260/4/54 262/1/56 
s 32
f 264/2/58 258/3/52 257/4/51 261/1/55 
s 64
f 263/2/57 259/3/53 258/4/52 264/1/58 
s 2
f 265/1/51 266/2/52 267/3/53 268/4/54 
s 4
f 269/2/55 270/3/56 271/4/57 272/1/58 
s 8
f 270/2/56 268/3/54 267/4/53 271/1/57 
s 16
f 269/2/55 265/3/51 268/4/54 270/1/56 
s 32
f 272/2/58 266/3/52 265/4/51 269/1/55 
s 64
f 271/2/57 267/3/53 266/4/52 272/1/58 
s 2
f 273/1/51 274/2/52 275/3/53 276/4/54 
s 4
f 277/2/55 278/3/56 279/4/57 280/1/58 
s 8
f 278/2/56 276/3/54 275/4/53 279/1/57 
s 16
f 277/2/55 273/3/51 276/4/54 278/1/56 
s 32
f 280/2/58 274/3/52 273/4/51 277/1/55 
s 64
f 279/2/57 275/3/53 274/4/52 280/1/58 
s 2
f 281/1/59 282/2/60 283/3/61 284/4/62 
s 4
f 285/2/63 286/3/64 287/4/65 288/1/66 
s 8
f 286/2/64 284/3/62 283/4/61 287/1/65 
s 16
f 285/2/63 281/3/59 284/4/62 286/1/64 
s 32
f 288/2/66 282/3/60 281/4/59 285/1/63 
s 64
f 287/2/65 283/3/61 282/4/60 288/1/66 
s 2
f 289/1/59 290/2/60 291/3/61 292/4/62 
s 4
f 293/2/63 294/3/64 295/4/65 296/1/66 
s 8
f 294/2/64 292/3/62 291/4/61 295/1/65 
s 16
f 293/2/63 289/3/59 292/4/62 294/1/64 
s 32
f 296/2/66 290/3/60 289/4/59 293/1/63 
s 64
f 295/2/65 291/3/61 290/4/60 296/1/66 
s 2
f 297/1/59 298/2/60 299/3/61 300/4/62 
s 4
f 301/2/63 302/3/64 303/4/65 304/1/66 
s 8
f 302/2/64 300/3/62 299/4/61 303/1/65 
s 16
f 301/2/63 297/3/59 300/4/62 302/1/64 
s 32
f 304/2/66 298/3/60 297/4/59 301/1/63 
s 64
f 303/2/65 299/3/61 298/4/60 304/1/66 
s 2
f 305/1/59 306/2/60 307/3/61 308/4/62 
s 4
f 309/2/63 310/3/64 311/4/65 312/1/66 
s 8
f 310/2/64 308/3/62 307/4/61 311/1/65 
s 16
f 309/2/63 305/3/59 308/4/62 310/1/64 
s 32
f 312/2/66 306/3/60 305/4/59 309/1/63 
s 64
f 311/2/65 307/3/61 306/4/60 312/1/66 
s 2
f 313/1/59 314/2/60 315/3/61 316/4/62 
s 4
f 317/2/63 318/3/64 319/4/65 320/1/66 
s 8
f 318/2/64 316/3/62 315/4/61 319/1/65 
s 16
f 317/2/63 313/3/59 316/4/62 318/1/64 
s 32
f 320/2/66 314/3/60 313/4/59 317/1/63 
s 64
f 319/2/65 315/3/61 314/4/60 320/1/66 
# 240 polygons

