# 3ds Max Wavefront OBJ Exporter v0.97b - (c)2007 guruware
# File Created: 04.07.2018 18:58:17

mtllib resources/ObjImages/WoodenBarrier/WoodenBarrierPartTest10.mtl

#
# object Box006
#

v  -66.1624 -30.8925 -21.5334
v  59.0239 -30.8925 36.8418
v  61.4818 -31.9180 31.5709
v  -63.7045 -31.9180 -26.8043
v  -65.2956 -19.2609 -23.3922
v  -62.8377 -20.2864 -28.6631
v  62.3485 -20.2864 29.7121
v  59.8907 -19.2610 34.9830
v  -65.2089 -18.0978 -23.5781
v  59.9774 -18.0978 34.7972
v  62.4352 -19.1233 29.5263
v  -62.7510 -19.1233 -28.8490
v  -64.3421 -6.4662 -25.4369
v  -61.8843 -7.4917 -30.7078
v  63.3020 -7.4917 27.6675
v  60.8441 -6.4662 32.9384
v  -64.2554 -5.3030 -25.6228
v  60.9308 -5.3031 32.7525
v  63.3887 -6.3285 27.4816
v  -61.7976 -6.3285 -30.8937
v  -63.3887 6.3285 -27.4816
v  -60.9308 5.3031 -32.7525
v  64.2555 5.3030 25.6228
v  61.7976 6.3285 30.8937
v  -63.3020 7.4917 -27.6675
v  61.8843 7.4917 30.7078
v  64.3421 6.4662 25.4369
v  -60.8441 6.4662 -32.9384
v  -62.4352 19.1233 -29.5263
v  -59.9774 18.0978 -34.7972
v  65.2089 18.0978 23.5781
v  62.7510 19.1233 28.8490
v  -62.3485 20.2864 -29.7121
v  62.8377 20.2864 28.6631
v  65.2956 19.2610 23.3922
v  -59.8907 19.2610 -34.9830
v  -61.4818 31.9180 -31.5709
v  -59.0239 30.8925 -36.8418
v  66.1624 30.8925 21.5334
v  63.7045 31.9180 26.8043
v  101.9389 -30.8926 -10.3740
v  101.9389 -30.8926 -101.2695
v  96.1231 -31.9180 -101.2695
v  96.1231 -31.9180 -10.3740
v  99.8879 -19.2610 -10.3740
v  94.0721 -20.2864 -10.3740
v  94.0721 -20.2864 -101.2695
v  99.8879 -19.2610 -101.2695
v  99.6828 -18.0978 -10.3740
v  99.6828 -18.0978 -101.2695
v  93.8670 -19.1233 -101.2695
v  93.8670 -19.1233 -10.3740
v  97.6318 -6.4662 -10.3740
v  91.8160 -7.4917 -10.3740
v  91.8160 -7.4917 -101.2695
v  97.6318 -6.4662 -101.2695
v  97.4268 -5.3031 -10.3740
v  97.4267 -5.3031 -101.2695
v  91.6109 -6.3285 -101.2695
v  91.6110 -6.3285 -10.3740
v  95.3758 6.3285 -10.3740
v  89.5600 5.3030 -10.3740
v  89.5600 5.3030 -101.2695
v  95.3758 6.3285 -101.2695
v  95.1707 7.4917 -10.3740
v  95.1707 7.4917 -101.2695
v  89.3549 6.4662 -101.2695
v  89.3549 6.4662 -10.3740
v  93.1197 19.1233 -10.3740
v  87.3039 18.0978 -10.3740
v  87.3039 18.0978 -101.2695
v  93.1197 19.1233 -101.2695
v  92.9146 20.2864 -10.3740
v  92.9146 20.2864 -101.2695
v  87.0988 19.2610 -101.2695
v  87.0988 19.2609 -10.3740
v  90.8637 31.9180 -10.3740
v  85.0479 30.8925 -10.3740
v  85.0479 30.8925 -101.2695
v  90.8637 31.9180 -101.2695
v  97.9522 -30.8925 -105.4044
v  -27.2340 -30.8925 -163.7796
v  -29.6919 -31.9180 -158.5088
v  95.4944 -31.9180 -100.1335
v  97.0855 -19.2610 -103.5456
v  94.6276 -20.2864 -98.2747
v  -30.5586 -20.2864 -156.6499
v  -28.1008 -19.2609 -161.9209
v  96.9988 -18.0978 -103.3597
v  -28.1875 -18.0978 -161.7350
v  -30.6453 -19.1233 -156.4641
v  94.5409 -19.1233 -98.0888
v  96.1320 -6.4662 -101.5009
v  93.6742 -7.4917 -96.2300
v  -31.5121 -7.4917 -154.6053
v  -29.0542 -6.4662 -159.8762
v  96.0453 -5.3031 -101.3150
v  -29.1409 -5.3030 -159.6903
v  -31.5988 -6.3285 -154.4194
v  93.5875 -6.3285 -96.0441
v  95.1786 6.3285 -99.4562
v  92.7207 5.3030 -94.1853
v  -32.4655 5.3031 -152.5606
v  -30.0077 6.3285 -157.8315
v  95.0919 7.4917 -99.2703
v  -30.0944 7.4917 -157.6456
v  -32.5522 6.4662 -152.3747
v  92.6340 6.4662 -93.9994
v  94.2251 19.1233 -97.4115
v  91.7673 18.0978 -92.1406
v  -33.4190 18.0978 -150.5159
v  -30.9611 19.1233 -155.7868
v  94.1384 20.2864 -97.2256
v  -31.0478 20.2864 -155.6009
v  -33.5057 19.2610 -150.3300
v  91.6806 19.2610 -91.9547
v  93.2717 31.9180 -95.3668
v  90.8138 30.8925 -90.0959
v  -34.3724 30.8925 -148.4712
v  -31.9146 31.9180 -153.7421
v  -14.1916 -30.8925 -145.8943
v  -14.1916 -30.8925 -212.5560
v  -20.0074 -31.9180 -212.5560
v  -20.0074 -31.9180 -145.8942
v  -16.2425 -19.2610 -145.8942
v  -22.0583 -20.2864 -145.8942
v  -22.0583 -20.2864 -212.5560
v  -16.2425 -19.2610 -212.5560
v  -16.4476 -18.0978 -145.8943
v  -16.4476 -18.0978 -212.5560
v  -22.2634 -19.1233 -212.5560
v  -22.2634 -19.1233 -145.8943
v  -18.4986 -6.4662 -145.8942
v  -24.3144 -7.4917 -145.8942
v  -24.3144 -7.4917 -212.5560
v  -18.4986 -6.4662 -212.5560
v  -18.7037 -5.3030 -145.8943
v  -18.7037 -5.3030 -212.5560
v  -24.5195 -6.3285 -212.5560
v  -24.5195 -6.3285 -145.8943
v  -20.7546 6.3285 -145.8943
v  -26.5704 5.3031 -145.8943
v  -26.5704 5.3030 -212.5560
v  -20.7546 6.3285 -212.5560
v  -20.9597 7.4917 -145.8942
v  -20.9597 7.4917 -212.5560
v  -26.7755 6.4662 -212.5560
v  -26.7755 6.4662 -145.8942
v  -23.0107 19.1233 -145.8942
v  -28.8265 18.0978 -145.8942
v  -28.8265 18.0978 -212.5560
v  -23.0107 19.1233 -212.5560
v  -23.2158 20.2864 -145.8942
v  -23.2158 20.2864 -212.5560
v  -29.0316 19.2610 -212.5560
v  -29.0316 19.2610 -145.8942
v  -25.2668 31.9180 -145.8942
v  -31.0825 30.8925 -145.8942
v  -31.0826 30.8925 -212.5560
v  -25.2668 31.9180 -212.5560
v  -17.4337 -30.8925 -213.3858
v  -94.3674 -30.8925 -257.8034
v  -97.2753 -31.9180 -252.7668
v  -20.3416 -31.9180 -208.3492
v  -18.4592 -19.2610 -211.6096
v  -21.3671 -20.2864 -206.5730
v  -98.3007 -20.2864 -250.9906
v  -95.3928 -19.2609 -256.0273
v  -18.5617 -18.0978 -211.4320
v  -95.4954 -18.0978 -255.8496
v  -98.4033 -19.1233 -250.8130
v  -21.4696 -19.1233 -206.3954
v  -19.5872 -6.4662 -209.6558
v  -22.4951 -7.4917 -204.6192
v  -99.4288 -7.4917 -249.0368
v  -96.5209 -6.4662 -254.0735
v  -19.6897 -5.3030 -209.4782
v  -96.6234 -5.3030 -253.8958
v  -99.5313 -6.3285 -248.8592
v  -22.5976 -6.3285 -204.4415
v  -20.7152 6.3285 -207.7020
v  -23.6231 5.3031 -202.6654
v  -100.5568 5.3031 -247.0830
v  -97.6489 6.3285 -252.1197
v  -20.8178 7.4917 -207.5244
v  -97.7515 7.4917 -251.9420
v  -100.6593 6.4662 -246.9054
v  -23.7257 6.4662 -202.4877
v  -21.8432 19.1233 -205.7482
v  -24.7511 18.0978 -200.7116
v  -101.6848 18.0978 -245.1292
v  -98.7769 19.1233 -250.1658
v  -21.9458 20.2864 -205.5706
v  -98.8795 20.2864 -249.9882
v  -101.7874 19.2610 -244.9516
v  -24.8537 19.2610 -200.5339
v  -22.9713 31.9180 -203.7944
v  -25.8792 30.8925 -198.7578
v  -102.8128 30.8925 -243.1754
v  -99.9050 31.9180 -248.2121
v  66.8722 -30.8926 36.8971
v  100.8437 -30.8926 -3.5885
v  96.3885 -31.9180 -7.3269
v  62.4170 -31.9180 33.1588
v  65.3011 -19.2610 35.5788
v  60.8459 -20.2864 31.8404
v  94.8174 -20.2865 -8.6452
v  99.2725 -19.2610 -4.9069
v  65.1440 -18.0978 35.4469
v  99.1154 -18.0978 -5.0387
v  94.6603 -19.1233 -8.7770
v  60.6888 -19.1233 31.7086
v  63.5728 -6.4662 34.1286
v  59.1177 -7.4917 30.3903
v  93.0891 -7.4917 -10.0954
v  97.5443 -6.4662 -6.3570
v  63.4157 -5.3031 33.9968
v  97.3872 -5.3031 -6.4889
v  92.9320 -6.3285 -10.2272
v  58.9606 -6.3285 30.2584
v  61.8446 6.3285 32.6784
v  57.3894 5.3030 28.9401
v  91.3609 5.3030 -11.5455
v  95.8160 6.3285 -7.8072
v  61.6875 7.4917 32.5466
v  95.6589 7.4917 -7.9390
v  91.2038 6.4662 -11.6774
v  57.2323 6.4662 28.8083
v  60.1164 19.1233 31.2283
v  55.6612 18.0978 27.4899
v  89.6327 18.0978 -12.9957
v  94.0878 19.1233 -9.2574
v  59.9592 20.2864 31.0964
v  93.9307 20.2864 -9.3892
v  89.4755 19.2609 -13.1275
v  55.5041 19.2609 27.3581
v  58.3881 31.9180 29.7781
v  53.9330 30.8925 26.0398
v  87.9044 30.8925 -14.4458
v  92.3596 31.9180 -10.7075
# 240 vertices

vn -0.8059 -0.4683 0.3622
vn 0.2406 -0.4683 0.8502
vn 0.7212 -0.6688 -0.1804
vn -0.3253 -0.6688 -0.6684
vn -0.7212 0.6688 0.1804
vn -0.2406 0.4683 -0.8502
vn 0.8059 0.4683 -0.3622
vn 0.3253 0.6688 0.6684
vn 0.6998 -0.4641 0.5431
vn 0.6363 -0.4387 -0.6346
vn -0.4436 -0.7261 -0.5254
vn -0.4619 -0.6557 0.5973
vn 0.4436 0.7261 0.5254
vn -0.6363 0.4387 0.6346
vn -0.6998 0.4641 -0.5431
vn 0.4619 0.6557 -0.5973
vn 0.8059 -0.4683 -0.3622
vn -0.2406 -0.4683 -0.8502
vn -0.7212 -0.6688 0.1804
vn 0.3253 -0.6688 0.6684
vn 0.7212 0.6688 -0.1804
vn 0.2406 0.4683 0.8502
vn -0.8059 0.4683 0.3622
vn -0.3253 0.6688 -0.6684
vn -0.7212 -0.6689 0.1803
vn 0.3253 -0.6688 0.6685
vn 0.2407 0.4684 0.8501
vn -0.8059 0.4683 0.3623
vn 0.8362 -0.4746 -0.2748
vn -0.1516 -0.4624 -0.8736
vn -0.7307 -0.6755 0.0994
vn 0.2511 -0.6631 0.7051
vn 0.7307 0.6755 -0.0994
vn 0.1516 0.4623 0.8736
vn -0.8362 0.4746 0.2748
vn -0.2511 0.6631 -0.7051
vn -0.1516 -0.4623 -0.8736
vn 0.1516 0.4624 0.8736
vn -0.8362 0.4745 0.2748
vn 0.8362 -0.4745 -0.2748
vn 0.0869 -0.4367 0.8954
vn 0.8916 -0.4518 0.0307
vn 0.0365 -0.6669 -0.7443
vn -0.6871 -0.7166 0.1202
vn -0.0365 0.6669 0.7443
vn -0.8916 0.4518 -0.0307
vn -0.0869 0.4367 -0.8954
vn 0.6871 0.7166 -0.1201
vn 0.6871 0.7166 -0.1202
vn -0.6871 -0.7166 0.1201
# 50 vertex normals

vt 1.0000 0.0000 0.0000
vt 1.0000 1.0000 0.0000
vt 0.0000 1.0000 0.0000
vt 0.0000 0.0000 0.0000
# 4 texture coords

o Box006
g Box006
usemtl Material__5
s 2
f 4/4/4 3/3/3 2/2/2 1/1/1 
s 4
f 8/3/8 7/2/7 6/1/6 5/4/5 
s 8
f 5/3/5 6/2/6 4/1/4 1/4/1 
s 16
f 6/3/6 7/2/7 3/1/3 4/4/4 
s 32
f 7/3/7 8/2/8 2/1/2 3/4/3 
s 64
f 8/3/8 5/2/5 1/1/1 2/4/2 
s 2
f 12/4/4 11/3/3 10/2/2 9/1/1 
s 4
f 16/3/8 15/2/7 14/1/6 13/4/5 
s 8
f 13/3/5 14/2/6 12/1/4 9/4/1 
s 16
f 14/3/6 15/2/7 11/1/3 12/4/4 
s 32
f 15/3/7 16/2/8 10/1/2 11/4/3 
s 64
f 16/3/8 13/2/5 9/1/1 10/4/2 
s 2
f 20/4/4 19/3/3 18/2/2 17/1/1 
s 4
f 24/3/8 23/2/7 22/1/6 21/4/5 
s 8
f 21/3/5 22/2/6 20/1/4 17/4/1 
s 16
f 22/3/6 23/2/7 19/1/3 20/4/4 
s 32
f 23/3/7 24/2/8 18/1/2 19/4/3 
s 64
f 24/3/8 21/2/5 17/1/1 18/4/2 
s 2
f 28/4/4 27/3/3 26/2/2 25/1/1 
s 4
f 32/3/8 31/2/7 30/1/6 29/4/5 
s 8
f 29/3/5 30/2/6 28/1/4 25/4/1 
s 16
f 30/3/6 31/2/7 27/1/3 28/4/4 
s 32
f 31/3/7 32/2/8 26/1/2 27/4/3 
s 64
f 32/3/8 29/2/5 25/1/1 26/4/2 
s 2
f 36/4/4 35/3/3 34/2/2 33/1/1 
s 4
f 40/3/8 39/2/7 38/1/6 37/4/5 
s 8
f 37/3/5 38/2/6 36/1/4 33/4/1 
s 16
f 38/3/6 39/2/7 35/1/3 36/4/4 
s 32
f 39/3/7 40/2/8 34/1/2 35/4/3 
s 64
f 40/3/8 37/2/5 33/1/1 34/4/2 
s 2
f 44/4/12 43/3/11 42/2/10 41/1/9 
s 4
f 48/3/16 47/2/15 46/1/14 45/4/13 
s 8
f 45/3/13 46/2/14 44/1/12 41/4/9 
s 16
f 46/3/14 47/2/15 43/1/11 44/4/12 
s 32
f 47/3/15 48/2/16 42/1/10 43/4/11 
s 64
f 48/3/16 45/2/13 41/1/9 42/4/10 
s 2
f 52/4/12 51/3/11 50/2/10 49/1/9 
s 4
f 56/3/16 55/2/15 54/1/14 53/4/13 
s 8
f 53/3/13 54/2/14 52/1/12 49/4/9 
s 16
f 54/3/14 55/2/15 51/1/11 52/4/12 
s 32
f 55/3/15 56/2/16 50/1/10 51/4/11 
s 64
f 56/3/16 53/2/13 49/1/9 50/4/10 
s 2
f 60/4/12 59/3/11 58/2/10 57/1/9 
s 4
f 64/3/16 63/2/15 62/1/14 61/4/13 
s 8
f 61/3/13 62/2/14 60/1/12 57/4/9 
s 16
f 62/3/14 63/2/15 59/1/11 60/4/12 
s 32
f 63/3/15 64/2/16 58/1/10 59/4/11 
s 64
f 64/3/16 61/2/13 57/1/9 58/4/10 
s 2
f 68/4/12 67/3/11 66/2/10 65/1/9 
s 4
f 72/3/16 71/2/15 70/1/14 69/4/13 
s 8
f 69/3/13 70/2/14 68/1/12 65/4/9 
s 16
f 70/3/14 71/2/15 67/1/11 68/4/12 
s 32
f 71/3/15 72/2/16 66/1/10 67/4/11 
s 64
f 72/3/16 69/2/13 65/1/9 66/4/10 
s 2
f 76/4/12 75/3/11 74/2/10 73/1/9 
s 4
f 80/3/16 79/2/15 78/1/14 77/4/13 
s 8
f 77/3/13 78/2/14 76/1/12 73/4/9 
s 16
f 78/3/14 79/2/15 75/1/11 76/4/12 
s 32
f 79/3/15 80/2/16 74/1/10 75/4/11 
s 64
f 80/3/16 77/2/13 73/1/9 74/4/10 
s 2
f 84/4/20 83/3/19 82/2/18 81/1/17 
s 4
f 88/3/24 87/2/23 86/1/22 85/4/21 
s 8
f 85/3/21 86/2/22 84/1/20 81/4/17 
s 16
f 86/3/22 87/2/23 83/1/19 84/4/20 
s 32
f 87/3/23 88/2/24 82/1/18 83/4/19 
s 64
f 88/3/24 85/2/21 81/1/17 82/4/18 
s 2
f 92/4/20 91/3/19 90/2/18 89/1/17 
s 4
f 96/3/24 95/2/23 94/1/22 93/4/21 
s 8
f 93/3/21 94/2/22 92/1/20 89/4/17 
s 16
f 94/3/22 95/2/23 91/1/19 92/4/20 
s 32
f 95/3/23 96/2/24 90/1/18 91/4/19 
s 64
f 96/3/24 93/2/21 89/1/17 90/4/18 
s 2
f 100/4/26 99/3/25 98/2/18 97/1/17 
s 4
f 104/3/24 103/2/28 102/1/27 101/4/21 
s 8
f 101/3/21 102/2/27 100/1/26 97/4/17 
s 16
f 102/3/27 103/2/28 99/1/25 100/4/26 
s 32
f 103/3/28 104/2/24 98/1/18 99/4/25 
s 64
f 104/3/24 101/2/21 97/1/17 98/4/18 
s 2
f 108/4/20 107/3/19 106/2/18 105/1/17 
s 4
f 112/3/24 111/2/23 110/1/22 109/4/21 
s 8
f 109/3/21 110/2/22 108/1/20 105/4/17 
s 16
f 110/3/22 111/2/23 107/1/19 108/4/20 
s 32
f 111/3/23 112/2/24 106/1/18 107/4/19 
s 64
f 112/3/24 109/2/21 105/1/17 106/4/18 
s 2
f 116/4/20 115/3/19 114/2/18 113/1/17 
s 4
f 120/3/24 119/2/23 118/1/22 117/4/21 
s 8
f 117/3/21 118/2/22 116/1/20 113/4/17 
s 16
f 118/3/22 119/2/23 115/1/19 116/4/20 
s 32
f 119/3/23 120/2/24 114/1/18 115/4/19 
s 64
f 120/3/24 117/2/21 113/1/17 114/4/18 
s 2
f 124/4/12 123/3/11 122/2/10 121/1/9 
s 4
f 128/3/16 127/2/15 126/1/14 125/4/13 
s 8
f 125/3/13 126/2/14 124/1/12 121/4/9 
s 16
f 126/3/14 127/2/15 123/1/11 124/4/12 
s 32
f 127/3/15 128/2/16 122/1/10 123/4/11 
s 64
f 128/3/16 125/2/13 121/1/9 122/4/10 
s 2
f 132/4/12 131/3/11 130/2/10 129/1/9 
s 4
f 136/3/16 135/2/15 134/1/14 133/4/13 
s 8
f 133/3/13 134/2/14 132/1/12 129/4/9 
s 16
f 134/3/14 135/2/15 131/1/11 132/4/12 
s 32
f 135/3/15 136/2/16 130/1/10 131/4/11 
s 64
f 136/3/16 133/2/13 129/1/9 130/4/10 
s 2
f 140/4/12 139/3/11 138/2/10 137/1/9 
s 4
f 144/3/16 143/2/15 142/1/14 141/4/13 
s 8
f 141/3/13 142/2/14 140/1/12 137/4/9 
s 16
f 142/3/14 143/2/15 139/1/11 140/4/12 
s 32
f 143/3/15 144/2/16 138/1/10 139/4/11 
s 64
f 144/3/16 141/2/13 137/1/9 138/4/10 
s 2
f 148/4/12 147/3/11 146/2/10 145/1/9 
s 4
f 152/3/16 151/2/15 150/1/14 149/4/13 
s 8
f 149/3/13 150/2/14 148/1/12 145/4/9 
s 16
f 150/3/14 151/2/15 147/1/11 148/4/12 
s 32
f 151/3/15 152/2/16 146/1/10 147/4/11 
s 64
f 152/3/16 149/2/13 145/1/9 146/4/10 
s 2
f 156/4/12 155/3/11 154/2/10 153/1/9 
s 4
f 160/3/16 159/2/15 158/1/14 157/4/13 
s 8
f 157/3/13 158/2/14 156/1/12 153/4/9 
s 16
f 158/3/14 159/2/15 155/1/11 156/4/12 
s 32
f 159/3/15 160/2/16 154/1/10 155/4/11 
s 64
f 160/3/16 157/2/13 153/1/9 154/4/10 
s 2
f 164/4/32 163/3/31 162/2/30 161/1/29 
s 4
f 168/3/36 167/2/35 166/1/34 165/4/33 
s 8
f 165/3/33 166/2/34 164/1/32 161/4/29 
s 16
f 166/3/34 167/2/35 163/1/31 164/4/32 
s 32
f 167/3/35 168/2/36 162/1/30 163/4/31 
s 64
f 168/3/36 165/2/33 161/1/29 162/4/30 
s 2
f 172/4/32 171/3/31 170/2/37 169/1/29 
s 4
f 176/3/36 175/2/39 174/1/38 173/4/33 
s 8
f 173/3/33 174/2/38 172/1/32 169/4/29 
s 16
f 174/3/38 175/2/39 171/1/31 172/4/32 
s 32
f 175/3/39 176/2/36 170/1/37 171/4/31 
s 64
f 176/3/36 173/2/33 169/1/29 170/4/37 
s 2
f 180/4/32 179/3/31 178/2/37 177/1/40 
s 4
f 184/3/36 183/2/35 182/1/34 181/4/33 
s 8
f 181/3/33 182/2/34 180/1/32 177/4/40 
s 16
f 182/3/34 183/2/35 179/1/31 180/4/32 
s 32
f 183/3/35 184/2/36 178/1/37 179/4/31 
s 64
f 184/3/36 181/2/33 177/1/40 178/4/37 
s 2
f 188/4/32 187/3/31 186/2/30 185/1/40 
s 4
f 192/3/36 191/2/39 190/1/34 189/4/33 
s 8
f 189/3/33 190/2/34 188/1/32 185/4/40 
s 16
f 190/3/34 191/2/39 187/1/31 188/4/32 
s 32
f 191/3/39 192/2/36 186/1/30 187/4/31 
s 64
f 192/3/36 189/2/33 185/1/40 186/4/30 
s 2
f 196/4/32 195/3/31 194/2/37 193/1/40 
s 4
f 200/3/36 199/2/39 198/1/38 197/4/33 
s 8
f 197/3/33 198/2/38 196/1/32 193/4/40 
s 16
f 198/3/38 199/2/39 195/1/31 196/4/32 
s 32
f 199/3/39 200/2/36 194/1/37 195/4/31 
s 64
f 200/3/36 197/2/33 193/1/40 194/4/37 
s 2
f 204/4/44 203/3/43 202/2/42 201/1/41 
s 4
f 208/3/48 207/2/47 206/1/46 205/4/45 
s 8
f 205/3/45 206/2/46 204/1/44 201/4/41 
s 16
f 206/3/46 207/2/47 203/1/43 204/4/44 
s 32
f 207/3/47 208/2/48 202/1/42 203/4/43 
s 64
f 208/3/48 205/2/45 201/1/41 202/4/42 
s 2
f 212/4/44 211/3/43 210/2/42 209/1/41 
s 4
f 216/3/49 215/2/47 214/1/46 213/4/45 
s 8
f 213/3/45 214/2/46 212/1/44 209/4/41 
s 16
f 214/3/46 215/2/47 211/1/43 212/4/44 
s 32
f 215/3/47 216/2/49 210/1/42 211/4/43 
s 64
f 216/3/49 213/2/45 209/1/41 210/4/42 
s 2
f 220/4/44 219/3/43 218/2/42 217/1/41 
s 4
f 224/3/49 223/2/47 222/1/46 221/4/45 
s 8
f 221/3/45 222/2/46 220/1/44 217/4/41 
s 16
f 222/3/46 223/2/47 219/1/43 220/4/44 
s 32
f 223/3/47 224/2/49 218/1/42 219/4/43 
s 64
f 224/3/49 221/2/45 217/1/41 218/4/42 
s 2
f 228/4/50 227/3/43 226/2/42 225/1/41 
s 4
f 232/3/48 231/2/47 230/1/46 229/4/45 
s 8
f 229/3/45 230/2/46 228/1/50 225/4/41 
s 16
f 230/3/46 231/2/47 227/1/43 228/4/50 
s 32
f 231/3/47 232/2/48 226/1/42 227/4/43 
s 64
f 232/3/48 229/2/45 225/1/41 226/4/42 
s 2
f 236/4/50 235/3/43 234/2/42 233/1/41 
s 4
f 240/3/48 239/2/47 238/1/46 237/4/45 
s 8
f 237/3/45 238/2/46 236/1/50 233/4/41 
s 16
f 238/3/46 239/2/47 235/1/43 236/4/50 
s 32
f 239/3/47 240/2/48 234/1/42 235/4/43 
s 64
f 240/3/48 237/2/45 233/1/41 234/4/42 
# 180 polygons

