# 3ds Max Wavefront OBJ Exporter v0.97b - (c)2007 guruware
# File Created: 21.06.2018 14:35:18

mtllib resources/ObjImages/WoodenBarrier/WoodenBarrierPartTest05.mtl

#
# object Box002
#

v  -167.5359 -40.7967 305.5839
v  -167.5359 -40.7967 457.9274
v  -161.7201 -41.8222 457.9274
v  -161.7201 -41.8222 305.5839
v  -165.4849 -29.1651 305.5839
v  -159.6691 -30.1906 305.5839
v  -159.6691 -30.1906 457.9274
v  -165.4849 -29.1651 457.9274
v  -165.2798 -28.0019 305.5839
v  -165.2798 -28.0019 457.9274
v  -159.4640 -29.0274 457.9274
v  -159.4640 -29.0274 305.5839
v  -163.2289 -16.3704 305.5839
v  -157.4131 -17.3958 305.5839
v  -157.4131 -17.3958 457.9274
v  -163.2289 -16.3704 457.9274
v  -163.0238 -15.2072 305.5839
v  -163.0238 -15.2072 457.9274
v  -157.2080 -16.2327 457.9274
v  -157.2080 -16.2327 305.5839
v  -160.9728 -3.5756 305.5839
v  -155.1570 -4.6011 305.5839
v  -155.1570 -4.6011 457.9274
v  -160.9728 -3.5756 457.9274
v  -160.7677 -2.4125 305.5839
v  -160.7677 -2.4125 457.9274
v  -154.9519 -3.4379 457.9274
v  -154.9519 -3.4379 305.5839
v  -158.7168 9.2191 305.5839
v  -152.9010 8.1936 305.5839
v  -152.9010 8.1936 457.9274
v  -158.7168 9.2191 457.9274
v  -158.5117 10.3823 305.5839
v  -158.5117 10.3823 457.9274
v  -152.6959 9.3568 457.9274
v  -152.6959 9.3568 305.5839
v  -156.4607 22.0139 305.5839
v  -150.6449 20.9884 305.5839
v  -150.6449 20.9884 457.9274
v  -156.4607 22.0139 457.9274
v  -108.0155 -40.7967 245.5950
v  -167.5849 -40.7967 305.1644
v  -163.4725 -41.8222 309.2768
v  -103.9031 -41.8222 249.7074
v  -106.5653 -29.1651 247.0453
v  -102.4529 -30.1906 251.1576
v  -162.0223 -30.1906 310.7270
v  -166.1347 -29.1651 306.6146
v  -106.4203 -28.0019 247.1903
v  -165.9896 -28.0019 306.7596
v  -161.8772 -29.0274 310.8720
v  -102.3079 -29.0274 251.3027
v  -104.9700 -16.3704 248.6405
v  -100.8576 -17.3958 252.7529
v  -160.4270 -17.3958 312.3223
v  -164.5394 -16.3704 308.2099
v  -104.8250 -15.2072 248.7856
v  -164.3944 -15.2072 308.3549
v  -160.2820 -16.2327 312.4673
v  -100.7126 -16.2327 252.8979
v  -103.3747 -3.5756 250.2358
v  -99.2623 -4.6011 254.3482
v  -158.8317 -4.6011 313.9176
v  -162.9441 -3.5756 309.8052
v  -103.2297 -2.4125 250.3808
v  -162.7991 -2.4125 309.9502
v  -158.6867 -3.4379 314.0626
v  -99.1173 -3.4379 254.4932
v  -101.7794 9.2191 251.8311
v  -97.6671 8.1936 255.9435
v  -157.2365 8.1936 315.5128
v  -161.3488 9.2191 311.4005
v  -101.6344 10.3823 251.9761
v  -161.2038 10.3823 311.5455
v  -157.0914 9.3568 315.6579
v  -97.5220 9.3568 256.0885
v  -100.1842 22.0139 253.4263
v  -96.0718 20.9884 257.5387
v  -155.6412 20.9884 317.1081
v  -159.7536 22.0139 312.9957
v  -53.5436 -40.7967 318.0232
v  -93.0863 -40.7967 249.5331
v  -98.1229 -41.8222 252.4410
v  -58.5802 -41.8222 320.9311
v  -55.3198 -29.1651 319.0486
v  -60.3564 -30.1906 321.9565
v  -99.8991 -30.1906 253.4665
v  -94.8625 -29.1651 250.5586
v  -55.4974 -28.0019 319.1512
v  -95.0401 -28.0019 250.6612
v  -100.0767 -29.0274 253.5691
v  -60.5340 -29.0274 322.0591
v  -57.2736 -16.3704 320.1767
v  -62.3102 -17.3958 323.0846
v  -101.8529 -17.3958 254.5945
v  -96.8163 -16.3703 251.6866
v  -57.4512 -15.2072 320.2792
v  -96.9939 -15.2072 251.7892
v  -102.0305 -16.2327 254.6971
v  -62.4878 -16.2327 323.1871
v  -59.2274 -3.5756 321.3047
v  -64.2640 -4.6011 324.2126
v  -103.8067 -4.6011 255.7226
v  -98.7701 -3.5756 252.8147
v  -59.4050 -2.4125 321.4072
v  -98.9477 -2.4125 252.9172
v  -103.9843 -3.4379 255.8251
v  -64.4416 -3.4379 324.3151
v  -61.1812 9.2191 322.4327
v  -66.2178 8.1936 325.3406
v  -105.7605 8.1936 256.8506
v  -100.7239 9.2191 253.9427
v  -61.3588 10.3823 322.5353
v  -100.9015 10.3823 254.0453
v  -105.9381 9.3568 256.9532
v  -66.3954 9.3568 325.4432
v  -63.1350 22.0139 323.5608
v  -68.1716 20.9884 326.4687
v  -107.7143 20.9884 257.9786
v  -102.6777 22.0139 255.0707
v  2.1604 -40.7967 364.5967
v  -61.3470 -40.7967 311.3077
v  -65.0854 -41.8222 315.7629
v  -1.5780 -41.8222 369.0519
v  0.8420 -29.1651 366.1679
v  -2.8963 -30.1906 370.6230
v  -66.4037 -30.1906 317.3340
v  -62.6654 -29.1651 312.8788
v  0.7102 -28.0019 366.3250
v  -62.7972 -28.0019 313.0359
v  -66.5355 -29.0274 317.4911
v  -3.0281 -29.0274 370.7802
v  -0.6081 -16.3704 367.8961
v  -4.3465 -17.3958 372.3513
v  -67.8538 -17.3958 319.0623
v  -64.1155 -16.3704 314.6071
v  -0.7400 -15.2072 368.0532
v  -64.2474 -15.2072 314.7642
v  -67.9857 -16.2327 319.2194
v  -4.4783 -16.2327 372.5084
v  -2.0583 -3.5756 369.6244
v  -5.7966 -4.6011 374.0795
v  -69.3040 -4.6011 320.7905
v  -65.5657 -3.5756 316.3353
v  -2.1902 -2.4125 369.7815
v  -65.6975 -2.4125 316.4924
v  -69.4358 -3.4379 320.9476
v  -5.9285 -3.4379 374.2366
v  -3.5085 9.2191 371.3526
v  -7.2468 8.1936 375.8078
v  -70.7542 8.1936 322.5187
v  -67.0159 9.2191 318.0636
v  -3.6403 10.3823 371.5097
v  -67.1477 10.3823 318.2207
v  -70.8860 9.3568 322.6758
v  -7.3786 9.3568 375.9649
v  -4.9586 22.0139 373.0808
v  -8.6969 20.9884 377.5360
v  -72.2043 20.9884 324.2470
v  -68.4660 22.0139 319.7918
v  0.4574 -40.7967 439.8951
v  0.4573 -40.7967 366.6604
v  -5.3584 -41.8222 366.6604
v  -5.3584 -41.8222 439.8951
v  -1.5936 -29.1651 439.8951
v  -7.4094 -30.1906 439.8951
v  -7.4094 -30.1906 366.6604
v  -1.5936 -29.1651 366.6604
v  -1.7987 -28.0019 439.8951
v  -1.7987 -28.0019 366.6604
v  -7.6145 -29.0274 366.6604
v  -7.6145 -29.0274 439.8951
v  -3.8497 -16.3704 439.8951
v  -9.6654 -17.3958 439.8951
v  -9.6655 -17.3958 366.6604
v  -3.8497 -16.3704 366.6604
v  -4.0547 -15.2072 439.8951
v  -4.0548 -15.2072 366.6604
v  -9.8706 -16.2327 366.6604
v  -9.8705 -16.2327 439.8951
v  -6.1057 -3.5756 439.8951
v  -11.9215 -4.6011 439.8951
v  -11.9215 -4.6011 366.6604
v  -6.1057 -3.5756 366.6604
v  -6.3108 -2.4125 439.8951
v  -6.3108 -2.4125 366.6604
v  -12.1266 -3.4379 366.6604
v  -12.1266 -3.4379 439.8951
v  -8.3618 9.2191 439.8951
v  -14.1776 8.1936 439.8951
v  -14.1776 8.1936 366.6604
v  -8.3618 9.2191 366.6604
v  -8.5669 10.3823 439.8951
v  -8.5669 10.3823 366.6604
v  -14.3827 9.3568 366.6604
v  -14.3827 9.3568 439.8951
v  -10.6178 22.0139 439.8951
v  -16.4336 20.9884 439.8951
v  -16.4336 20.9884 366.6604
v  -10.6178 22.0139 366.6604
v  -104.2050 -40.7967 499.7214
v  -4.2955 -40.7967 442.0387
v  -7.2034 -41.8222 437.0021
v  -107.1129 -41.8222 494.6848
v  -105.2305 -29.1651 497.9452
v  -108.1384 -30.1906 492.9086
v  -8.2289 -30.1906 435.2259
v  -5.3210 -29.1651 440.2625
v  -105.3330 -28.0019 497.7676
v  -5.4236 -28.0019 440.0849
v  -8.3315 -29.0274 435.0482
v  -108.2409 -29.0274 492.7310
v  -106.3585 -16.3704 495.9914
v  -109.2664 -17.3958 490.9548
v  -9.3569 -17.3958 433.2721
v  -6.4490 -16.3704 438.3087
v  -106.4610 -15.2072 495.8138
v  -6.5516 -15.2072 438.1311
v  -9.4595 -16.2327 433.0945
v  -109.3689 -16.2327 490.7772
v  -107.4865 -3.5756 494.0376
v  -110.3944 -4.6011 489.0010
v  -10.4850 -4.6011 431.3183
v  -7.5771 -3.5756 436.3549
v  -107.5891 -2.4125 493.8600
v  -7.6796 -2.4125 436.1773
v  -10.5875 -3.4379 431.1407
v  -110.4970 -3.4379 488.8234
v  -108.6145 9.2191 492.0838
v  -111.5224 8.1936 487.0472
v  -11.6130 8.1936 429.3645
v  -8.7051 9.2191 434.4011
v  -108.7171 10.3823 491.9062
v  -8.8076 10.3823 434.2235
v  -11.7155 9.3568 429.1868
v  -111.6250 9.3568 486.8696
v  -109.7426 22.0139 490.1300
v  -112.6505 20.9884 485.0934
v  -12.7410 20.9884 427.4107
v  -9.8331 22.0139 432.4473
v  -170.2922 -40.7967 454.6488
v  -104.9173 -40.7967 500.4247
v  -101.5815 -41.8222 495.6608
v  -166.9564 -41.8222 449.8848
v  -169.1158 -29.1651 452.9688
v  -165.7800 -30.1906 448.2047
v  -100.4051 -30.1906 493.9807
v  -103.7409 -29.1651 498.7447
v  -168.9981 -28.0019 452.8008
v  -103.6233 -28.0019 498.5767
v  -100.2875 -29.0274 493.8127
v  -165.6623 -29.0274 448.0367
v  -167.8217 -16.3704 451.1207
v  -164.4859 -17.3958 446.3567
v  -99.1111 -17.3958 492.1327
v  -102.4469 -16.3704 496.8967
v  -167.7041 -15.2072 450.9527
v  -102.3293 -15.2072 496.7286
v  -98.9935 -16.2327 491.9647
v  -164.3683 -16.2327 446.1887
v  -166.5277 -3.5756 449.2726
v  -163.1919 -4.6011 444.5086
v  -97.8171 -4.6011 490.2846
v  -101.1529 -3.5756 495.0486
v  -166.4101 -2.4125 449.1046
v  -101.0352 -2.4125 494.8806
v  -97.6994 -3.4379 490.1166
v  -163.0743 -3.4379 444.3406
v  -165.2337 9.2191 447.4246
v  -161.8979 8.1936 442.6606
v  -96.5231 8.1936 488.4365
v  -99.8589 9.2191 493.2006
v  -165.1161 10.3823 447.2566
v  -99.7412 10.3823 493.0325
v  -96.4054 9.3568 488.2685
v  -161.7803 9.3568 442.4926
v  -163.9397 22.0139 445.5765
v  -160.6039 20.9884 440.8125
v  -95.2290 20.9884 486.5885
v  -98.5648 22.0139 491.3525
# 280 vertices

vn -0.6688 -0.4683 -0.5774
vn -0.6688 -0.4683 0.5774
vn 0.4683 -0.6688 0.5774
vn 0.4683 -0.6688 -0.5774
vn -0.4683 0.6688 -0.5774
vn 0.6688 0.4683 -0.5774
vn 0.6688 0.4683 0.5774
vn -0.4683 0.6688 0.5774
vn -0.0649 -0.4842 -0.8725
vn -0.8972 -0.4398 -0.0405
vn -0.0871 -0.7367 0.6706
vn 0.7625 -0.6450 -0.0502
vn 0.0871 0.7367 -0.6706
vn 0.8972 0.4398 0.0405
vn 0.0649 0.4842 0.8725
vn -0.7625 0.6450 0.0502
vn 0.8854 -0.4429 0.1408
vn 0.2429 -0.4935 -0.8352
vn -0.7333 -0.6462 -0.2114
vn -0.0616 -0.7200 0.6912
vn 0.7333 0.6462 0.2114
vn -0.2429 0.4935 0.8352
vn -0.8854 0.4429 -0.1408
vn 0.0616 0.7200 -0.6912
vn 0.8929 -0.4389 -0.1002
vn 0.0066 -0.4789 -0.8778
vn -0.7634 -0.6459 0.0012
vn 0.1338 -0.7396 0.6596
vn 0.7634 0.6459 -0.0012
vn -0.0066 0.4789 0.8778
vn -0.8929 0.4389 0.1002
vn -0.1338 0.7396 -0.6596
vn 0.6688 -0.4683 0.5774
vn 0.6689 -0.4683 -0.5773
vn -0.4683 -0.6688 -0.5774
vn -0.4683 -0.6688 0.5774
vn 0.4683 0.6688 0.5774
vn -0.6688 0.4683 0.5774
vn -0.6688 0.4683 -0.5774
vn 0.4684 0.6688 -0.5773
vn 0.6688 -0.4683 0.5773
vn 0.6688 -0.4683 -0.5774
vn 0.4683 0.6688 -0.5774
vn -0.4683 -0.6688 -0.5773
vn 0.4684 0.6689 0.5773
vn -0.6688 0.4683 -0.5773
vn 0.6689 -0.4684 0.5773
vn 0.6689 -0.4684 -0.5773
vn -0.1167 -0.4661 0.8770
vn 0.8708 -0.4364 0.2262
vn 0.2296 -0.7406 -0.6315
vn -0.7522 -0.6505 -0.1051
vn -0.2296 0.7406 0.6315
vn -0.8708 0.4364 -0.2262
vn 0.1167 0.4661 -0.8770
vn 0.7522 0.6505 0.1051
vn -0.8844 -0.4378 0.1617
vn 0.0535 -0.4728 0.8795
vn 0.7601 -0.6477 -0.0527
vn -0.1810 -0.7410 -0.6467
vn -0.7601 0.6477 0.0527
vn -0.0535 0.4728 -0.8795
vn 0.8844 0.4378 -0.1617
vn 0.1810 0.7410 0.6467
# 64 vertex normals

vt 1.0000 0.0000 0.0000
vt 1.0000 1.0000 0.0000
vt 0.0000 1.0000 0.0000
vt 0.0000 0.0000 0.0000
# 4 texture coords

o Box002
g Box002
usemtl Material__4
s 2
f 4/4/4 3/3/3 2/2/2 1/1/1 
s 4
f 8/3/8 7/2/7 6/1/6 5/4/5 
s 8
f 5/3/5 6/2/6 4/1/4 1/4/1 
s 16
f 6/3/6 7/2/7 3/1/3 4/4/4 
s 32
f 7/3/7 8/2/8 2/1/2 3/4/3 
s 64
f 8/3/8 5/2/5 1/1/1 2/4/2 
s 2
f 12/4/4 11/3/3 10/2/2 9/1/1 
s 4
f 16/3/8 15/2/7 14/1/6 13/4/5 
s 8
f 13/3/5 14/2/6 12/1/4 9/4/1 
s 16
f 14/3/6 15/2/7 11/1/3 12/4/4 
s 32
f 15/3/7 16/2/8 10/1/2 11/4/3 
s 64
f 16/3/8 13/2/5 9/1/1 10/4/2 
s 2
f 20/4/4 19/3/3 18/2/2 17/1/1 
s 4
f 24/3/8 23/2/7 22/1/6 21/4/5 
s 8
f 21/3/5 22/2/6 20/1/4 17/4/1 
s 16
f 22/3/6 23/2/7 19/1/3 20/4/4 
s 32
f 23/3/7 24/2/8 18/1/2 19/4/3 
s 64
f 24/3/8 21/2/5 17/1/1 18/4/2 
s 2
f 28/4/4 27/3/3 26/2/2 25/1/1 
s 4
f 32/3/8 31/2/7 30/1/6 29/4/5 
s 8
f 29/3/5 30/2/6 28/1/4 25/4/1 
s 16
f 30/3/6 31/2/7 27/1/3 28/4/4 
s 32
f 31/3/7 32/2/8 26/1/2 27/4/3 
s 64
f 32/3/8 29/2/5 25/1/1 26/4/2 
s 2
f 36/4/4 35/3/3 34/2/2 33/1/1 
s 4
f 40/3/8 39/2/7 38/1/6 37/4/5 
s 8
f 37/3/5 38/2/6 36/1/4 33/4/1 
s 16
f 38/3/6 39/2/7 35/1/3 36/4/4 
s 32
f 39/3/7 40/2/8 34/1/2 35/4/3 
s 64
f 40/3/8 37/2/5 33/1/1 34/4/2 
s 2
f 44/4/12 43/3/11 42/2/10 41/1/9 
s 4
f 48/3/16 47/2/15 46/1/14 45/4/13 
s 8
f 45/3/13 46/2/14 44/1/12 41/4/9 
s 16
f 46/3/14 47/2/15 43/1/11 44/4/12 
s 32
f 47/3/15 48/2/16 42/1/10 43/4/11 
s 64
f 48/3/16 45/2/13 41/1/9 42/4/10 
s 2
f 52/4/12 51/3/11 50/2/10 49/1/9 
s 4
f 56/3/16 55/2/15 54/1/14 53/4/13 
s 8
f 53/3/13 54/2/14 52/1/12 49/4/9 
s 16
f 54/3/14 55/2/15 51/1/11 52/4/12 
s 32
f 55/3/15 56/2/16 50/1/10 51/4/11 
s 64
f 56/3/16 53/2/13 49/1/9 50/4/10 
s 2
f 60/4/12 59/3/11 58/2/10 57/1/9 
s 4
f 64/3/16 63/2/15 62/1/14 61/4/13 
s 8
f 61/3/13 62/2/14 60/1/12 57/4/9 
s 16
f 62/3/14 63/2/15 59/1/11 60/4/12 
s 32
f 63/3/15 64/2/16 58/1/10 59/4/11 
s 64
f 64/3/16 61/2/13 57/1/9 58/4/10 
s 2
f 68/4/12 67/3/11 66/2/10 65/1/9 
s 4
f 72/3/16 71/2/15 70/1/14 69/4/13 
s 8
f 69/3/13 70/2/14 68/1/12 65/4/9 
s 16
f 70/3/14 71/2/15 67/1/11 68/4/12 
s 32
f 71/3/15 72/2/16 66/1/10 67/4/11 
s 64
f 72/3/16 69/2/13 65/1/9 66/4/10 
s 2
f 76/4/12 75/3/11 74/2/10 73/1/9 
s 4
f 80/3/16 79/2/15 78/1/14 77/4/13 
s 8
f 77/3/13 78/2/14 76/1/12 73/4/9 
s 16
f 78/3/14 79/2/15 75/1/11 76/4/12 
s 32
f 79/3/15 80/2/16 74/1/10 75/4/11 
s 64
f 80/3/16 77/2/13 73/1/9 74/4/10 
s 2
f 84/4/20 83/3/19 82/2/18 81/1/17 
s 4
f 88/3/24 87/2/23 86/1/22 85/4/21 
s 8
f 85/3/21 86/2/22 84/1/20 81/4/17 
s 16
f 86/3/22 87/2/23 83/1/19 84/4/20 
s 32
f 87/3/23 88/2/24 82/1/18 83/4/19 
s 64
f 88/3/24 85/2/21 81/1/17 82/4/18 
s 2
f 92/4/20 91/3/19 90/2/18 89/1/17 
s 4
f 96/3/24 95/2/23 94/1/22 93/4/21 
s 8
f 93/3/21 94/2/22 92/1/20 89/4/17 
s 16
f 94/3/22 95/2/23 91/1/19 92/4/20 
s 32
f 95/3/23 96/2/24 90/1/18 91/4/19 
s 64
f 96/3/24 93/2/21 89/1/17 90/4/18 
s 2
f 100/4/20 99/3/19 98/2/18 97/1/17 
s 4
f 104/3/24 103/2/23 102/1/22 101/4/21 
s 8
f 101/3/21 102/2/22 100/1/20 97/4/17 
s 16
f 102/3/22 103/2/23 99/1/19 100/4/20 
s 32
f 103/3/23 104/2/24 98/1/18 99/4/19 
s 64
f 104/3/24 101/2/21 97/1/17 98/4/18 
s 2
f 108/4/20 107/3/19 106/2/18 105/1/17 
s 4
f 112/3/24 111/2/23 110/1/22 109/4/21 
s 8
f 109/3/21 110/2/22 108/1/20 105/4/17 
s 16
f 110/3/22 111/2/23 107/1/19 108/4/20 
s 32
f 111/3/23 112/2/24 106/1/18 107/4/19 
s 64
f 112/3/24 109/2/21 105/1/17 106/4/18 
s 2
f 116/4/20 115/3/19 114/2/18 113/1/17 
s 4
f 120/3/24 119/2/23 118/1/22 117/4/21 
s 8
f 117/3/21 118/2/22 116/1/20 113/4/17 
s 16
f 118/3/22 119/2/23 115/1/19 116/4/20 
s 32
f 119/3/23 120/2/24 114/1/18 115/4/19 
s 64
f 120/3/24 117/2/21 113/1/17 114/4/18 
s 2
f 124/4/28 123/3/27 122/2/26 121/1/25 
s 4
f 128/3/32 127/2/31 126/1/30 125/4/29 
s 8
f 125/3/29 126/2/30 124/1/28 121/4/25 
s 16
f 126/3/30 127/2/31 123/1/27 124/4/28 
s 32
f 127/3/31 128/2/32 122/1/26 123/4/27 
s 64
f 128/3/32 125/2/29 121/1/25 122/4/26 
s 2
f 132/4/28 131/3/27 130/2/26 129/1/25 
s 4
f 136/3/32 135/2/31 134/1/30 133/4/29 
s 8
f 133/3/29 134/2/30 132/1/28 129/4/25 
s 16
f 134/3/30 135/2/31 131/1/27 132/4/28 
s 32
f 135/3/31 136/2/32 130/1/26 131/4/27 
s 64
f 136/3/32 133/2/29 129/1/25 130/4/26 
s 2
f 140/4/28 139/3/27 138/2/26 137/1/25 
s 4
f 144/3/32 143/2/31 142/1/30 141/4/29 
s 8
f 141/3/29 142/2/30 140/1/28 137/4/25 
s 16
f 142/3/30 143/2/31 139/1/27 140/4/28 
s 32
f 143/3/31 144/2/32 138/1/26 139/4/27 
s 64
f 144/3/32 141/2/29 137/1/25 138/4/26 
s 2
f 148/4/28 147/3/27 146/2/26 145/1/25 
s 4
f 152/3/32 151/2/31 150/1/30 149/4/29 
s 8
f 149/3/29 150/2/30 148/1/28 145/4/25 
s 16
f 150/3/30 151/2/31 147/1/27 148/4/28 
s 32
f 151/3/31 152/2/32 146/1/26 147/4/27 
s 64
f 152/3/32 149/2/29 145/1/25 146/4/26 
s 2
f 156/4/28 155/3/27 154/2/26 153/1/25 
s 4
f 160/3/32 159/2/31 158/1/30 157/4/29 
s 8
f 157/3/29 158/2/30 156/1/28 153/4/25 
s 16
f 158/3/30 159/2/31 155/1/27 156/4/28 
s 32
f 159/3/31 160/2/32 154/1/26 155/4/27 
s 64
f 160/3/32 157/2/29 153/1/25 154/4/26 
s 2
f 164/4/36 163/3/35 162/2/34 161/1/33 
s 4
f 168/3/40 167/2/39 166/1/38 165/4/37 
s 8
f 165/3/37 166/2/38 164/1/36 161/4/33 
s 16
f 166/3/38 167/2/39 163/1/35 164/4/36 
s 32
f 167/3/39 168/2/40 162/1/34 163/4/35 
s 64
f 168/3/40 165/2/37 161/1/33 162/4/34 
s 2
f 172/4/36 171/3/35 170/2/42 169/1/41 
s 4
f 176/3/43 175/2/39 174/1/38 173/4/37 
s 8
f 173/3/37 174/2/38 172/1/36 169/4/41 
s 16
f 174/3/38 175/2/39 171/1/35 172/4/36 
s 32
f 175/3/39 176/2/43 170/1/42 171/4/35 
s 64
f 176/3/43 173/2/37 169/1/41 170/4/42 
s 2
f 180/4/36 179/3/44 178/2/42 177/1/33 
s 4
f 184/3/43 183/2/39 182/1/38 181/4/37 
s 8
f 181/3/37 182/2/38 180/1/36 177/4/33 
s 16
f 182/3/38 183/2/39 179/1/44 180/4/36 
s 32
f 183/3/39 184/2/43 178/1/42 179/4/44 
s 64
f 184/3/43 181/2/37 177/1/33 178/4/42 
s 2
f 188/4/36 187/3/44 186/2/42 185/1/33 
s 4
f 192/3/43 191/2/46 190/1/38 189/4/45 
s 8
f 189/3/45 190/2/38 188/1/36 185/4/33 
s 16
f 190/3/38 191/2/46 187/1/44 188/4/36 
s 32
f 191/3/46 192/2/43 186/1/42 187/4/44 
s 64
f 192/3/43 189/2/45 185/1/33 186/4/42 
s 2
f 196/4/36 195/3/35 194/2/48 193/1/47 
s 4
f 200/3/43 199/2/39 198/1/38 197/4/37 
s 8
f 197/3/37 198/2/38 196/1/36 193/4/47 
s 16
f 198/3/38 199/2/39 195/1/35 196/4/36 
s 32
f 199/3/39 200/2/43 194/1/48 195/4/35 
s 64
f 200/3/43 197/2/37 193/1/47 194/4/48 
s 2
f 204/4/52 203/3/51 202/2/50 201/1/49 
s 4
f 208/3/56 207/2/55 206/1/54 205/4/53 
s 8
f 205/3/53 206/2/54 204/1/52 201/4/49 
s 16
f 206/3/54 207/2/55 203/1/51 204/4/52 
s 32
f 207/3/55 208/2/56 202/1/50 203/4/51 
s 64
f 208/3/56 205/2/53 201/1/49 202/4/50 
s 2
f 212/4/52 211/3/51 210/2/50 209/1/49 
s 4
f 216/3/56 215/2/55 214/1/54 213/4/53 
s 8
f 213/3/53 214/2/54 212/1/52 209/4/49 
s 16
f 214/3/54 215/2/55 211/1/51 212/4/52 
s 32
f 215/3/55 216/2/56 210/1/50 211/4/51 
s 64
f 216/3/56 213/2/53 209/1/49 210/4/50 
s 2
f 220/4/52 219/3/51 218/2/50 217/1/49 
s 4
f 224/3/56 223/2/55 222/1/54 221/4/53 
s 8
f 221/3/53 222/2/54 220/1/52 217/4/49 
s 16
f 222/3/54 223/2/55 219/1/51 220/4/52 
s 32
f 223/3/55 224/2/56 218/1/50 219/4/51 
s 64
f 224/3/56 221/2/53 217/1/49 218/4/50 
s 2
f 228/4/52 227/3/51 226/2/50 225/1/49 
s 4
f 232/3/56 231/2/55 230/1/54 229/4/53 
s 8
f 229/3/53 230/2/54 228/1/52 225/4/49 
s 16
f 230/3/54 231/2/55 227/1/51 228/4/52 
s 32
f 231/3/55 232/2/56 226/1/50 227/4/51 
s 64
f 232/3/56 229/2/53 225/1/49 226/4/50 
s 2
f 236/4/52 235/3/51 234/2/50 233/1/49 
s 4
f 240/3/56 239/2/55 238/1/54 237/4/53 
s 8
f 237/3/53 238/2/54 236/1/52 233/4/49 
s 16
f 238/3/54 239/2/55 235/1/51 236/4/52 
s 32
f 239/3/55 240/2/56 234/1/50 235/4/51 
s 64
f 240/3/56 237/2/53 233/1/49 234/4/50 
s 2
f 244/4/60 243/3/59 242/2/58 241/1/57 
s 4
f 248/3/64 247/2/63 246/1/62 245/4/61 
s 8
f 245/3/61 246/2/62 244/1/60 241/4/57 
s 16
f 246/3/62 247/2/63 243/1/59 244/4/60 
s 32
f 247/3/63 248/2/64 242/1/58 243/4/59 
s 64
f 248/3/64 245/2/61 241/1/57 242/4/58 
s 2
f 252/4/60 251/3/59 250/2/58 249/1/57 
s 4
f 256/3/64 255/2/63 254/1/62 253/4/61 
s 8
f 253/3/61 254/2/62 252/1/60 249/4/57 
s 16
f 254/3/62 255/2/63 251/1/59 252/4/60 
s 32
f 255/3/63 256/2/64 250/1/58 251/4/59 
s 64
f 256/3/64 253/2/61 249/1/57 250/4/58 
s 2
f 260/4/60 259/3/59 258/2/58 257/1/57 
s 4
f 264/3/64 263/2/63 262/1/62 261/4/61 
s 8
f 261/3/61 262/2/62 260/1/60 257/4/57 
s 16
f 262/3/62 263/2/63 259/1/59 260/4/60 
s 32
f 263/3/63 264/2/64 258/1/58 259/4/59 
s 64
f 264/3/64 261/2/61 257/1/57 258/4/58 
s 2
f 268/4/60 267/3/59 266/2/58 265/1/57 
s 4
f 272/3/64 271/2/63 270/1/62 269/4/61 
s 8
f 269/3/61 270/2/62 268/1/60 265/4/57 
s 16
f 270/3/62 271/2/63 267/1/59 268/4/60 
s 32
f 271/3/63 272/2/64 266/1/58 267/4/59 
s 64
f 272/3/64 269/2/61 265/1/57 266/4/58 
s 2
f 276/4/60 275/3/59 274/2/58 273/1/57 
s 4
f 280/3/64 279/2/63 278/1/62 277/4/61 
s 8
f 277/3/61 278/2/62 276/1/60 273/4/57 
s 16
f 278/3/62 279/2/63 275/1/59 276/4/60 
s 32
f 279/3/63 280/2/64 274/1/58 275/4/59 
s 64
f 280/3/64 277/2/61 273/1/57 274/4/58 
# 210 polygons

