# 3ds Max Wavefront OBJ Exporter v0.97b - (c)2007 guruware
# File Created: 04.07.2018 18:35:27

mtllib resources/ObjImages/WoodenBarrier/WoodenBarrierPartTest09.mtl

#
# object Box002
#

v  -66.7353 -30.8925 48.2817
v  75.1808 -30.8925 -33.6536
v  72.2729 -31.9180 -38.6903
v  -69.6432 -31.9180 43.2450
v  -67.7608 -19.2609 46.5055
v  -70.6687 -20.2864 41.4688
v  71.2474 -20.2864 -40.4664
v  74.1553 -19.2610 -35.4298
v  -67.8633 -18.0978 46.3279
v  74.0528 -18.0978 -35.6074
v  71.1449 -19.1233 -40.6441
v  -70.7712 -19.1233 41.2912
v  -68.8888 -6.4662 44.5517
v  -71.7967 -7.4917 39.5150
v  70.1194 -7.4917 -42.4202
v  73.0273 -6.4662 -37.3836
v  -68.9914 -5.3030 44.3741
v  72.9247 -5.3031 -37.5612
v  70.0168 -6.3285 -42.5979
v  -71.8993 -6.3285 39.3374
v  -70.0168 6.3285 42.5979
v  -72.9247 5.3031 37.5612
v  68.9914 5.3030 -44.3740
v  71.8993 6.3285 -39.3374
v  -70.1194 7.4917 42.4202
v  71.7967 7.4917 -39.5150
v  68.8888 6.4662 -44.5517
v  -73.0273 6.4662 37.3836
v  -71.1449 19.1233 40.6441
v  -74.0528 18.0978 35.6074
v  67.8633 18.0978 -46.3279
v  70.7712 19.1233 -41.2912
v  -71.2474 20.2864 40.4664
v  70.6687 20.2864 -41.4688
v  67.7608 19.2609 -46.5055
v  -74.1553 19.2610 35.4298
v  -72.2729 31.9180 38.6903
v  -75.1808 30.8925 33.6536
v  66.7353 30.8925 -48.2817
v  69.6432 31.9180 -43.2450
v  77.8209 -30.8926 -41.3017
v  77.8209 -30.8926 -103.2644
v  72.0051 -31.9180 -103.2644
v  72.0051 -31.9180 -41.3017
v  75.7699 -19.2610 -41.3017
v  69.9541 -20.2864 -41.3017
v  69.9541 -20.2865 -103.2644
v  75.7699 -19.2610 -103.2644
v  75.5648 -18.0978 -41.3017
v  75.5648 -18.0978 -103.2644
v  69.7490 -19.1233 -103.2644
v  69.7490 -19.1233 -41.3017
v  73.5138 -6.4662 -41.3017
v  67.6981 -7.4917 -41.3017
v  67.6981 -7.4917 -103.2644
v  73.5139 -6.4662 -103.2644
v  73.3088 -5.3031 -41.3017
v  73.3088 -5.3031 -103.2644
v  67.4930 -6.3286 -103.2644
v  67.4930 -6.3285 -41.3017
v  71.2578 6.3285 -41.3017
v  65.4420 5.3030 -41.3017
v  65.4420 5.3030 -103.2644
v  71.2578 6.3285 -103.2644
v  71.0527 7.4917 -41.3017
v  71.0527 7.4917 -103.2644
v  65.2369 6.4662 -103.2644
v  65.2369 6.4662 -41.3017
v  69.0017 19.1233 -41.3017
v  63.1859 18.0978 -41.3017
v  63.1860 18.0978 -103.2644
v  69.0017 19.1233 -103.2644
v  68.7966 20.2864 -41.3017
v  68.7966 20.2864 -103.2644
v  62.9809 19.2609 -103.2644
v  62.9808 19.2609 -41.3017
v  66.7457 31.9180 -41.3017
v  60.9299 30.8925 -41.3017
v  60.9299 30.8925 -103.2644
v  66.7457 31.9180 -103.2644
v  72.5385 -30.8925 -90.1521
v  134.7894 -30.8926 -126.0927
v  131.8815 -31.9180 -131.1293
v  69.6306 -31.9180 -95.1887
v  71.5130 -19.2610 -91.9283
v  68.6051 -20.2864 -96.9649
v  130.8560 -20.2864 -132.9055
v  133.7639 -19.2610 -127.8689
v  71.4104 -18.0978 -92.1059
v  133.6614 -18.0978 -128.0465
v  130.7535 -19.1233 -133.0831
v  68.5025 -19.1233 -97.1425
v  70.3850 -6.4662 -93.8821
v  67.4771 -7.4917 -98.9187
v  129.7280 -7.4917 -134.8593
v  132.6359 -6.4662 -129.8227
v  70.2824 -5.3031 -94.0597
v  132.5333 -5.3031 -130.0003
v  129.6254 -6.3285 -135.0369
v  67.3745 -6.3285 -99.0963
v  69.2569 6.3285 -95.8359
v  66.3490 5.3030 -100.8725
v  128.6000 5.3030 -136.8131
v  131.5078 6.3285 -131.7765
v  69.1544 7.4917 -96.0135
v  131.4053 7.4917 -131.9541
v  128.4974 6.4662 -136.9907
v  66.2465 6.4662 -101.0501
v  68.1289 19.1233 -97.7897
v  65.2210 18.0978 -102.8263
v  127.4719 18.0978 -138.7669
v  130.3798 19.1233 -133.7303
v  68.0264 20.2864 -97.9673
v  130.2773 20.2864 -133.9079
v  127.3694 19.2609 -138.9445
v  65.1185 19.2609 -103.0040
v  67.0009 31.9180 -99.7435
v  64.0930 30.8925 -104.7801
v  126.3439 30.8925 -140.7207
v  129.2518 31.9180 -135.6841
v  139.0164 -30.8926 -133.3133
v  139.0164 -30.8926 -178.7585
v  133.2006 -31.9180 -178.7586
v  133.2006 -31.9180 -133.3133
v  136.9654 -19.2610 -133.3133
v  131.1496 -20.2865 -133.3133
v  131.1496 -20.2865 -178.7586
v  136.9655 -19.2610 -178.7585
v  136.7603 -18.0978 -133.3133
v  136.7604 -18.0978 -178.7586
v  130.9445 -19.1233 -178.7586
v  130.9445 -19.1233 -133.3133
v  134.7094 -6.4662 -133.3133
v  128.8936 -7.4917 -133.3133
v  128.8936 -7.4917 -178.7585
v  134.7094 -6.4662 -178.7585
v  134.5043 -5.3031 -133.3133
v  134.5043 -5.3031 -178.7585
v  128.6885 -6.3286 -178.7586
v  128.6885 -6.3286 -133.3133
v  132.4533 6.3285 -133.3133
v  126.6375 5.3030 -133.3133
v  126.6375 5.3030 -178.7586
v  132.4533 6.3285 -178.7586
v  132.2482 7.4917 -133.3133
v  132.2482 7.4917 -178.7585
v  126.4324 6.4662 -178.7586
v  126.4324 6.4662 -133.3133
v  130.1972 19.1233 -133.3133
v  124.3815 18.0978 -133.3133
v  124.3815 18.0978 -178.7586
v  130.1973 19.1233 -178.7585
v  129.9922 20.2864 -133.3133
v  129.9922 20.2864 -178.7586
v  124.1764 19.2609 -178.7586
v  124.1764 19.2609 -133.3133
v  127.9412 31.9180 -133.3133
v  122.1254 30.8925 -133.3133
v  122.1254 30.8925 -178.7585
v  127.9412 31.9180 -178.7585
v  133.4759 -30.8926 -185.0671
v  -20.5121 -30.8925 -241.1141
v  -22.5012 -31.9180 -235.6490
v  131.4868 -31.9180 -179.6020
v  132.7744 -19.2610 -183.1398
v  130.7853 -20.2865 -177.6747
v  -23.2027 -20.2864 -233.7218
v  -21.2135 -19.2610 -239.1868
v  132.7043 -18.0978 -182.9471
v  -21.2837 -18.0978 -238.9941
v  -23.2728 -19.1233 -233.5290
v  130.7152 -19.1233 -177.4820
v  132.0028 -6.4662 -181.0198
v  130.0137 -7.4917 -175.5547
v  -23.9743 -7.4917 -231.6017
v  -21.9852 -6.4662 -237.0668
v  131.9327 -5.3031 -180.8271
v  -22.0553 -5.3031 -236.8741
v  -24.0444 -6.3285 -231.4090
v  129.9435 -6.3286 -175.3620
v  131.2312 6.3285 -178.8998
v  129.2421 5.3030 -173.4347
v  -24.7459 5.3030 -229.4818
v  -22.7568 6.3285 -234.9468
v  131.1610 7.4917 -178.7071
v  -22.8269 7.4917 -234.7541
v  -24.8161 6.4662 -229.2890
v  129.1719 6.4662 -173.2420
v  130.4596 19.1233 -176.7798
v  128.4705 18.0978 -171.3147
v  -25.5175 18.0978 -227.3618
v  -23.5284 19.1233 -232.8268
v  130.3894 20.2864 -176.5871
v  -23.5986 20.2864 -232.6341
v  -25.5877 19.2609 -227.1690
v  128.4003 19.2609 -171.1220
v  129.6879 31.9180 -174.6598
v  127.6988 30.8925 -169.1947
v  -26.2891 30.8925 -225.2417
v  -24.3000 31.9180 -230.7068
# 200 vertices

vn -0.1656 -0.4683 0.8679
vn 0.8344 -0.4683 0.2906
vn 0.2658 -0.6688 -0.6943
vn -0.7342 -0.6688 -0.1169
vn -0.2658 0.6688 0.6943
vn -0.8344 0.4683 -0.2906
vn 0.1656 0.4683 -0.8679
vn 0.7342 0.6688 0.1169
vn 0.6248 -0.4342 0.6489
vn 0.7075 -0.4622 -0.5346
vn -0.4643 -0.6496 -0.6020
vn -0.4262 -0.7501 0.5056
vn 0.4643 0.6496 0.6020
vn -0.7075 0.4622 0.5346
vn -0.6248 0.4342 -0.6489
vn 0.4262 0.7501 -0.5056
vn 0.7568 -0.4766 -0.4473
vn -0.3647 -0.4373 -0.8221
vn -0.6289 -0.7486 0.2097
vn 0.3809 -0.6447 0.6628
vn 0.6289 0.7486 -0.2097
vn 0.3647 0.4373 0.8221
vn -0.7568 0.4766 0.4473
vn -0.3809 0.6447 -0.6628
# 24 vertex normals

vt 1.0000 0.0000 0.0000
vt 1.0000 1.0000 0.0000
vt 0.0000 1.0000 0.0000
vt 0.0000 0.0000 0.0000
# 4 texture coords

o Box002
g Box002
usemtl Material__4
s 2
f 4/4/4 3/3/3 2/2/2 1/1/1 
s 4
f 8/3/8 7/2/7 6/1/6 5/4/5 
s 8
f 5/3/5 6/2/6 4/1/4 1/4/1 
s 16
f 6/3/6 7/2/7 3/1/3 4/4/4 
s 32
f 7/3/7 8/2/8 2/1/2 3/4/3 
s 64
f 8/3/8 5/2/5 1/1/1 2/4/2 
s 2
f 12/4/4 11/3/3 10/2/2 9/1/1 
s 4
f 16/3/8 15/2/7 14/1/6 13/4/5 
s 8
f 13/3/5 14/2/6 12/1/4 9/4/1 
s 16
f 14/3/6 15/2/7 11/1/3 12/4/4 
s 32
f 15/3/7 16/2/8 10/1/2 11/4/3 
s 64
f 16/3/8 13/2/5 9/1/1 10/4/2 
s 2
f 20/4/4 19/3/3 18/2/2 17/1/1 
s 4
f 24/3/8 23/2/7 22/1/6 21/4/5 
s 8
f 21/3/5 22/2/6 20/1/4 17/4/1 
s 16
f 22/3/6 23/2/7 19/1/3 20/4/4 
s 32
f 23/3/7 24/2/8 18/1/2 19/4/3 
s 64
f 24/3/8 21/2/5 17/1/1 18/4/2 
s 2
f 28/4/4 27/3/3 26/2/2 25/1/1 
s 4
f 32/3/8 31/2/7 30/1/6 29/4/5 
s 8
f 29/3/5 30/2/6 28/1/4 25/4/1 
s 16
f 30/3/6 31/2/7 27/1/3 28/4/4 
s 32
f 31/3/7 32/2/8 26/1/2 27/4/3 
s 64
f 32/3/8 29/2/5 25/1/1 26/4/2 
s 2
f 36/4/4 35/3/3 34/2/2 33/1/1 
s 4
f 40/3/8 39/2/7 38/1/6 37/4/5 
s 8
f 37/3/5 38/2/6 36/1/4 33/4/1 
s 16
f 38/3/6 39/2/7 35/1/3 36/4/4 
s 32
f 39/3/7 40/2/8 34/1/2 35/4/3 
s 64
f 40/3/8 37/2/5 33/1/1 34/4/2 
s 2
f 44/4/12 43/3/11 42/2/10 41/1/9 
s 4
f 48/3/16 47/2/15 46/1/14 45/4/13 
s 8
f 45/3/13 46/2/14 44/1/12 41/4/9 
s 16
f 46/3/14 47/2/15 43/1/11 44/4/12 
s 32
f 47/3/15 48/2/16 42/1/10 43/4/11 
s 64
f 48/3/16 45/2/13 41/1/9 42/4/10 
s 2
f 52/4/12 51/3/11 50/2/10 49/1/9 
s 4
f 56/3/16 55/2/15 54/1/14 53/4/13 
s 8
f 53/3/13 54/2/14 52/1/12 49/4/9 
s 16
f 54/3/14 55/2/15 51/1/11 52/4/12 
s 32
f 55/3/15 56/2/16 50/1/10 51/4/11 
s 64
f 56/3/16 53/2/13 49/1/9 50/4/10 
s 2
f 60/4/12 59/3/11 58/2/10 57/1/9 
s 4
f 64/3/16 63/2/15 62/1/14 61/4/13 
s 8
f 61/3/13 62/2/14 60/1/12 57/4/9 
s 16
f 62/3/14 63/2/15 59/1/11 60/4/12 
s 32
f 63/3/15 64/2/16 58/1/10 59/4/11 
s 64
f 64/3/16 61/2/13 57/1/9 58/4/10 
s 2
f 68/4/12 67/3/11 66/2/10 65/1/9 
s 4
f 72/3/16 71/2/15 70/1/14 69/4/13 
s 8
f 69/3/13 70/2/14 68/1/12 65/4/9 
s 16
f 70/3/14 71/2/15 67/1/11 68/4/12 
s 32
f 71/3/15 72/2/16 66/1/10 67/4/11 
s 64
f 72/3/16 69/2/13 65/1/9 66/4/10 
s 2
f 76/4/12 75/3/11 74/2/10 73/1/9 
s 4
f 80/3/16 79/2/15 78/1/14 77/4/13 
s 8
f 77/3/13 78/2/14 76/1/12 73/4/9 
s 16
f 78/3/14 79/2/15 75/1/11 76/4/12 
s 32
f 79/3/15 80/2/16 74/1/10 75/4/11 
s 64
f 80/3/16 77/2/13 73/1/9 74/4/10 
s 2
f 84/4/4 83/3/3 82/2/2 81/1/1 
s 4
f 88/3/8 87/2/7 86/1/6 85/4/5 
s 8
f 85/3/5 86/2/6 84/1/4 81/4/1 
s 16
f 86/3/6 87/2/7 83/1/3 84/4/4 
s 32
f 87/3/7 88/2/8 82/1/2 83/4/3 
s 64
f 88/3/8 85/2/5 81/1/1 82/4/2 
s 2
f 92/4/4 91/3/3 90/2/2 89/1/1 
s 4
f 96/3/8 95/2/7 94/1/6 93/4/5 
s 8
f 93/3/5 94/2/6 92/1/4 89/4/1 
s 16
f 94/3/6 95/2/7 91/1/3 92/4/4 
s 32
f 95/3/7 96/2/8 90/1/2 91/4/3 
s 64
f 96/3/8 93/2/5 89/1/1 90/4/2 
s 2
f 100/4/4 99/3/3 98/2/2 97/1/1 
s 4
f 104/3/8 103/2/7 102/1/6 101/4/5 
s 8
f 101/3/5 102/2/6 100/1/4 97/4/1 
s 16
f 102/3/6 103/2/7 99/1/3 100/4/4 
s 32
f 103/3/7 104/2/8 98/1/2 99/4/3 
s 64
f 104/3/8 101/2/5 97/1/1 98/4/2 
s 2
f 108/4/4 107/3/3 106/2/2 105/1/1 
s 4
f 112/3/8 111/2/7 110/1/6 109/4/5 
s 8
f 109/3/5 110/2/6 108/1/4 105/4/1 
s 16
f 110/3/6 111/2/7 107/1/3 108/4/4 
s 32
f 111/3/7 112/2/8 106/1/2 107/4/3 
s 64
f 112/3/8 109/2/5 105/1/1 106/4/2 
s 2
f 116/4/4 115/3/3 114/2/2 113/1/1 
s 4
f 120/3/8 119/2/7 118/1/6 117/4/5 
s 8
f 117/3/5 118/2/6 116/1/4 113/4/1 
s 16
f 118/3/6 119/2/7 115/1/3 116/4/4 
s 32
f 119/3/7 120/2/8 114/1/2 115/4/3 
s 64
f 120/3/8 117/2/5 113/1/1 114/4/2 
s 2
f 124/4/12 123/3/11 122/2/10 121/1/9 
s 4
f 128/3/16 127/2/15 126/1/14 125/4/13 
s 8
f 125/3/13 126/2/14 124/1/12 121/4/9 
s 16
f 126/3/14 127/2/15 123/1/11 124/4/12 
s 32
f 127/3/15 128/2/16 122/1/10 123/4/11 
s 64
f 128/3/16 125/2/13 121/1/9 122/4/10 
s 2
f 132/4/12 131/3/11 130/2/10 129/1/9 
s 4
f 136/3/16 135/2/15 134/1/14 133/4/13 
s 8
f 133/3/13 134/2/14 132/1/12 129/4/9 
s 16
f 134/3/14 135/2/15 131/1/11 132/4/12 
s 32
f 135/3/15 136/2/16 130/1/10 131/4/11 
s 64
f 136/3/16 133/2/13 129/1/9 130/4/10 
s 2
f 140/4/12 139/3/11 138/2/10 137/1/9 
s 4
f 144/3/16 143/2/15 142/1/14 141/4/13 
s 8
f 141/3/13 142/2/14 140/1/12 137/4/9 
s 16
f 142/3/14 143/2/15 139/1/11 140/4/12 
s 32
f 143/3/15 144/2/16 138/1/10 139/4/11 
s 64
f 144/3/16 141/2/13 137/1/9 138/4/10 
s 2
f 148/4/12 147/3/11 146/2/10 145/1/9 
s 4
f 152/3/16 151/2/15 150/1/14 149/4/13 
s 8
f 149/3/13 150/2/14 148/1/12 145/4/9 
s 16
f 150/3/14 151/2/15 147/1/11 148/4/12 
s 32
f 151/3/15 152/2/16 146/1/10 147/4/11 
s 64
f 152/3/16 149/2/13 145/1/9 146/4/10 
s 2
f 156/4/12 155/3/11 154/2/10 153/1/9 
s 4
f 160/3/16 159/2/15 158/1/14 157/4/13 
s 8
f 157/3/13 158/2/14 156/1/12 153/4/9 
s 16
f 158/3/14 159/2/15 155/1/11 156/4/12 
s 32
f 159/3/15 160/2/16 154/1/10 155/4/11 
s 64
f 160/3/16 157/2/13 153/1/9 154/4/10 
s 2
f 164/4/20 163/3/19 162/2/18 161/1/17 
s 4
f 168/3/24 167/2/23 166/1/22 165/4/21 
s 8
f 165/3/21 166/2/22 164/1/20 161/4/17 
s 16
f 166/3/22 167/2/23 163/1/19 164/4/20 
s 32
f 167/3/23 168/2/24 162/1/18 163/4/19 
s 64
f 168/3/24 165/2/21 161/1/17 162/4/18 
s 2
f 172/4/20 171/3/19 170/2/18 169/1/17 
s 4
f 176/3/24 175/2/23 174/1/22 173/4/21 
s 8
f 173/3/21 174/2/22 172/1/20 169/4/17 
s 16
f 174/3/22 175/2/23 171/1/19 172/4/20 
s 32
f 175/3/23 176/2/24 170/1/18 171/4/19 
s 64
f 176/3/24 173/2/21 169/1/17 170/4/18 
s 2
f 180/4/20 179/3/19 178/2/18 177/1/17 
s 4
f 184/3/24 183/2/23 182/1/22 181/4/21 
s 8
f 181/3/21 182/2/22 180/1/20 177/4/17 
s 16
f 182/3/22 183/2/23 179/1/19 180/4/20 
s 32
f 183/3/23 184/2/24 178/1/18 179/4/19 
s 64
f 184/3/24 181/2/21 177/1/17 178/4/18 
s 2
f 188/4/20 187/3/19 186/2/18 185/1/17 
s 4
f 192/3/24 191/2/23 190/1/22 189/4/21 
s 8
f 189/3/21 190/2/22 188/1/20 185/4/17 
s 16
f 190/3/22 191/2/23 187/1/19 188/4/20 
s 32
f 191/3/23 192/2/24 186/1/18 187/4/19 
s 64
f 192/3/24 189/2/21 185/1/17 186/4/18 
s 2
f 196/4/20 195/3/19 194/2/18 193/1/17 
s 4
f 200/3/24 199/2/23 198/1/22 197/4/21 
s 8
f 197/3/21 198/2/22 196/1/20 193/4/17 
s 16
f 198/3/22 199/2/23 195/1/19 196/4/20 
s 32
f 199/3/23 200/2/24 194/1/18 195/4/19 
s 64
f 200/3/24 197/2/21 193/1/17 194/4/18 
# 150 polygons

