# 3ds Max Wavefront OBJ Exporter v0.97b - (c)2007 guruware
# File Created: 21.06.2018 13:36:23

mtllib resources/ObjImages/WoodenBarrier/WoodenBarrierPartTest03.mtl

#
# object Box006
#

v  -159.8993 -39.3975 -30.9995
v  -159.8993 -39.3975 3.5354
v  -154.0835 -40.4230 3.5354
v  -154.0835 -40.4230 -30.9995
v  -157.8483 -27.7659 -30.9995
v  -152.0325 -28.7914 -30.9995
v  -152.0325 -28.7914 3.5354
v  -157.8483 -27.7659 3.5354
v  -157.6432 -26.6028 -30.9995
v  -157.6432 -26.6028 3.5354
v  -151.8274 -27.6283 3.5354
v  -151.8275 -27.6283 -30.9995
v  -155.5923 -14.9712 -30.9995
v  -149.7765 -15.9967 -30.9995
v  -149.7765 -15.9967 3.5354
v  -155.5923 -14.9712 3.5354
v  -155.3872 -13.8080 -30.9995
v  -155.3872 -13.8080 3.5354
v  -149.5714 -14.8335 3.5354
v  -149.5714 -14.8335 -30.9995
v  -153.3362 -2.1765 -30.9995
v  -147.5204 -3.2020 -30.9995
v  -147.5204 -3.2020 3.5354
v  -153.3362 -2.1765 3.5354
v  -153.1311 -1.0133 -30.9995
v  -153.1311 -1.0133 3.5354
v  -147.3153 -2.0388 3.5354
v  -147.3153 -2.0388 -30.9995
v  -151.0802 10.6183 -30.9995
v  -145.2644 9.5928 -30.9995
v  -145.2644 9.5928 3.5354
v  -151.0801 10.6183 3.5354
v  -150.8751 11.7814 -30.9995
v  -150.8750 11.7814 3.5354
v  -145.0592 10.7560 3.5354
v  -145.0593 10.7560 -30.9995
v  -148.8241 23.4130 -30.9995
v  -143.0083 22.3875 -30.9995
v  -143.0083 22.3875 3.5354
v  -148.8241 23.4130 3.5354
v  -155.5418 -39.3975 8.3580
v  -67.8090 -39.3975 59.0105
v  -64.9011 -40.4230 53.9739
v  -152.6339 -40.4230 3.3214
v  -154.5164 -27.7659 6.5818
v  -151.6085 -28.7914 1.5452
v  -63.8756 -28.7914 52.1977
v  -66.7835 -27.7659 57.2344
v  -154.4138 -26.6028 6.4042
v  -66.6810 -26.6028 57.0567
v  -63.7731 -27.6283 52.0201
v  -151.5059 -27.6283 1.3675
v  -153.3883 -14.9712 4.6280
v  -150.4804 -15.9967 -0.4086
v  -62.7476 -15.9967 50.2439
v  -65.6555 -14.9712 55.2805
v  -153.2858 -13.8080 4.4504
v  -65.5530 -13.8080 55.1029
v  -62.6451 -14.8335 50.0663
v  -150.3779 -14.8335 -0.5863
v  -152.2603 -2.1765 2.6742
v  -149.3524 -3.2020 -2.3624
v  -61.6196 -3.2020 48.2901
v  -64.5275 -2.1765 53.3268
v  -152.1578 -1.0133 2.4966
v  -64.4249 -1.0133 53.1491
v  -61.5170 -2.0388 48.1125
v  -149.2499 -2.0388 -2.5401
v  -151.1323 10.6183 0.7204
v  -148.2244 9.5928 -4.3162
v  -60.4916 9.5928 46.3363
v  -63.3995 10.6183 51.3730
v  -151.0297 11.7814 0.5428
v  -63.2969 11.7814 51.1953
v  -60.3890 10.7560 46.1587
v  -148.1218 10.7560 -4.4939
v  -150.0042 23.4130 -1.2334
v  -147.0963 22.3875 -6.2700
v  -59.3635 22.3875 44.3825
v  -62.2714 23.4130 49.4191
v  -62.4645 -39.3975 57.3392
v  46.4905 -39.3975 -5.5660
v  43.5826 -40.4230 -10.6026
v  -65.3724 -40.4230 52.3026
v  -63.4900 -27.7659 55.5630
v  -66.3979 -28.7914 50.5264
v  42.5571 -28.7914 -12.3788
v  45.4650 -27.7660 -7.3422
v  -63.5925 -26.6028 55.3854
v  45.3624 -26.6028 -7.5198
v  42.4545 -27.6283 -12.5564
v  -66.5004 -27.6283 50.3487
v  -64.6180 -14.9712 53.6092
v  -67.5259 -15.9967 48.5726
v  41.4291 -15.9967 -14.3326
v  44.3370 -14.9712 -9.2960
v  -64.7205 -13.8081 53.4316
v  44.2344 -13.8081 -9.4736
v  41.3265 -14.8335 -14.5102
v  -67.6284 -14.8335 48.3950
v  -65.7460 -2.1765 51.6554
v  -68.6539 -3.2020 46.6188
v  40.3011 -3.2020 -16.2864
v  43.2089 -2.1765 -11.2498
v  -65.8486 -1.0133 51.4778
v  43.1064 -1.0133 -11.4274
v  40.1985 -2.0388 -16.4640
v  -68.7565 -2.0388 46.4411
v  -66.8741 10.6183 49.7016
v  -69.7820 9.5928 44.6650
v  39.1730 9.5928 -18.2402
v  42.0809 10.6183 -13.2036
v  -66.9766 11.7814 49.5240
v  41.9784 11.7814 -13.3812
v  39.0705 10.7559 -18.4178
v  -69.8845 10.7560 44.4873
v  -68.0021 23.4130 47.7478
v  -70.9100 22.3875 42.7112
v  38.0450 22.3875 -20.1940
v  40.9529 23.4130 -15.1574
v  46.9206 -39.3975 -8.5493
v  46.9206 -39.3975 -64.5868
v  41.1048 -40.4230 -64.5868
v  41.1048 -40.4230 -8.5493
v  44.8696 -27.7659 -8.5493
v  39.0538 -28.7914 -8.5493
v  39.0538 -28.7914 -64.5868
v  44.8696 -27.7659 -64.5868
v  44.6645 -26.6028 -8.5493
v  44.6645 -26.6028 -64.5868
v  38.8487 -27.6283 -64.5868
v  38.8487 -27.6283 -8.5493
v  42.6136 -14.9712 -8.5493
v  36.7978 -15.9967 -8.5493
v  36.7977 -15.9967 -64.5868
v  42.6136 -14.9712 -64.5868
v  42.4085 -13.8081 -8.5493
v  42.4084 -13.8080 -64.5868
v  36.5927 -14.8335 -64.5868
v  36.5927 -14.8335 -8.5493
v  40.3575 -2.1765 -8.5493
v  34.5417 -3.2020 -8.5493
v  34.5417 -3.2019 -64.5868
v  40.3575 -2.1765 -64.5868
v  40.1524 -1.0133 -8.5493
v  40.1524 -1.0133 -64.5868
v  34.3366 -2.0388 -64.5868
v  34.3366 -2.0388 -8.5493
v  38.1014 10.6183 -8.5493
v  32.2857 9.5928 -8.5493
v  32.2856 9.5928 -64.5868
v  38.1014 10.6183 -64.5868
v  37.8963 11.7814 -8.5493
v  37.8963 11.7814 -64.5868
v  32.0805 10.7560 -64.5868
v  32.0806 10.7560 -8.5493
v  35.8454 23.4130 -8.5493
v  30.0296 22.3875 -8.5493
v  30.0296 22.3875 -64.5868
v  35.8454 23.4130 -64.5868
v  44.7256 -39.3975 -74.6528
v  -55.1299 -39.3975 -132.3043
v  -58.0378 -40.4230 -127.2677
v  41.8177 -40.4230 -69.6161
v  43.7001 -27.7659 -72.8766
v  40.7922 -28.7914 -67.8400
v  -59.0632 -28.7914 -125.4915
v  -56.1553 -27.7659 -130.5282
v  43.5976 -26.6028 -72.6990
v  -56.2579 -26.6028 -130.3505
v  -59.1658 -27.6283 -125.3139
v  40.6897 -27.6283 -67.6623
v  42.5721 -14.9712 -70.9228
v  39.6642 -15.9967 -65.8862
v  -60.1913 -15.9967 -123.5377
v  -57.2834 -14.9712 -128.5744
v  42.4695 -13.8080 -70.7452
v  -57.3859 -13.8081 -128.3967
v  -60.2938 -14.8335 -123.3601
v  39.5617 -14.8335 -65.7085
v  41.4440 -2.1765 -68.9690
v  38.5362 -3.2020 -63.9324
v  -61.3193 -3.2020 -121.5839
v  -58.4114 -2.1765 -126.6206
v  41.3415 -1.0133 -68.7914
v  -58.5140 -1.0133 -126.4429
v  -61.4218 -2.0388 -121.4063
v  38.4336 -2.0388 -63.7547
v  40.3160 10.6183 -67.0152
v  37.4082 9.5928 -61.9786
v  -62.4473 9.5928 -119.6301
v  -59.5394 10.6183 -124.6668
v  40.2135 11.7814 -66.8376
v  -59.6420 11.7814 -124.4891
v  -62.5499 10.7560 -119.4525
v  37.3056 10.7560 -61.8009
v  39.1880 23.4130 -65.0614
v  36.2801 22.3875 -60.0248
v  -63.5753 22.3875 -117.6763
v  -60.6675 23.4130 -122.7130
v  -63.8784 -39.3975 -132.7454
v  -160.7428 -39.3975 -35.8809
v  -156.6304 -40.4230 -31.7685
v  -59.7660 -40.4230 -128.6330
v  -62.4281 -27.7659 -131.2951
v  -58.3158 -28.7914 -127.1828
v  -155.1802 -28.7914 -30.3183
v  -159.2926 -27.7659 -34.4307
v  -62.2831 -26.6028 -131.1501
v  -159.1475 -26.6028 -34.2857
v  -155.0351 -27.6283 -30.1733
v  -58.1707 -27.6283 -127.0377
v  -60.8329 -14.9712 -129.6999
v  -56.7205 -15.9967 -125.5875
v  -153.5849 -15.9967 -28.7230
v  -157.6973 -14.9712 -32.8354
v  -60.6879 -13.8080 -129.5548
v  -157.5522 -13.8080 -32.6904
v  -153.4399 -14.8335 -28.5780
v  -56.5755 -14.8335 -125.4425
v  -59.2376 -2.1765 -128.1046
v  -55.1252 -3.2020 -123.9922
v  -151.9896 -3.2020 -27.1278
v  -156.1020 -2.1765 -31.2401
v  -59.0926 -1.0133 -127.9596
v  -155.9570 -1.0133 -31.0951
v  -151.8446 -2.0388 -26.9827
v  -54.9802 -2.0388 -123.8472
v  -57.6423 10.6183 -126.5093
v  -53.5299 9.5928 -122.3969
v  -150.3943 9.5928 -25.5325
v  -154.5067 10.6183 -29.6449
v  -57.4973 11.7814 -126.3643
v  -154.3617 11.7814 -29.4998
v  -150.2493 10.7560 -25.3875
v  -53.3849 10.7560 -122.2519
v  -56.0471 23.4130 -124.9140
v  -51.9347 22.3875 -120.8017
v  -148.7991 22.3875 -23.9372
v  -152.9115 23.4130 -28.0496
# 240 vertices

vn -0.6688 -0.4683 -0.5774
vn -0.6688 -0.4683 0.5774
vn 0.4683 -0.6688 0.5774
vn 0.4683 -0.6688 -0.5774
vn -0.4683 0.6688 -0.5774
vn 0.6688 0.4683 -0.5774
vn 0.6688 0.4683 0.5774
vn -0.4683 0.6688 0.5774
vn -0.8240 -0.5027 0.2613
vn 0.1271 -0.4185 0.8993
vn 0.7129 -0.6985 -0.0625
vn -0.2443 -0.6683 -0.7027
vn -0.7129 0.6985 0.0625
vn -0.1271 0.4185 -0.8993
vn 0.8240 0.5027 -0.2613
vn 0.2443 0.6683 0.7027
vn -0.1271 -0.4185 0.8993
vn 0.8240 -0.5027 0.2613
vn 0.2443 -0.6683 -0.7027
vn -0.7129 -0.6985 -0.0625
vn -0.2443 0.6683 0.7027
vn -0.8240 0.5027 -0.2613
vn 0.1271 0.4185 -0.8993
vn 0.7129 0.6985 0.0625
vn 0.6688 -0.4683 0.5774
vn 0.6688 -0.4683 -0.5774
vn -0.4683 -0.6688 -0.5774
vn -0.4683 -0.6688 0.5774
vn 0.4683 0.6688 0.5774
vn -0.6688 0.4683 0.5774
vn -0.6688 0.4683 -0.5774
vn 0.4683 0.6688 -0.5774
vn -0.6689 0.4684 -0.5773
vn 0.8240 -0.5027 -0.2613
vn -0.1271 -0.4185 -0.8993
vn -0.7129 -0.6985 0.0625
vn 0.2443 -0.6683 0.7027
vn 0.7129 0.6985 -0.0625
vn 0.1271 0.4185 0.8993
vn -0.8240 0.5027 0.2613
vn -0.2443 0.6683 -0.7027
vn -0.0578 -0.4248 -0.9034
vn -0.8563 -0.5112 -0.0738
vn -0.0770 -0.6606 0.7468
vn 0.7049 -0.7044 -0.0832
vn 0.0770 0.6606 -0.7468
vn 0.8563 0.5112 0.0738
vn 0.0578 0.4248 0.9034
vn -0.7049 0.7044 0.0832
# 49 vertex normals

vt 1.0000 0.0000 0.0000
vt 1.0000 1.0000 0.0000
vt 0.0000 1.0000 0.0000
vt 0.0000 0.0000 0.0000
# 4 texture coords

o Box006
g Box006
usemtl Material__2
s 2
f 4/4/4 3/3/3 2/2/2 1/1/1 
s 4
f 8/3/8 7/2/7 6/1/6 5/4/5 
s 8
f 5/3/5 6/2/6 4/1/4 1/4/1 
s 16
f 6/3/6 7/2/7 3/1/3 4/4/4 
s 32
f 7/3/7 8/2/8 2/1/2 3/4/3 
s 64
f 8/3/8 5/2/5 1/1/1 2/4/2 
s 2
f 12/4/4 11/3/3 10/2/2 9/1/1 
s 4
f 16/3/8 15/2/7 14/1/6 13/4/5 
s 8
f 13/3/5 14/2/6 12/1/4 9/4/1 
s 16
f 14/3/6 15/2/7 11/1/3 12/4/4 
s 32
f 15/3/7 16/2/8 10/1/2 11/4/3 
s 64
f 16/3/8 13/2/5 9/1/1 10/4/2 
s 2
f 20/4/4 19/3/3 18/2/2 17/1/1 
s 4
f 24/3/8 23/2/7 22/1/6 21/4/5 
s 8
f 21/3/5 22/2/6 20/1/4 17/4/1 
s 16
f 22/3/6 23/2/7 19/1/3 20/4/4 
s 32
f 23/3/7 24/2/8 18/1/2 19/4/3 
s 64
f 24/3/8 21/2/5 17/1/1 18/4/2 
s 2
f 28/4/4 27/3/3 26/2/2 25/1/1 
s 4
f 32/3/8 31/2/7 30/1/6 29/4/5 
s 8
f 29/3/5 30/2/6 28/1/4 25/4/1 
s 16
f 30/3/6 31/2/7 27/1/3 28/4/4 
s 32
f 31/3/7 32/2/8 26/1/2 27/4/3 
s 64
f 32/3/8 29/2/5 25/1/1 26/4/2 
s 2
f 36/4/4 35/3/3 34/2/2 33/1/1 
s 4
f 40/3/8 39/2/7 38/1/6 37/4/5 
s 8
f 37/3/5 38/2/6 36/1/4 33/4/1 
s 16
f 38/3/6 39/2/7 35/1/3 36/4/4 
s 32
f 39/3/7 40/2/8 34/1/2 35/4/3 
s 64
f 40/3/8 37/2/5 33/1/1 34/4/2 
s 2
f 44/4/12 43/3/11 42/2/10 41/1/9 
s 4
f 48/3/16 47/2/15 46/1/14 45/4/13 
s 8
f 45/3/13 46/2/14 44/1/12 41/4/9 
s 16
f 46/3/14 47/2/15 43/1/11 44/4/12 
s 32
f 47/3/15 48/2/16 42/1/10 43/4/11 
s 64
f 48/3/16 45/2/13 41/1/9 42/4/10 
s 2
f 52/4/12 51/3/11 50/2/10 49/1/9 
s 4
f 56/3/16 55/2/15 54/1/14 53/4/13 
s 8
f 53/3/13 54/2/14 52/1/12 49/4/9 
s 16
f 54/3/14 55/2/15 51/1/11 52/4/12 
s 32
f 55/3/15 56/2/16 50/1/10 51/4/11 
s 64
f 56/3/16 53/2/13 49/1/9 50/4/10 
s 2
f 60/4/12 59/3/11 58/2/10 57/1/9 
s 4
f 64/3/16 63/2/15 62/1/14 61/4/13 
s 8
f 61/3/13 62/2/14 60/1/12 57/4/9 
s 16
f 62/3/14 63/2/15 59/1/11 60/4/12 
s 32
f 63/3/15 64/2/16 58/1/10 59/4/11 
s 64
f 64/3/16 61/2/13 57/1/9 58/4/10 
s 2
f 68/4/12 67/3/11 66/2/10 65/1/9 
s 4
f 72/3/16 71/2/15 70/1/14 69/4/13 
s 8
f 69/3/13 70/2/14 68/1/12 65/4/9 
s 16
f 70/3/14 71/2/15 67/1/11 68/4/12 
s 32
f 71/3/15 72/2/16 66/1/10 67/4/11 
s 64
f 72/3/16 69/2/13 65/1/9 66/4/10 
s 2
f 76/4/12 75/3/11 74/2/10 73/1/9 
s 4
f 80/3/16 79/2/15 78/1/14 77/4/13 
s 8
f 77/3/13 78/2/14 76/1/12 73/4/9 
s 16
f 78/3/14 79/2/15 75/1/11 76/4/12 
s 32
f 79/3/15 80/2/16 74/1/10 75/4/11 
s 64
f 80/3/16 77/2/13 73/1/9 74/4/10 
s 2
f 84/4/20 83/3/19 82/2/18 81/1/17 
s 4
f 88/3/24 87/2/23 86/1/22 85/4/21 
s 8
f 85/3/21 86/2/22 84/1/20 81/4/17 
s 16
f 86/3/22 87/2/23 83/1/19 84/4/20 
s 32
f 87/3/23 88/2/24 82/1/18 83/4/19 
s 64
f 88/3/24 85/2/21 81/1/17 82/4/18 
s 2
f 92/4/20 91/3/19 90/2/18 89/1/17 
s 4
f 96/3/24 95/2/23 94/1/22 93/4/21 
s 8
f 93/3/21 94/2/22 92/1/20 89/4/17 
s 16
f 94/3/22 95/2/23 91/1/19 92/4/20 
s 32
f 95/3/23 96/2/24 90/1/18 91/4/19 
s 64
f 96/3/24 93/2/21 89/1/17 90/4/18 
s 2
f 100/4/20 99/3/19 98/2/18 97/1/17 
s 4
f 104/3/24 103/2/23 102/1/22 101/4/21 
s 8
f 101/3/21 102/2/22 100/1/20 97/4/17 
s 16
f 102/3/22 103/2/23 99/1/19 100/4/20 
s 32
f 103/3/23 104/2/24 98/1/18 99/4/19 
s 64
f 104/3/24 101/2/21 97/1/17 98/4/18 
s 2
f 108/4/20 107/3/19 106/2/18 105/1/17 
s 4
f 112/3/24 111/2/23 110/1/22 109/4/21 
s 8
f 109/3/21 110/2/22 108/1/20 105/4/17 
s 16
f 110/3/22 111/2/23 107/1/19 108/4/20 
s 32
f 111/3/23 112/2/24 106/1/18 107/4/19 
s 64
f 112/3/24 109/2/21 105/1/17 106/4/18 
s 2
f 116/4/20 115/3/19 114/2/18 113/1/17 
s 4
f 120/3/24 119/2/23 118/1/22 117/4/21 
s 8
f 117/3/21 118/2/22 116/1/20 113/4/17 
s 16
f 118/3/22 119/2/23 115/1/19 116/4/20 
s 32
f 119/3/23 120/2/24 114/1/18 115/4/19 
s 64
f 120/3/24 117/2/21 113/1/17 114/4/18 
s 2
f 124/4/28 123/3/27 122/2/26 121/1/25 
s 4
f 128/3/32 127/2/31 126/1/30 125/4/29 
s 8
f 125/3/29 126/2/30 124/1/28 121/4/25 
s 16
f 126/3/30 127/2/31 123/1/27 124/4/28 
s 32
f 127/3/31 128/2/32 122/1/26 123/4/27 
s 64
f 128/3/32 125/2/29 121/1/25 122/4/26 
s 2
f 132/4/28 131/3/27 130/2/26 129/1/25 
s 4
f 136/3/32 135/2/31 134/1/30 133/4/29 
s 8
f 133/3/29 134/2/30 132/1/28 129/4/25 
s 16
f 134/3/30 135/2/31 131/1/27 132/4/28 
s 32
f 135/3/31 136/2/32 130/1/26 131/4/27 
s 64
f 136/3/32 133/2/29 129/1/25 130/4/26 
s 2
f 140/4/28 139/3/27 138/2/26 137/1/25 
s 4
f 144/3/32 143/2/33 142/1/30 141/4/29 
s 8
f 141/3/29 142/2/30 140/1/28 137/4/25 
s 16
f 142/3/30 143/2/33 139/1/27 140/4/28 
s 32
f 143/3/33 144/2/32 138/1/26 139/4/27 
s 64
f 144/3/32 141/2/29 137/1/25 138/4/26 
s 2
f 148/4/28 147/3/27 146/2/26 145/1/25 
s 4
f 152/3/32 151/2/31 150/1/30 149/4/29 
s 8
f 149/3/29 150/2/30 148/1/28 145/4/25 
s 16
f 150/3/30 151/2/31 147/1/27 148/4/28 
s 32
f 151/3/31 152/2/32 146/1/26 147/4/27 
s 64
f 152/3/32 149/2/29 145/1/25 146/4/26 
s 2
f 156/4/28 155/3/27 154/2/26 153/1/25 
s 4
f 160/3/32 159/2/33 158/1/30 157/4/29 
s 8
f 157/3/29 158/2/30 156/1/28 153/4/25 
s 16
f 158/3/30 159/2/33 155/1/27 156/4/28 
s 32
f 159/3/33 160/2/32 154/1/26 155/4/27 
s 64
f 160/3/32 157/2/29 153/1/25 154/4/26 
s 2
f 164/4/37 163/3/36 162/2/35 161/1/34 
s 4
f 168/3/41 167/2/40 166/1/39 165/4/38 
s 8
f 165/3/38 166/2/39 164/1/37 161/4/34 
s 16
f 166/3/39 167/2/40 163/1/36 164/4/37 
s 32
f 167/3/40 168/2/41 162/1/35 163/4/36 
s 64
f 168/3/41 165/2/38 161/1/34 162/4/35 
s 2
f 172/4/37 171/3/36 170/2/35 169/1/34 
s 4
f 176/3/41 175/2/40 174/1/39 173/4/38 
s 8
f 173/3/38 174/2/39 172/1/37 169/4/34 
s 16
f 174/3/39 175/2/40 171/1/36 172/4/37 
s 32
f 175/3/40 176/2/41 170/1/35 171/4/36 
s 64
f 176/3/41 173/2/38 169/1/34 170/4/35 
s 2
f 180/4/37 179/3/36 178/2/35 177/1/34 
s 4
f 184/3/41 183/2/40 182/1/39 181/4/38 
s 8
f 181/3/38 182/2/39 180/1/37 177/4/34 
s 16
f 182/3/39 183/2/40 179/1/36 180/4/37 
s 32
f 183/3/40 184/2/41 178/1/35 179/4/36 
s 64
f 184/3/41 181/2/38 177/1/34 178/4/35 
s 2
f 188/4/37 187/3/36 186/2/35 185/1/34 
s 4
f 192/3/41 191/2/40 190/1/39 189/4/38 
s 8
f 189/3/38 190/2/39 188/1/37 185/4/34 
s 16
f 190/3/39 191/2/40 187/1/36 188/4/37 
s 32
f 191/3/40 192/2/41 186/1/35 187/4/36 
s 64
f 192/3/41 189/2/38 185/1/34 186/4/35 
s 2
f 196/4/37 195/3/36 194/2/35 193/1/34 
s 4
f 200/3/41 199/2/40 198/1/39 197/4/38 
s 8
f 197/3/38 198/2/39 196/1/37 193/4/34 
s 16
f 198/3/39 199/2/40 195/1/36 196/4/37 
s 32
f 199/3/40 200/2/41 194/1/35 195/4/36 
s 64
f 200/3/41 197/2/38 193/1/34 194/4/35 
s 2
f 204/4/45 203/3/44 202/2/43 201/1/42 
s 4
f 208/3/49 207/2/48 206/1/47 205/4/46 
s 8
f 205/3/46 206/2/47 204/1/45 201/4/42 
s 16
f 206/3/47 207/2/48 203/1/44 204/4/45 
s 32
f 207/3/48 208/2/49 202/1/43 203/4/44 
s 64
f 208/3/49 205/2/46 201/1/42 202/4/43 
s 2
f 212/4/45 211/3/44 210/2/43 209/1/42 
s 4
f 216/3/49 215/2/48 214/1/47 213/4/46 
s 8
f 213/3/46 214/2/47 212/1/45 209/4/42 
s 16
f 214/3/47 215/2/48 211/1/44 212/4/45 
s 32
f 215/3/48 216/2/49 210/1/43 211/4/44 
s 64
f 216/3/49 213/2/46 209/1/42 210/4/43 
s 2
f 220/4/45 219/3/44 218/2/43 217/1/42 
s 4
f 224/3/49 223/2/48 222/1/47 221/4/46 
s 8
f 221/3/46 222/2/47 220/1/45 217/4/42 
s 16
f 222/3/47 223/2/48 219/1/44 220/4/45 
s 32
f 223/3/48 224/2/49 218/1/43 219/4/44 
s 64
f 224/3/49 221/2/46 217/1/42 218/4/43 
s 2
f 228/4/45 227/3/44 226/2/43 225/1/42 
s 4
f 232/3/49 231/2/48 230/1/47 229/4/46 
s 8
f 229/3/46 230/2/47 228/1/45 225/4/42 
s 16
f 230/3/47 231/2/48 227/1/44 228/4/45 
s 32
f 231/3/48 232/2/49 226/1/43 227/4/44 
s 64
f 232/3/49 229/2/46 225/1/42 226/4/43 
s 2
f 236/4/45 235/3/44 234/2/43 233/1/42 
s 4
f 240/3/49 239/2/48 238/1/47 237/4/46 
s 8
f 237/3/46 238/2/47 236/1/45 233/4/42 
s 16
f 238/3/47 239/2/48 235/1/44 236/4/45 
s 32
f 239/3/48 240/2/49 234/1/43 235/4/44 
s 64
f 240/3/49 237/2/46 233/1/42 234/4/43 
# 180 polygons

