# 3ds Max Wavefront OBJ Exporter v0.97b - (c)2007 guruware
# File Created: 05.07.2018 01:21:37

mtllib resources/ObjImages/WoodenBarrier/WoodenBarrierPartTest13.mtl

#
# object Box002
#

v  -36.3613 -30.8925 2.1643
v  33.4282 -30.8925 14.4701
v  34.4381 -31.9180 8.7426
v  -35.3514 -31.9180 -3.5631
v  -36.0052 -19.2610 0.1445
v  -34.9953 -20.2864 -5.5829
v  34.7943 -20.2864 6.7228
v  33.7844 -19.2610 12.4503
v  -35.9695 -18.0978 -0.0575
v  33.8200 -18.0978 12.2483
v  34.8299 -19.1233 6.5209
v  -34.9596 -19.1233 -5.7849
v  -35.6134 -6.4662 -2.0773
v  -34.6035 -7.4917 -7.8047
v  35.1860 -7.4917 4.5011
v  34.1761 -6.4662 10.2285
v  -35.5778 -5.3031 -2.2793
v  34.2117 -5.3031 10.0265
v  35.2216 -6.3285 4.2991
v  -34.5679 -6.3285 -8.0067
v  -35.2216 6.3285 -4.2991
v  -34.2117 5.3030 -10.0265
v  35.5778 5.3030 2.2793
v  34.5679 6.3285 8.0067
v  -35.1860 7.4917 -4.5011
v  34.6035 7.4917 7.8047
v  35.6134 6.4662 2.0773
v  -34.1761 6.4662 -10.2285
v  -34.8299 19.1233 -6.5209
v  -33.8200 18.0978 -12.2483
v  35.9695 18.0978 0.0575
v  34.9596 19.1233 5.7849
v  -34.7943 20.2864 -6.7228
v  34.9953 20.2864 5.5829
v  36.0052 19.2610 -0.1445
v  -33.7844 19.2610 -12.4503
v  -34.4381 31.9180 -8.7426
v  -33.4282 30.8925 -14.4701
v  36.3613 30.8925 -2.1643
v  35.3514 31.9180 3.5631
v  40.1406 -30.8925 12.5570
v  116.2934 -30.8925 -63.5958
v  112.1810 -31.9180 -67.7082
v  36.0282 -31.9180 8.4446
v  38.6903 -19.2610 11.1067
v  34.5779 -20.2864 6.9944
v  110.7307 -20.2864 -69.1584
v  114.8431 -19.2610 -65.0461
v  38.5453 -18.0978 10.9617
v  114.6981 -18.0978 -65.1911
v  110.5857 -19.1233 -69.3035
v  34.4329 -19.1233 6.8493
v  37.0950 -6.4662 9.5115
v  32.9827 -7.4917 5.3991
v  109.1355 -7.4917 -70.7537
v  113.2478 -6.4662 -66.6413
v  36.9500 -5.3031 9.3664
v  113.1028 -5.3031 -66.7864
v  108.9904 -6.3285 -70.8987
v  32.8376 -6.3285 5.2541
v  35.4998 6.3285 7.9162
v  31.3874 5.3030 3.8038
v  107.5402 5.3030 -72.3490
v  111.6526 6.3285 -68.2366
v  35.3547 7.4917 7.7712
v  111.5075 7.4917 -68.3816
v  107.3952 6.4662 -72.4940
v  31.2424 6.4662 3.6588
v  33.9045 19.1233 6.3209
v  29.7921 18.0978 2.2085
v  105.9449 18.0978 -73.9443
v  110.0573 19.1233 -69.8319
v  33.7595 20.2864 6.1759
v  109.9123 20.2864 -69.9769
v  105.7999 19.2609 -74.0893
v  29.6471 19.2609 2.0635
v  32.3092 31.9180 4.7256
v  28.1968 30.8925 0.6133
v  104.3496 30.8925 -75.5395
v  108.4620 31.9180 -71.4272
v  115.1371 -30.8926 -75.2206
v  65.0272 -30.8926 -125.3305
v  60.9148 -31.9180 -121.2181
v  111.0247 -31.9180 -71.1082
v  113.6869 -19.2610 -73.7703
v  109.5745 -20.2864 -69.6580
v  59.4645 -20.2865 -119.7679
v  63.5769 -19.2610 -123.8802
v  113.5418 -18.0978 -73.6253
v  63.4319 -18.0978 -123.7352
v  59.3195 -19.1233 -119.6228
v  109.4295 -19.1233 -69.5129
v  112.0916 -6.4662 -72.1751
v  107.9792 -7.4917 -68.0627
v  57.8693 -7.4917 -118.1726
v  61.9817 -6.4662 -122.2850
v  111.9466 -5.3031 -72.0300
v  61.8366 -5.3031 -122.1400
v  57.7242 -6.3285 -118.0276
v  107.8342 -6.3285 -67.9177
v  110.4963 6.3285 -70.5798
v  106.3839 5.3030 -66.4674
v  56.2740 5.3030 -116.5773
v  60.3864 6.3285 -120.6897
v  110.3513 7.4917 -70.4348
v  60.2413 7.4917 -120.5447
v  56.1290 6.4662 -116.4323
v  106.2389 6.4662 -66.3224
v  108.9010 19.1233 -68.9845
v  104.7887 18.0978 -64.8721
v  54.6787 18.0978 -114.9820
v  58.7911 19.1233 -119.0944
v  108.7560 20.2864 -68.8395
v  58.6461 20.2864 -118.9494
v  54.5337 19.2609 -114.8370
v  104.6436 19.2609 -64.7271
v  107.3058 31.9180 -67.3892
v  103.1934 30.8925 -63.2769
v  53.0834 30.8925 -113.3868
v  57.1958 31.9180 -117.4992
v  70.3642 -30.8925 -112.8482
v  70.3642 -30.8925 -194.9805
v  64.5484 -31.9180 -194.9805
v  64.5484 -31.9180 -112.8483
v  68.3133 -19.2610 -112.8482
v  62.4975 -20.2864 -112.8483
v  62.4975 -20.2864 -194.9805
v  68.3133 -19.2610 -194.9805
v  68.1082 -18.0978 -112.8482
v  68.1082 -18.0978 -194.9805
v  62.2924 -19.1233 -194.9805
v  62.2924 -19.1233 -112.8482
v  66.0572 -6.4662 -112.8482
v  60.2414 -7.4917 -112.8483
v  60.2414 -7.4917 -194.9805
v  66.0572 -6.4662 -194.9805
v  65.8521 -5.3031 -112.8482
v  65.8521 -5.3031 -194.9805
v  60.0363 -6.3285 -194.9805
v  60.0363 -6.3285 -112.8483
v  63.8011 6.3285 -112.8482
v  57.9853 5.3030 -112.8483
v  57.9854 5.3030 -194.9805
v  63.8011 6.3285 -194.9805
v  63.5960 7.4917 -112.8482
v  63.5961 7.4917 -194.9805
v  57.7803 6.4662 -194.9805
v  57.7803 6.4662 -112.8483
v  61.5451 19.1233 -112.8482
v  55.7293 18.0978 -112.8483
v  55.7293 18.0978 -194.9805
v  61.5451 19.1233 -194.9805
v  61.3400 20.2864 -112.8482
v  61.3400 20.2864 -194.9805
v  55.5242 19.2609 -194.9805
v  55.5242 19.2609 -112.8483
v  59.2890 31.9180 -112.8482
v  53.4732 30.8925 -112.8483
v  53.4732 30.8925 -194.9805
v  59.2890 31.9180 -194.9805
# 160 vertices

vn -0.6847 -0.4683 0.5584
vn 0.4524 -0.4683 0.7589
vn 0.6499 -0.6688 -0.3610
vn -0.4873 -0.6688 -0.5615
vn -0.6499 0.6688 0.3610
vn -0.4524 0.4683 -0.7589
vn 0.6847 0.4683 -0.5584
vn 0.4873 0.6688 0.5615
vn 0.0645 -0.4683 0.8812
vn 0.8811 -0.4684 0.0647
vn 0.0772 -0.6688 -0.7394
vn -0.7393 -0.6689 0.0772
vn -0.0770 0.6689 0.7394
vn -0.8812 0.4683 -0.0647
vn -0.0647 0.4683 -0.8812
vn 0.7395 0.6688 -0.0769
vn 0.0647 -0.4683 0.8812
vn 0.8812 -0.4683 0.0647
vn 0.0771 -0.6688 -0.7394
vn -0.7394 -0.6688 0.0771
vn -0.0771 0.6688 0.7394
vn 0.7394 0.6688 -0.0771
vn 0.8812 -0.4682 0.0647
vn 0.0769 -0.6689 -0.7394
vn -0.0772 0.6688 0.7394
vn -0.8811 0.4685 -0.0646
vn -0.0645 0.4683 -0.8812
vn 0.7393 0.6690 -0.0771
vn 0.0648 -0.4684 0.8812
vn 0.0769 -0.6688 -0.7395
vn -0.7394 -0.6688 0.0772
vn -0.8812 0.4683 -0.0646
vn -0.0647 0.4684 -0.8811
vn 0.7394 0.6688 -0.0773
vn 0.8812 -0.4683 0.0646
vn 0.0770 -0.6689 -0.7394
vn -0.0646 0.4683 -0.8812
vn 0.7393 0.6690 -0.0770
vn 0.8812 -0.4683 -0.0647
vn 0.0647 -0.4683 -0.8812
vn -0.7394 -0.6688 -0.0771
vn 0.0771 -0.6688 0.7394
vn 0.7395 0.6688 0.0771
vn -0.0647 0.4684 0.8811
vn -0.8812 0.4682 0.0647
vn -0.0771 0.6689 -0.7393
vn 0.7394 0.6688 0.0771
vn -0.0647 0.4683 0.8812
vn -0.8812 0.4683 0.0647
vn -0.0771 0.6688 -0.7394
vn 0.0648 -0.4684 -0.8812
vn -0.7394 -0.6688 -0.0772
vn 0.7394 0.6688 0.0772
vn 0.6687 -0.4683 0.5775
vn 0.6688 -0.4683 -0.5774
vn -0.4683 -0.6688 -0.5774
vn -0.4682 -0.6690 0.5773
vn 0.4684 0.6688 0.5773
vn -0.6688 0.4683 0.5773
vn -0.6688 0.4683 -0.5774
vn 0.4683 0.6688 -0.5774
vn 0.6688 -0.4683 0.5774
vn -0.4684 -0.6688 -0.5773
vn -0.4683 -0.6688 0.5774
vn 0.4683 0.6688 0.5774
vn -0.6688 0.4683 0.5774
vn -0.6688 0.4684 -0.5774
vn 0.6689 -0.4684 -0.5773
vn 0.6689 -0.4682 -0.5774
vn -0.4684 -0.6689 -0.5772
vn -0.6687 0.4683 -0.5775
vn 0.4683 0.6689 -0.5773
vn 0.6689 -0.4684 -0.5772
vn -0.4684 -0.6688 -0.5774
vn 0.4683 0.6687 0.5775
vn -0.6689 0.4684 0.5772
vn 0.4681 0.6689 -0.5774
# 77 vertex normals

vt 1.0000 0.0000 0.0000
vt 1.0000 1.0000 0.0000
vt 0.0000 1.0000 0.0000
vt 0.0000 0.0000 0.0000
# 4 texture coords

o Box002
g Box002
usemtl Material__3
s 2
f 4/4/4 3/3/3 2/2/2 1/1/1 
s 4
f 8/3/8 7/2/7 6/1/6 5/4/5 
s 8
f 5/3/5 6/2/6 4/1/4 1/4/1 
s 16
f 6/3/6 7/2/7 3/1/3 4/4/4 
s 32
f 7/3/7 8/2/8 2/1/2 3/4/3 
s 64
f 8/3/8 5/2/5 1/1/1 2/4/2 
s 2
f 12/4/4 11/3/3 10/2/2 9/1/1 
s 4
f 16/3/8 15/2/7 14/1/6 13/4/5 
s 8
f 13/3/5 14/2/6 12/1/4 9/4/1 
s 16
f 14/3/6 15/2/7 11/1/3 12/4/4 
s 32
f 15/3/7 16/2/8 10/1/2 11/4/3 
s 64
f 16/3/8 13/2/5 9/1/1 10/4/2 
s 2
f 20/4/4 19/3/3 18/2/2 17/1/1 
s 4
f 24/3/8 23/2/7 22/1/6 21/4/5 
s 8
f 21/3/5 22/2/6 20/1/4 17/4/1 
s 16
f 22/3/6 23/2/7 19/1/3 20/4/4 
s 32
f 23/3/7 24/2/8 18/1/2 19/4/3 
s 64
f 24/3/8 21/2/5 17/1/1 18/4/2 
s 2
f 28/4/4 27/3/3 26/2/2 25/1/1 
s 4
f 32/3/8 31/2/7 30/1/6 29/4/5 
s 8
f 29/3/5 30/2/6 28/1/4 25/4/1 
s 16
f 30/3/6 31/2/7 27/1/3 28/4/4 
s 32
f 31/3/7 32/2/8 26/1/2 27/4/3 
s 64
f 32/3/8 29/2/5 25/1/1 26/4/2 
s 2
f 36/4/4 35/3/3 34/2/2 33/1/1 
s 4
f 40/3/8 39/2/7 38/1/6 37/4/5 
s 8
f 37/3/5 38/2/6 36/1/4 33/4/1 
s 16
f 38/3/6 39/2/7 35/1/3 36/4/4 
s 32
f 39/3/7 40/2/8 34/1/2 35/4/3 
s 64
f 40/3/8 37/2/5 33/1/1 34/4/2 
s 2
f 44/4/12 43/3/11 42/2/10 41/1/9 
s 4
f 48/3/16 47/2/15 46/1/14 45/4/13 
s 8
f 45/3/13 46/2/14 44/1/12 41/4/9 
s 16
f 46/3/14 47/2/15 43/1/11 44/4/12 
s 32
f 47/3/15 48/2/16 42/1/10 43/4/11 
s 64
f 48/3/16 45/2/13 41/1/9 42/4/10 
s 2
f 52/4/20 51/3/19 50/2/18 49/1/17 
s 4
f 56/3/22 55/2/15 54/1/14 53/4/21 
s 8
f 53/3/21 54/2/14 52/1/20 49/4/17 
s 16
f 54/3/14 55/2/15 51/1/19 52/4/20 
s 32
f 55/3/15 56/2/22 50/1/18 51/4/19 
s 64
f 56/3/22 53/2/21 49/1/17 50/4/18 
s 2
f 60/4/20 59/3/24 58/2/23 57/1/17 
s 4
f 64/3/28 63/2/27 62/1/26 61/4/25 
s 8
f 61/3/25 62/2/26 60/1/20 57/4/17 
s 16
f 62/3/26 63/2/27 59/1/24 60/4/20 
s 32
f 63/3/27 64/2/28 58/1/23 59/4/24 
s 64
f 64/3/28 61/2/25 57/1/17 58/4/23 
s 2
f 68/4/31 67/3/30 66/2/23 65/1/29 
s 4
f 72/3/34 71/2/33 70/1/32 69/4/13 
s 8
f 69/3/13 70/2/32 68/1/31 65/4/29 
s 16
f 70/3/32 71/2/33 67/1/30 68/4/31 
s 32
f 71/3/33 72/2/34 66/1/23 67/4/30 
s 64
f 72/3/34 69/2/13 65/1/29 66/4/23 
s 2
f 76/4/20 75/3/36 74/2/35 73/1/9 
s 4
f 80/3/38 79/2/37 78/1/14 77/4/13 
s 8
f 77/3/13 78/2/14 76/1/20 73/4/9 
s 16
f 78/3/14 79/2/37 75/1/36 76/4/20 
s 32
f 79/3/37 80/2/38 74/1/35 75/4/36 
s 64
f 80/3/38 77/2/13 73/1/9 74/4/35 
s 2
f 84/4/42 83/3/41 82/2/40 81/1/39 
s 4
f 88/3/46 87/2/45 86/1/44 85/4/43 
s 8
f 85/3/43 86/2/44 84/1/42 81/4/39 
s 16
f 86/3/44 87/2/45 83/1/41 84/4/42 
s 32
f 87/3/45 88/2/46 82/1/40 83/4/41 
s 64
f 88/3/46 85/2/43 81/1/39 82/4/40 
s 2
f 92/4/42 91/3/41 90/2/40 89/1/39 
s 4
f 96/3/50 95/2/49 94/1/48 93/4/47 
s 8
f 93/3/47 94/2/48 92/1/42 89/4/39 
s 16
f 94/3/48 95/2/49 91/1/41 92/4/42 
s 32
f 95/3/49 96/2/50 90/1/40 91/4/41 
s 64
f 96/3/50 93/2/47 89/1/39 90/4/40 
s 2
f 100/4/42 99/3/41 98/2/51 97/1/39 
s 4
f 104/3/50 103/2/49 102/1/48 101/4/47 
s 8
f 101/3/47 102/2/48 100/1/42 97/4/39 
s 16
f 102/3/48 103/2/49 99/1/41 100/4/42 
s 32
f 103/3/49 104/2/50 98/1/51 99/4/41 
s 64
f 104/3/50 101/2/47 97/1/39 98/4/51 
s 2
f 108/4/42 107/3/52 106/2/40 105/1/39 
s 4
f 112/3/50 111/2/49 110/1/48 109/4/53 
s 8
f 109/3/53 110/2/48 108/1/42 105/4/39 
s 16
f 110/3/48 111/2/49 107/1/52 108/4/42 
s 32
f 111/3/49 112/2/50 106/1/40 107/4/52 
s 64
f 112/3/50 109/2/53 105/1/39 106/4/40 
s 2
f 116/4/42 115/3/41 114/2/51 113/1/39 
s 4
f 120/3/50 119/2/49 118/1/48 117/4/47 
s 8
f 117/3/47 118/2/48 116/1/42 113/4/39 
s 16
f 118/3/48 119/2/49 115/1/41 116/4/42 
s 32
f 119/3/49 120/2/50 114/1/51 115/4/41 
s 64
f 120/3/50 117/2/47 113/1/39 114/4/51 
s 2
f 124/4/57 123/3/56 122/2/55 121/1/54 
s 4
f 128/3/61 127/2/60 126/1/59 125/4/58 
s 8
f 125/3/58 126/2/59 124/1/57 121/4/54 
s 16
f 126/3/59 127/2/60 123/1/56 124/4/57 
s 32
f 127/3/60 128/2/61 122/1/55 123/4/56 
s 64
f 128/3/61 125/2/58 121/1/54 122/4/55 
s 2
f 132/4/64 131/3/63 130/2/55 129/1/62 
s 4
f 136/3/61 135/2/67 134/1/66 133/4/65 
s 8
f 133/3/65 134/2/66 132/1/64 129/4/62 
s 16
f 134/3/66 135/2/67 131/1/63 132/4/64 
s 32
f 135/3/67 136/2/61 130/1/55 131/4/63 
s 64
f 136/3/61 133/2/65 129/1/62 130/4/55 
s 2
f 140/4/64 139/3/63 138/2/68 137/1/62 
s 4
f 144/3/61 143/2/60 142/1/66 141/4/65 
s 8
f 141/3/65 142/2/66 140/1/64 137/4/62 
s 16
f 142/3/66 143/2/60 139/1/63 140/4/64 
s 32
f 143/3/60 144/2/61 138/1/68 139/4/63 
s 64
f 144/3/61 141/2/65 137/1/62 138/4/68 
s 2
f 148/4/64 147/3/70 146/2/69 145/1/62 
s 4
f 152/3/72 151/2/71 150/1/66 149/4/65 
s 8
f 149/3/65 150/2/66 148/1/64 145/4/62 
s 16
f 150/3/66 151/2/71 147/1/70 148/4/64 
s 32
f 151/3/71 152/2/72 146/1/69 147/4/70 
s 64
f 152/3/72 149/2/65 145/1/62 146/4/69 
s 2
f 156/4/64 155/3/74 154/2/73 153/1/62 
s 4
f 160/3/77 159/2/60 158/1/76 157/4/75 
s 8
f 157/3/75 158/2/76 156/1/64 153/4/62 
s 16
f 158/3/76 159/2/60 155/1/74 156/4/64 
s 32
f 159/3/60 160/2/77 154/1/73 155/4/74 
s 64
f 160/3/77 157/2/75 153/1/62 154/4/73 
# 120 polygons

